<svg width="317" height="222" viewBox="0 0 317 222" fill="none" xmlns="http://www.w3.org/2000/svg">
<g id="&#208;&#160;&#208;&#181;&#209;&#129;&#209;&#131;&#209;&#128;&#209;&#129; 1 3">
<g id="&#208;&#161;&#208;&#187;&#208;&#190;&#208;&#185; 2">
<g id="&#208;&#161;&#208;&#187;&#208;&#190;&#208;&#185; 1">
<g id="Group">
<path id="Vector" d="M148.461 198C139.669 198 132.509 191.422 132.509 183.329L131.671 68.7087H128.596C125.734 68.7534 122.911 68.0417 120.421 66.6471C117.93 65.2525 115.862 63.2257 114.429 60.7762C113.081 58.4086 112.473 55.6995 112.68 52.9904C112.887 50.2814 113.9 47.6935 115.593 45.5528L145.972 6.17541C147.532 4.24841 149.511 2.69289 151.762 1.62395C154.013 0.555006 156.478 0 158.975 0C161.472 0 163.937 0.555006 166.188 1.62395C168.439 2.69289 170.417 4.24841 171.978 6.17541L202.366 45.5528C204.06 47.6925 205.075 50.28 205.284 52.9891C205.492 55.6982 204.885 58.4077 203.538 60.7762C202.106 63.2257 200.037 65.2525 197.547 66.6471C195.056 68.0417 192.234 68.7534 189.372 68.7087H186.297L187.136 183.329C187.136 191.422 179.985 198 171.193 198H148.461Z" fill="#E6008C"/>
<path id="Vector_2" d="M156.54 13.2789L126.161 51.8631C124.754 53.6456 126.161 56.1145 128.596 56.1145H144.628L145.341 182.563C145.383 183.308 145.721 184.007 146.281 184.508C146.842 185.009 147.58 185.271 148.334 185.236H171.076C171.83 185.27 172.567 185.008 173.126 184.508C173.685 184.007 174.021 183.307 174.061 182.563L173.33 56.1502H189.363C191.789 56.1502 193.204 53.6813 191.798 51.8987L161.418 13.2789C161.122 12.9239 160.749 12.6381 160.327 12.4419C159.906 12.2458 159.445 12.144 158.979 12.144C158.513 12.144 158.053 12.2458 157.631 12.4419C157.21 12.6381 156.837 12.9239 156.54 13.2789V13.2789Z" stroke="black" stroke-width="5" stroke-miterlimit="10"/>
<path id="Vector_3" d="M245.117 198C236.325 198 229.174 191.422 229.174 183.329L228.327 154.273H225.252C222.39 154.318 219.568 153.606 217.077 152.211C214.587 150.817 212.518 148.79 211.086 146.341C209.74 143.972 209.132 141.264 209.339 138.555C209.546 135.847 210.559 133.259 212.249 131.117L242.637 91.7398C244.198 89.8128 246.176 88.2573 248.427 87.1883C250.678 86.1194 253.143 85.5644 255.64 85.5644C258.137 85.5644 260.602 86.1194 262.853 87.1883C265.104 88.2573 267.083 89.8128 268.643 91.7398L299.022 131.117C300.714 133.258 301.728 135.845 301.936 138.554C302.145 141.262 301.539 143.971 300.194 146.341C298.762 148.79 296.694 150.817 294.203 152.211C291.713 153.606 288.89 154.318 286.028 154.273H282.944L283.792 183.329C283.792 191.422 276.632 198 267.84 198H245.117Z" fill="#FFC800"/>
<path id="Vector_4" d="M253.205 98.8434L222.817 137.428C221.41 139.21 222.817 141.679 225.252 141.679H241.285L242.006 182.563C242.046 183.308 242.382 184.007 242.941 184.508C243.5 185.009 244.237 185.271 244.991 185.237H267.714C268.469 185.271 269.207 185.009 269.767 184.508C270.328 184.008 270.666 183.308 270.708 182.563L269.987 141.679H286.028C288.454 141.679 289.861 139.21 288.463 137.428L258.075 98.8434C257.779 98.4886 257.407 98.2029 256.986 98.0068C256.565 97.8106 256.105 97.7089 255.64 97.7089C255.175 97.7089 254.715 97.8106 254.294 98.0068C253.873 98.2029 253.501 98.4886 253.205 98.8434Z" stroke="black" stroke-width="5" stroke-miterlimit="10"/>
<path id="Vector_5" d="M51.7955 198C43.0307 198 35.8169 191.422 35.8169 183.329L34.9783 128.425H31.9304C29.0714 128.467 26.253 127.754 23.7659 126.359C21.2789 124.965 19.2133 122.94 17.7823 120.493C16.4389 118.124 15.8327 115.416 16.0397 112.708C16.2466 110 17.2574 107.412 18.9456 105.27L49.3428 65.8922C50.9032 63.9652 52.8819 62.4097 55.1327 61.3407C57.3835 60.2718 59.8486 59.7168 62.3457 59.7168C64.8428 59.7168 67.3079 60.2718 69.5587 61.3407C71.8095 62.4097 73.7883 63.9652 75.3486 65.8922L105.737 105.27C107.427 107.411 108.439 109.999 108.646 112.707C108.853 115.416 108.246 118.125 106.9 120.493C105.468 122.942 103.399 124.969 100.909 126.364C98.4182 127.758 95.596 128.47 92.7339 128.425H89.632L90.4706 183.329C90.4706 191.422 83.3109 198 74.519 198H51.7955Z" fill="#1EBEAA"/>
<path id="Vector_6" d="M59.8839 72.9959L29.5047 111.58C28.098 113.363 29.5047 115.832 31.9394 115.832H47.9721L48.6844 182.563C48.7241 183.308 49.0602 184.007 49.6193 184.508C50.1785 185.009 50.9153 185.271 51.6692 185.237H74.3927C75.1474 185.271 75.8853 185.009 76.4459 184.508C77.0064 184.008 77.3444 183.308 77.3864 182.563L76.6651 115.867H92.7068C95.1324 115.867 96.5481 113.398 95.1415 111.616L64.7532 72.9959C64.4571 72.641 64.0853 72.3553 63.6644 72.1592C63.2435 71.963 62.7839 71.8613 62.3186 71.8613C61.8532 71.8613 61.3936 71.963 60.9727 72.1592C60.5518 72.3553 60.18 72.641 59.8839 72.9959Z" stroke="black" stroke-width="5" stroke-miterlimit="10"/>
</g>
</g>
</g>
</g>
</svg>
