<svg width="317" height="170" viewBox="0 0 317 170" fill="none" xmlns="http://www.w3.org/2000/svg">
<g id="Frame 1" clip-path="url(#clip0_168_1403)">
<g id="Frame 1_2" clip-path="url(#clip1_168_1403)">
<path id="Vector" d="M197.322 94.9721C192.865 110.687 179.809 120.794 168.153 117.545C156.498 114.296 146.265 98.2911 150.721 82.5757C155.177 66.8603 172.61 57.3331 184.305 60.5822C196.001 63.8312 201.788 79.2067 197.322 94.9721Z" fill="#1EBEAA"/>
<path id="Vector_2" d="M176.159 84.7951C171.702 100.511 155.792 110.188 144.147 106.939C132.502 103.69 126.665 88.3041 131.121 72.5887C135.577 56.8734 148.644 46.7663 160.289 49.9854C171.934 53.2044 180.615 69.0798 176.159 84.7951Z" fill="#1EBEAA"/>
<path id="Vector_3" d="M120.081 116.726C107.387 115.446 96.9922 124.373 98.3029 111.787L104.735 31.6807C107.407 6.80805 120.091 -1.14961 132.785 0.130013C145.478 1.40964 152.717 14.6357 151.437 27.222L148.069 99.6807C146.779 112.267 132.774 117.965 120.081 116.726Z" fill="#1EBEAA"/>
<path id="Vector_4" d="M106.56 86.6945C103.274 91.1132 100.067 98.0412 98.6256 108.888C96.9821 121.264 98.6256 133.601 102.981 141.878C107.025 149.451 112.87 155.932 120.01 160.759C127.15 165.586 135.369 168.614 143.956 169.58C146.134 169.84 148.326 169.973 150.519 169.98C163.812 170.178 176.651 165.191 186.271 156.094C194.162 148.514 199.775 138.91 202.484 128.352C208.694 122.484 212.102 113.697 213.998 108.808C217.022 101.13 220.39 89.8736 215.631 80.7263C214.312 78.2371 212.461 76.063 210.208 74.3554C207.955 72.6479 205.353 71.4479 202.585 70.8392C200.697 70.3689 198.754 70.1504 196.807 70.1894L106.56 86.6945Z" fill="#1EBEAA"/>
<path id="Vector_5" d="M186.422 125.963C180.575 125.263 177.116 120.965 177.348 114.706C177.371 114.176 177.605 113.676 178 113.317C178.195 113.14 178.423 113.002 178.672 112.912C178.921 112.821 179.186 112.781 179.451 112.792C179.715 112.803 179.975 112.866 180.216 112.977C180.456 113.087 180.672 113.244 180.851 113.438C181.031 113.631 181.17 113.858 181.261 114.105C181.352 114.352 181.393 114.614 181.381 114.876C181.291 116.816 181.654 121.394 186.886 122.014C191.927 122.624 196.464 119.865 202.443 104.469C205.72 96.0118 206.476 89.9436 204.621 86.4746C204.093 85.5316 203.36 84.7162 202.477 84.0871C201.593 83.4579 200.579 83.0306 199.509 82.8357C197.882 82.4353 196.174 82.5049 194.586 83.0363C192.997 83.5678 191.596 84.5388 190.546 85.8348C190.186 86.222 189.687 86.4528 189.157 86.4772C188.626 86.5015 188.107 86.3174 187.713 85.9648C187.324 85.6097 187.091 85.1174 187.065 84.5938C187.039 84.0703 187.221 83.5574 187.572 83.1656C191.111 79.2868 195.698 77.8172 200.497 79.0368C202.119 79.362 203.648 80.0377 204.976 81.0157C206.304 81.9938 207.398 83.2501 208.18 84.6952C210.6 89.3338 209.945 96.3018 206.164 105.999C200.245 121.234 194.519 126.993 186.382 126.063" fill="black"/>
<path id="Vector_6" d="M186.422 125.963C180.575 125.263 177.116 120.965 177.348 114.706C177.371 114.176 177.605 113.676 178 113.317C178.195 113.14 178.423 113.002 178.672 112.912C178.921 112.821 179.186 112.781 179.451 112.792C179.715 112.803 179.975 112.866 180.216 112.977C180.456 113.087 180.672 113.244 180.851 113.438C181.031 113.631 181.17 113.858 181.261 114.105C181.352 114.352 181.393 114.614 181.381 114.876C181.291 116.816 181.654 121.394 186.886 122.014C191.927 122.624 196.464 119.865 202.443 104.469C205.72 96.0118 206.476 89.9436 204.621 86.4746C204.093 85.5316 203.36 84.7162 202.477 84.0871C201.593 83.4579 200.579 83.0306 199.509 82.8357C197.882 82.4353 196.174 82.5049 194.586 83.0363C192.997 83.5678 191.596 84.5388 190.546 85.8348C190.186 86.222 189.687 86.4528 189.157 86.4772C188.626 86.5015 188.107 86.3174 187.713 85.9648C187.324 85.6097 187.091 85.1174 187.065 84.5938C187.039 84.0703 187.221 83.5574 187.572 83.1656C191.111 79.2868 195.698 77.8172 200.497 79.0368C202.119 79.362 203.648 80.0377 204.976 81.0157C206.304 81.9938 207.398 83.2501 208.18 84.6952C210.6 89.3338 209.945 96.3018 206.164 105.999C200.286 121.094 194.559 126.903 186.422 125.963Z" stroke="#231F20" stroke-width="0.92" stroke-miterlimit="10"/>
<path id="Vector_7" d="M166.399 124.313C165.655 124.225 164.917 124.088 164.191 123.904C160.854 123.074 156.77 120.465 156.216 112.767C156.197 112.504 156.231 112.241 156.315 111.991C156.4 111.741 156.533 111.511 156.707 111.312C156.881 111.113 157.093 110.951 157.33 110.833C157.568 110.716 157.826 110.646 158.091 110.627C158.356 110.609 158.622 110.643 158.874 110.726C159.125 110.81 159.358 110.941 159.558 111.114C159.759 111.287 159.923 111.497 160.041 111.732C160.16 111.968 160.23 112.224 160.249 112.487C160.672 118.255 163.274 119.565 165.209 120.045C171.995 121.744 177.469 118.735 183.791 98.531C186.523 89.7936 188.681 81.0262 185.969 76.1076C184.85 74.1082 182.944 72.7086 180.01 71.9189C177.076 71.1291 174.596 71.2191 172.7 72.2987C168.496 74.708 166.228 82.2358 164.08 90.3934C164.038 90.6707 163.938 90.9361 163.786 91.1724C163.634 91.4088 163.434 91.6108 163.198 91.7654C162.962 91.92 162.696 92.0236 162.417 92.0697C162.138 92.1157 161.853 92.1031 161.579 92.0326C161.305 91.9621 161.05 91.8354 160.829 91.6606C160.608 91.4858 160.426 91.2669 160.296 91.018C160.166 90.7692 160.09 90.496 160.073 90.2162C160.056 89.9363 160.099 89.6561 160.198 89.3937C162.658 80.0365 165.139 72.0388 170.694 68.8598C173.568 67.2102 176.965 66.9603 181.079 68.09C185.011 69.1597 187.844 71.2191 189.488 74.1982C192.724 80.0665 191.081 88.6439 187.622 99.7107C182.722 115.386 177.157 125.603 166.449 124.313" fill="black"/>
<path id="Vector_8" d="M166.399 124.313C165.655 124.225 164.917 124.088 164.191 123.904C160.854 123.074 156.77 120.465 156.216 112.767C156.197 112.504 156.231 112.241 156.315 111.991C156.4 111.741 156.533 111.511 156.707 111.312C156.881 111.113 157.093 110.951 157.33 110.833C157.568 110.716 157.826 110.646 158.091 110.627C158.356 110.609 158.622 110.643 158.874 110.726C159.125 110.81 159.358 110.941 159.558 111.114C159.759 111.287 159.923 111.497 160.041 111.732C160.16 111.968 160.23 112.224 160.249 112.487C160.672 118.255 163.274 119.565 165.209 120.045C171.995 121.744 177.469 118.735 183.791 98.531C186.523 89.7936 188.681 81.0262 185.969 76.1076C184.85 74.1082 182.944 72.7086 180.01 71.9189C177.076 71.1291 174.596 71.2191 172.7 72.2987C168.496 74.708 166.228 82.2358 164.08 90.3934C164.038 90.6707 163.938 90.9361 163.786 91.1724C163.634 91.4088 163.434 91.6108 163.198 91.7654C162.962 91.92 162.696 92.0236 162.417 92.0697C162.138 92.1157 161.853 92.1031 161.579 92.0326C161.305 91.9621 161.05 91.8354 160.829 91.6606C160.608 91.4858 160.426 91.2669 160.296 91.018C160.166 90.7692 160.09 90.496 160.073 90.2162C160.056 89.9363 160.099 89.6561 160.198 89.3937C162.658 80.0365 165.139 72.0388 170.694 68.8598C173.568 67.2102 176.965 66.9603 181.079 68.09C185.011 69.1597 187.844 71.2191 189.488 74.1982C192.724 80.0665 191.081 88.6439 187.622 99.7107C182.692 115.386 177.117 125.603 166.399 124.313Z" stroke="#231F20" stroke-width="0.92" stroke-miterlimit="10"/>
<path id="Vector_9" d="M141.355 88.3941C141.095 88.7106 140.743 88.9407 140.347 89.0533C139.951 89.1658 139.53 89.1556 139.141 89.0239C138.751 88.8922 138.411 88.6453 138.167 88.3164C137.923 87.9876 137.786 87.5926 137.775 87.1844C137.775 87.0744 137.775 64.791 138.683 46.1365C138.784 44.1771 138.888 42.2776 138.995 40.4382C139.873 24.7328 141.012 16.4452 133.954 14.2259C130.294 13.0862 127.239 13.3661 124.608 15.0956C119.698 18.3347 116.542 26.4223 115.362 38.4887C113.033 63.5914 111.713 101.97 111.703 102.11C111.703 102.64 111.49 103.149 111.112 103.524C110.734 103.899 110.221 104.109 109.686 104.109C109.353 104.109 107.982 115.436 107.67 115.296C107.024 114.956 107.67 102.86 107.67 102.08C107.67 101.93 109 63.4314 111.38 38.1688C112.64 24.8627 116.421 15.7554 122.4 11.8366C126.06 9.42729 130.355 8.97742 135.174 10.487C145.519 13.676 143.875 24.9927 142.998 40.6681C142.897 42.4876 142.786 44.377 142.696 46.3264C142.181 56.9533 141.99 85.055 141.919 90.0636" fill="black"/>
<path id="Vector_10" d="M141.355 88.3941C141.095 88.7106 140.743 88.9407 140.347 89.0533C139.951 89.1658 139.53 89.1556 139.141 89.0239C138.751 88.8921 138.411 88.6453 138.167 88.3164C137.923 87.9876 137.786 87.5926 137.775 87.1844C137.775 87.0744 137.775 64.791 138.683 46.1365C138.784 44.1771 138.888 42.2776 138.995 40.4382C139.873 24.7328 141.012 16.4452 133.954 14.2259C130.294 13.0862 127.239 13.3661 124.608 15.0956C119.698 18.3347 116.542 26.4223 115.362 38.4887C113.033 63.5914 111.713 101.97 111.703 102.11C111.703 102.64 111.49 103.149 111.112 103.524C110.734 103.899 110.221 104.109 109.686 104.109C109.353 104.109 107.982 115.436 107.67 115.296C107.024 114.956 107.67 102.86 107.67 102.08C107.67 101.93 109 63.4314 111.38 38.1688C112.64 24.8627 116.421 15.7554 122.4 11.8366C126.06 9.42729 130.355 8.97742 135.174 10.487C145.519 13.676 143.875 24.9927 142.998 40.6681C142.897 42.4876 142.786 44.377 142.696 46.3264C142.181 56.9533 141.99 85.055 141.919 90.0636" stroke="#231F20" stroke-width="0.92" stroke-miterlimit="10"/>
<path id="Vector_11" d="M144.964 161.373C137.725 160.569 130.792 158.027 124.768 153.966C118.743 149.905 113.808 144.449 110.392 138.069C102.548 123.174 106.651 93.9824 117.449 87.6843C124.678 83.4755 131.958 84.6852 139.681 86.0548C142.544 86.5446 145.498 87.0545 148.634 87.3244C149.925 87.4444 151.326 87.5243 152.798 87.6143C160.198 88.0542 168.577 88.554 171.561 93.4926C173.084 96.0119 172.922 99.2809 171.097 103.21C168.032 109.838 161.217 114.047 151.437 115.366C148.764 115.718 146.067 115.862 143.371 115.796C146.214 119.425 149.219 125.563 147.807 134.471C147.679 134.948 147.377 135.362 146.959 135.632C146.541 135.902 146.037 136.009 145.544 135.932C145.052 135.855 144.605 135.599 144.291 135.215C143.978 134.831 143.819 134.345 143.845 133.851C145.861 121.184 137.352 115.336 136.989 115.086C136.621 114.829 136.35 114.458 136.22 114.031C136.089 113.604 136.106 113.146 136.269 112.73C136.431 112.314 136.729 111.964 137.115 111.735C137.502 111.506 137.954 111.412 138.4 111.467C138.622 111.467 161.368 114.646 167.468 101.54C168.708 98.881 168.93 96.8616 168.123 95.542C166.238 92.4129 158.656 91.953 152.566 91.5432C151.064 91.4532 149.642 91.3632 148.291 91.2433C144.994 90.9733 141.96 90.4735 139.015 89.9736C131.444 88.674 125.455 87.6443 119.496 91.1133C115.524 93.4226 112.146 101.03 110.896 110.488C109.585 120.305 110.755 130.172 113.921 136.23C120.877 149.426 134.912 157.674 150.55 157.734C173.598 157.834 187.542 140.149 191.131 122.594C191.159 122.316 191.245 122.046 191.384 121.803C191.523 121.559 191.712 121.348 191.939 121.182C192.166 121.015 192.426 120.898 192.701 120.837C192.977 120.777 193.262 120.774 193.538 120.83C193.815 120.885 194.076 120.998 194.306 121.16C194.536 121.322 194.729 121.53 194.873 121.771C195.017 122.012 195.108 122.279 195.141 122.557C195.174 122.835 195.147 123.117 195.063 123.384C191.151 142.538 175.856 161.823 150.53 161.713C148.663 161.705 146.798 161.592 144.944 161.373" fill="black"/>
<path id="Vector_12" d="M144.964 161.373C137.725 160.569 130.792 158.027 124.768 153.966C118.743 149.905 113.808 144.449 110.392 138.069C102.548 123.174 106.651 93.9824 117.449 87.6843C124.678 83.4755 131.958 84.6852 139.681 86.0548C142.544 86.5446 145.498 87.0545 148.634 87.3244C149.925 87.4444 151.326 87.5243 152.798 87.6143C160.198 88.0542 168.577 88.554 171.561 93.4926C173.084 96.0119 172.922 99.2809 171.097 103.21C168.032 109.838 161.217 114.047 151.437 115.366C148.764 115.718 146.067 115.862 143.371 115.796C146.214 119.425 149.219 125.563 147.807 134.471C147.679 134.948 147.377 135.362 146.959 135.632C146.541 135.902 146.037 136.009 145.544 135.932C145.052 135.855 144.605 135.599 144.291 135.215C143.978 134.831 143.819 134.345 143.845 133.851C145.861 121.184 137.352 115.336 136.989 115.086C136.621 114.829 136.35 114.458 136.22 114.031C136.089 113.604 136.106 113.146 136.269 112.73C136.431 112.314 136.729 111.964 137.115 111.735C137.502 111.506 137.954 111.412 138.4 111.467C138.622 111.467 161.368 114.646 167.468 101.54C168.708 98.881 168.93 96.8616 168.123 95.542C166.238 92.4129 158.656 91.953 152.566 91.5432C151.064 91.4532 149.642 91.3632 148.291 91.2433C144.994 90.9733 141.96 90.4735 139.015 89.9736C131.444 88.674 125.455 87.6443 119.496 91.1133C115.524 93.4226 112.146 101.03 110.896 110.488C109.585 120.305 110.755 130.172 113.921 136.23C120.877 149.426 134.912 157.674 150.55 157.734C173.598 157.834 187.542 140.149 191.131 122.594C191.159 122.316 191.245 122.046 191.384 121.803C191.523 121.559 191.712 121.348 191.939 121.182C192.166 121.015 192.426 120.898 192.701 120.837C192.977 120.777 193.262 120.774 193.538 120.83C193.815 120.885 194.076 120.998 194.306 121.16C194.536 121.322 194.729 121.53 194.873 121.771C195.017 122.012 195.108 122.279 195.141 122.557C195.174 122.835 195.147 123.117 195.063 123.384C191.151 142.538 175.856 161.823 150.53 161.713C148.669 161.705 146.811 161.591 144.964 161.373V161.373Z" stroke="#231F20" stroke-width="0.92" stroke-miterlimit="10"/>
<path id="Vector_13" d="M140.074 80.8662C141.143 81.1462 140.79 79.3767 141.082 78.317C143.23 70.1494 145.498 62.6216 149.703 60.2123C151.598 59.1326 153.988 59.0127 157.012 59.8324C160.037 60.6522 161.832 61.9818 162.951 63.9812C165.663 68.9797 163.536 77.7072 160.773 86.4546C160.38 87.6942 159.997 88.8639 159.614 89.9836L163.536 90.9733C163.899 89.8936 164.262 88.8039 164.615 87.6742C168.063 76.5575 169.706 67.98 166.47 62.1118C164.826 59.1126 161.993 57.1132 158.061 56.0036C153.947 54.8739 150.55 55.1238 147.676 56.7733C142.121 59.9524 141.536 61.242 139.076 70.5993C138.804 71.6689 138.995 80.5963 140.084 80.8662" fill="black"/>
<path id="Vector_14" d="M140.074 80.8662C141.143 81.1462 140.79 79.3767 141.082 78.317C143.23 70.1494 145.498 62.6216 149.703 60.2123C151.598 59.1326 153.988 59.0127 157.012 59.8324C160.037 60.6522 161.832 61.9818 162.951 63.9812C165.663 68.9797 163.536 77.7072 160.773 86.4546C160.38 87.6942 159.997 88.8639 159.614 89.9836L163.536 90.9733C163.899 89.8936 164.262 88.8039 164.614 87.6742C168.063 76.5575 169.706 67.98 166.47 62.1118C164.826 59.1126 161.993 57.1132 158.061 56.0036C153.947 54.8739 150.55 55.1238 147.676 56.7733C142.121 59.9524 141.536 61.242 139.076 70.5993C138.804 71.6689 138.995 80.5963 140.074 80.8662Z" stroke="#231F20" stroke-width="0.92" stroke-miterlimit="10"/>
</g>
</g>
<defs>
<clipPath id="clip0_168_1403">
<rect width="317" height="170" fill="white"/>
</clipPath>
<clipPath id="clip1_168_1403">
<rect width="120.006" height="169.986" fill="white" transform="translate(98 -0.000488281)"/>
</clipPath>
</defs>
</svg>
