<svg width="317" height="192" viewBox="0 0 317 192" fill="none" xmlns="http://www.w3.org/2000/svg">
<g id="Frame 1" clip-path="url(#clip0_168_1387)">
<g id="Frame 1_2" clip-path="url(#clip1_168_1387)">
<path id="Vector" d="M210.8 4.54915L223.784 30.8966C224.368 32.0804 225.232 33.1043 226.3 33.8801C227.368 34.6558 228.61 35.1601 229.916 35.3494L259 39.5726C260.506 39.7898 261.921 40.424 263.085 41.4035C264.249 42.383 265.115 43.6686 265.586 45.1148C266.057 46.5611 266.113 48.1102 265.749 49.5868C265.384 51.0634 264.614 52.4086 263.524 53.4702L242.481 73.9771C241.535 74.8989 240.829 76.0369 240.422 77.2927C240.014 78.5485 239.919 79.8845 240.144 81.1854L245.137 110.139C245.394 111.637 245.226 113.177 244.653 114.585C244.08 115.993 243.124 117.212 241.894 118.105C240.664 118.999 239.208 119.53 237.692 119.639C236.175 119.749 234.658 119.432 233.312 118.725L207.345 105.047C206.176 104.432 204.875 104.111 203.554 104.111C202.234 104.111 200.933 104.432 199.764 105.047L173.747 118.725C172.401 119.429 170.885 119.744 169.37 119.633C167.855 119.522 166.402 118.99 165.173 118.098C163.944 117.205 162.99 115.986 162.417 114.58C161.844 113.174 161.676 111.635 161.931 110.139L166.925 81.1854C167.149 79.8837 167.052 78.5472 166.643 77.2913C166.234 76.0354 165.525 74.8979 164.578 73.9771L143.425 53.4702C142.335 52.4093 141.564 51.0649 141.2 49.589C140.835 48.1131 140.89 46.5646 141.36 45.1186C141.83 43.6726 142.695 42.3869 143.857 41.4068C145.02 40.4267 146.434 39.7914 147.939 39.5726L177.023 35.3494C178.331 35.16 179.573 34.6557 180.643 33.8801C181.713 33.1045 182.578 32.0806 183.165 30.8966L196.149 4.54915C196.819 3.18414 197.859 2.03438 199.151 1.2303C200.442 0.426217 201.933 0 203.454 0C204.976 0 206.467 0.426217 207.758 1.2303C209.049 2.03438 210.09 3.18414 210.76 4.54915" fill="#FFC800"/>
<path id="Vector_2" d="M58.0613 160.078C47.8341 140.929 47.3347 122.449 56.5831 105.167C64.3434 90.6401 77.1973 80.4566 86.1861 74.0569C94.0763 68.446 102.166 66.4692 110.086 68.1964C115.427 69.4371 120.321 72.1286 124.229 75.9738L166.945 53.1806C169.453 51.8853 172.219 51.1656 175.04 51.0741C177.862 50.9825 180.668 51.5214 183.255 52.6515C188.034 54.5562 192.01 58.0508 194.511 62.5455C199.844 72.5294 196.328 85.6582 187 90.6501L164.658 102.551L164.898 102.98C166.965 106.876 167.631 111.362 166.785 115.69C169.794 117.984 172.056 121.116 173.29 124.691C174.523 128.267 174.671 132.127 173.717 135.787C175.269 137.187 176.567 138.846 177.552 140.689C181.936 148.886 179.16 158.96 170.81 165.2C165.477 169.193 161.542 171.649 148.768 178.388C136.303 184.948 118.246 192.635 102.935 191.967C84.2485 191.138 68.718 180.106 57.9914 160.078" fill="#FA3200"/>
<path id="Vector_3" d="M165.607 158.481C171.1 154.377 172.978 148.217 170.271 143.165C168.929 140.652 166.662 138.758 163.949 137.884C165.312 136.042 166.129 133.853 166.306 131.568C166.482 129.283 166.012 126.995 164.948 124.965C164.178 123.532 163.126 122.271 161.853 121.259C160.581 120.246 159.116 119.503 157.547 119.074H157.347C158.555 117.254 159.252 115.144 159.366 112.963C159.48 110.782 159.007 108.61 157.996 106.674C156.781 104.401 154.85 102.59 152.503 101.523L182.146 85.7082C187.41 82.8927 190.476 74.4863 186.72 67.4477C185.038 64.4498 182.37 62.1255 179.17 60.8683C177.561 60.1452 175.811 59.7889 174.048 59.8251C172.284 59.8614 170.55 60.2893 168.973 61.0779L122.96 85.5484C120.803 82.703 116.159 77.6811 109.297 76.1935C103.475 74.9356 97.4521 76.4831 91.3797 80.8061C83.1999 86.6167 71.5444 95.8518 64.683 108.681C56.8229 123.397 57.3023 139.212 66.1112 155.705C75.3197 172.947 88.4533 182.432 104.064 183.121C118.046 183.74 135.774 175.613 145.073 170.711C157.058 164.391 160.713 162.105 165.567 158.481H165.607ZM142.735 166.288C133.896 170.951 117.167 178.718 104.323 178.129C90.341 177.51 78.9752 169.143 70.5257 153.349C62.5357 138.373 62.0663 124.186 69.0975 111.037C75.4596 99.1265 86.5157 90.4006 94.276 84.8695C99.14 81.4051 103.824 80.1272 108.259 81.0657C113.093 82.0641 116.648 85.6183 118.526 87.9346L104.873 95.2228C104.562 95.3651 104.283 95.5696 104.054 95.8236C103.825 96.0777 103.65 96.3759 103.541 96.6999C103.431 97.024 103.389 97.367 103.418 97.7078C103.446 98.0486 103.543 98.3801 103.705 98.6818C103.866 98.9835 104.087 99.249 104.355 99.462C104.622 99.6751 104.931 99.831 105.261 99.9204C105.591 100.01 105.936 100.031 106.275 99.9816C106.613 99.9327 106.938 99.8149 107.23 99.6357L171.37 65.401C172.31 64.9728 173.332 64.7512 174.366 64.7512C175.4 64.7512 176.421 64.9728 177.362 65.401C179.461 66.237 181.219 67.752 182.356 69.704C184.254 73.2583 183.465 79.2586 179.839 81.1955L141.117 101.842L125.137 110.348C124.844 110.504 124.583 110.717 124.372 110.973C124.16 111.23 124.001 111.526 123.904 111.844C123.806 112.162 123.772 112.496 123.804 112.827C123.836 113.158 123.933 113.479 124.089 113.773C124.245 114.067 124.457 114.327 124.714 114.538C124.971 114.75 125.266 114.909 125.584 115.006C125.903 115.104 126.237 115.137 126.568 115.106C126.899 115.074 127.221 114.977 127.514 114.821L143.494 106.305C145.27 105.334 147.35 105.08 149.307 105.596C150.218 105.84 151.069 106.266 151.81 106.85C152.55 107.433 153.163 108.162 153.612 108.991C154.491 110.756 154.634 112.798 154.011 114.669C153.387 116.54 152.048 118.088 150.286 118.974L148.059 120.163L132.898 128.22C132.587 128.362 132.308 128.566 132.079 128.82C131.85 129.074 131.675 129.373 131.566 129.697C131.456 130.021 131.414 130.364 131.443 130.705C131.471 131.045 131.568 131.377 131.73 131.679C131.891 131.98 132.112 132.246 132.38 132.459C132.647 132.672 132.956 132.828 133.286 132.917C133.616 133.006 133.961 133.027 134.3 132.978C134.638 132.929 134.963 132.812 135.255 132.632L150.416 124.545C152.192 123.573 154.276 123.329 156.229 123.867C157.147 124.114 158.005 124.547 158.75 125.137C159.495 125.728 160.112 126.464 160.563 127.301C161.441 129.068 161.583 131.11 160.958 132.982C160.333 134.853 158.991 136.4 157.227 137.285L154.601 138.693L140.618 146.171C140.278 146.287 139.968 146.476 139.707 146.724C139.447 146.971 139.242 147.272 139.108 147.605C138.974 147.938 138.913 148.296 138.93 148.655C138.946 149.014 139.04 149.365 139.204 149.685C139.368 150.004 139.599 150.285 139.881 150.507C140.164 150.73 140.49 150.889 140.839 150.974C141.189 151.06 141.552 151.069 141.905 151.001C142.258 150.934 142.592 150.791 142.885 150.583L156.868 143.096C158.431 142.241 160.265 142.03 161.981 142.506C162.785 142.72 163.536 143.096 164.189 143.612C164.842 144.127 165.382 144.77 165.777 145.502C167.614 148.946 165.167 152.49 162.521 154.487C158.236 157.682 155.07 159.769 142.686 166.298" fill="black"/>
</g>
</g>
<defs>
<clipPath id="clip0_168_1387">
<rect width="317" height="192" fill="white"/>
</clipPath>
<clipPath id="clip1_168_1387">
<rect width="216.001" height="192.007" fill="white" transform="translate(50)"/>
</clipPath>
</defs>
</svg>
