<svg width="121" height="124" viewBox="0 0 121 124" fill="none" xmlns="http://www.w3.org/2000/svg">
<g id="&#208;&#160;&#208;&#181;&#209;&#129;&#209;&#131;&#209;&#128;&#209;&#129; 1 5" clip-path="url(#clip0_168_1294)">
<g id="&#208;&#161;&#208;&#187;&#208;&#190;&#208;&#185; 2">
<g id="&#208;&#161;&#208;&#187;&#208;&#190;&#208;&#185; 1">
<path id="Vector" d="M0.571045 60.1503L17.4579 68.5905L34.6382 60.7837L51.5224 69.2213L68.7028 61.4145L85.5896 69.8547L102.773 62.0479L119.659 70.4854L120.429 28.1427L103.542 19.7025L86.359 27.5093L69.4722 19.0718L52.2918 26.8759L35.4076 18.4384L18.2246 26.2452L1.34043 17.8076L0.571045 60.1503Z" fill="#FFC800"/>
<g id="Group">
<path id="Vector_2" d="M0.571045 60.1503L17.4579 68.5905L34.6382 60.7837L51.5224 69.2213L68.7028 61.4145L85.5896 69.8547L102.773 62.0479L119.659 70.4854L120.429 28.1427L103.542 19.7025L86.359 27.5093L69.4722 19.0718L52.2918 26.8759L35.4076 18.4384L18.2246 26.2452L1.34043 17.8076L0.571045 60.1503Z" stroke="white" stroke-width="4.27" stroke-miterlimit="10"/>
<path id="Vector_3" d="M109.544 44.4005C109.459 46.8353 107.006 50.5663 104.914 50.4915C103.481 50.4407 102.672 49.5133 102.728 47.9739C102.82 45.3306 105.258 41.9925 107.442 42.07C108.986 42.1261 109.597 42.9065 109.544 44.4005ZM97.9104 50.6064C98.0003 49.989 98.3308 48.3908 98.7327 46.6803C98.8205 46.6903 98.9092 46.6903 98.9971 46.6803C99.6607 46.6108 100.459 46.5253 101.189 46.4825C101.099 46.9904 101.044 47.5038 101.022 48.0193C100.93 50.6144 102.45 52.0497 104.838 52.1352C107.77 52.2421 111.297 48.3935 111.432 44.5743C111.513 42.2063 109.975 40.6562 107.497 40.5653C104.975 40.4744 102.738 42.233 101.681 44.8415C100.858 44.8816 99.8986 44.9618 99.1002 45.0473C99.473 43.4972 99.8431 42.0379 100.049 41.3992C100.203 40.9234 100.031 40.5706 99.3989 40.4343C98.8569 40.3221 98.2805 40.5092 98.1457 41.1479C97.6169 43.6362 96.6228 48.1797 96.0015 50.3418C95.8164 51.002 96.1442 51.451 96.7788 51.4991C97.3684 51.5419 97.8099 51.304 97.9025 50.6171L97.9104 50.6064ZM86.7477 48.7463C86.7715 48.0567 87.3108 47.6157 89.2621 47.1587L91.7183 46.5787L91.2662 48.4255C90.1266 49.0991 88.6222 49.7111 87.7629 49.679C87.1945 49.6603 86.7292 49.2754 86.7477 48.7463ZM92.5776 50.6171L94.0502 44.3204C94.7218 41.4018 93.5664 39.9559 91.1816 39.8704C89.596 39.8417 88.0322 40.2461 86.6551 41.041C86.0285 41.3858 85.9201 41.8669 86.248 42.2918C86.5758 42.7168 87.0226 42.8958 87.5832 42.4789C88.645 41.7303 89.923 41.3598 91.2159 41.4259C92.5564 41.474 92.8578 41.9604 92.3793 43.9275L92.0858 45.1382L88.9448 45.7021C86.1739 46.1992 84.7541 47.0678 84.6986 48.6768C84.6431 50.2857 85.9968 51.2559 87.6783 51.3147C88.7914 51.3548 89.6983 50.8363 90.8907 49.9115L90.8141 50.1788C90.6554 50.8149 90.8854 51.3761 91.4539 51.3975C92.0223 51.4189 92.4136 51.2479 92.5749 50.5957L92.5776 50.6171ZM84.0561 39.7982C82.7791 39.8437 80.6851 39.8624 79.3869 39.8838C78.8396 39.8838 78.6281 40.0628 78.377 40.7898C77.9698 41.9711 77.4278 43.8152 76.9307 45.6166C76.5156 47.0732 76.1217 48.5779 75.8361 49.6015C75.651 50.2643 75.7462 50.7962 76.5421 50.8256C77.0708 50.8443 77.5044 50.6759 77.6393 50.0585C77.8825 49.0082 78.2289 47.5275 78.5779 46.0656C78.9771 44.4005 79.5112 42.8317 79.8258 41.6477C80.9178 41.6477 83.1466 41.6744 83.9662 41.7038C84.6246 41.7279 84.9894 41.0972 85.0238 40.5012C85.0661 39.996 84.7092 39.7769 84.0482 39.7982H84.0561ZM72.0156 49.9249C72.5021 47.6879 73.6654 43.1284 74.5036 40.6294C74.768 39.8784 74.0039 39.3225 73.5042 39.2931C73.1916 39.2929 72.889 39.4046 72.6502 39.6085C70.7095 41.1239 67.1217 44.7453 64.6575 47.4874C65.3502 45.2798 66.3364 42.4629 66.9445 40.6909C67.1508 40.0548 67.008 39.5871 66.2122 39.5604C65.6675 39.539 65.3608 39.7822 65.1546 40.3969C64.3905 42.7382 63.1082 46.8113 62.4604 49.0643C62.2489 49.8661 63.0077 50.2804 63.518 50.2991C63.6852 50.3031 63.8511 50.2686 64.0032 50.1982C64.1553 50.1279 64.2895 50.0234 64.3958 49.8928C66.8356 47.1737 69.4433 44.6135 72.2033 42.2277C71.5001 44.7106 70.5958 47.7601 70.0565 49.5133C69.8529 50.1494 70.1305 50.6893 70.9025 50.716C71.4948 50.7374 71.8861 50.5663 72.0236 49.9276L72.0156 49.9249ZM56.3159 49.1766C56.8077 46.8701 57.6379 43.1497 58.238 41.1239L61.3553 41.1666C62.0162 41.1666 62.3388 40.421 62.3547 39.9132C62.3705 39.4054 62.1273 39.3092 61.4663 39.3065C59.2348 39.3065 55.9352 39.3386 53.7328 39.2129C53.1643 39.1702 52.8365 39.4348 52.818 39.9399C52.7968 40.5813 53.1273 40.894 53.7856 40.9181C54.5788 40.9689 55.4883 41.025 56.4428 41.0597C55.8664 43.2246 54.9463 46.6883 54.4175 48.7864C54.2589 49.4465 54.5815 49.965 55.3086 49.9917C55.5484 50.0152 55.7878 49.9431 55.976 49.7909C56.1641 49.6387 56.286 49.4183 56.3159 49.1766ZM49.1773 46.5707C48.2122 47.4794 46.8189 48.2117 45.7401 48.1743C44.5583 48.1316 44.2384 47.4741 44.2913 45.9801C44.3891 43.2005 46.5042 40.0094 48.392 40.0789C49.1429 40.1056 49.09 40.9074 49.9995 40.9421C50.234 40.9473 50.4611 40.8596 50.6325 40.6978C50.8039 40.5361 50.906 40.313 50.917 40.0762C50.917 39.1809 50.1767 38.4726 48.4502 38.4245C45.4942 38.3176 42.266 42.1341 42.1311 45.9079C42.0413 48.5057 43.4769 49.7084 45.7745 49.7913C47.5248 49.8527 50.835 48.2705 50.8747 47.1453C50.8509 46.9139 50.7518 46.6971 50.593 46.5287C50.4341 46.3604 50.2244 46.2501 49.9969 46.2153C49.8433 46.2057 49.6897 46.2334 49.5489 46.2962C49.4082 46.359 49.2843 46.4549 49.1878 46.5761L49.1773 46.5707ZM39.0298 41.5649C38.9399 44.1386 36.7402 47.7841 34.7387 47.712C33.4432 47.6665 32.8879 46.7498 32.9355 45.2772C33.0439 42.2223 34.707 39.6352 36.7745 39.7101C38.2287 39.7635 39.0668 40.5519 39.0298 41.5649ZM40.9916 41.474C41.0656 39.3599 39.1541 38.0717 36.8353 37.9996C33.6626 37.8846 31.1244 41.1506 30.9843 45.1489C30.8918 47.7681 32.3856 49.2728 34.6144 49.353C37.7501 49.4652 40.8673 44.9992 40.9916 41.4847V41.474ZM26.0375 35.343C25.818 38.347 25.0751 43.2673 24.5384 46.9075C22.5369 46.8353 20.2393 46.8193 17.6641 46.7979C20.1045 42.1235 23.8906 36.714 26.1247 34.1937C26.1247 34.4476 26.0798 34.8138 26.0375 35.343ZM26.7223 53.3592C27.3198 51.812 28.0202 50.3074 28.8189 48.8558C29.2366 48.0193 28.9934 47.1347 28.0416 47.0545C27.6318 47.0171 27.177 47.001 26.7196 46.985C27.1664 43.3422 27.9252 36.0271 27.9808 33.8703C28.0171 33.5591 27.939 33.2452 27.7613 32.9883C27.4969 32.6569 27.0739 32.4111 26.3733 32.2935C25.5801 32.1732 25.2972 32.4859 24.9402 32.8868C22.4047 35.7866 17.598 42.9974 15.4617 46.7845C15.0519 46.7685 14.6421 46.7845 14.2111 46.7605C13.9241 46.7465 13.6415 46.8361 13.4139 47.0134C13.1862 47.1906 13.0284 47.4439 12.9685 47.728L11.7152 51.6648C11.4879 52.3223 11.5169 52.7846 12.1911 53.0011C12.8654 53.2176 13.2831 53.0412 13.4655 52.4265C13.7809 51.0806 14.1845 49.7574 14.6738 48.4656C20.0225 48.4656 25.2046 48.6848 26.7487 48.8077C26.1591 49.9784 25.3818 51.5392 24.8371 52.651C24.5727 53.263 24.7499 53.7976 25.3818 53.9606C26.1036 54.145 26.4394 53.9606 26.7223 53.3646" fill="black"/>
<path id="Vector_4" d="M28.1511 79.5857L22.7296 108.926L99.0595 123.338L104.481 93.9977L28.1511 79.5857Z" fill="#FFC800"/>
<path id="Vector_5" d="M28.1511 79.5857L22.7296 108.926L99.0595 123.338L104.481 93.9977L28.1511 79.5857Z" stroke="white" stroke-width="4.27" stroke-miterlimit="10"/>
<path id="Vector_6" d="M36.2008 101.873L35.7751 101.793L34.0565 90.1589L35.9813 90.5224L37.3033 99.9033L41.9328 91.6449L43.6329 91.9682L36.9094 103.811C35.7777 105.796 34.7175 106.392 33.3295 106.131C32.9053 106.052 32.4947 105.912 32.1106 105.714L32.4517 103.859C32.7813 104.008 33.1262 104.12 33.4802 104.193C34.3527 104.359 34.9899 104.033 35.5795 102.974L36.2008 101.873Z" fill="black"/>
<path id="Vector_7" d="M53.389 97.4846L51.7551 97.1772C51.6467 96.1242 50.7636 95.1407 48.9525 94.7959C46.8691 94.403 45.3937 95.742 45.0024 97.8694C44.6111 99.9969 45.5021 101.804 47.5856 102.196C49.3967 102.539 50.5732 101.929 51.0491 100.999L52.6831 101.309C51.7419 103.519 49.7325 104.615 47.2921 104.156C44.1352 103.56 42.607 100.681 43.1887 97.5247C43.7704 94.3683 46.2213 92.2676 49.3782 92.8636C51.8185 93.3259 53.2991 95.0792 53.389 97.4846Z" fill="black"/>
<path id="Vector_8" d="M62.3467 97.3964L57.3787 96.4583L55.6972 105.553L53.9072 105.217L55.9246 94.2881L64.4751 95.8997L62.4577 106.828L60.6652 106.491L62.3467 97.3964Z" fill="black"/>
<path id="Vector_9" d="M69.451 108.338C66.4289 107.766 64.8584 104.864 65.4375 101.726C66.0165 98.5884 68.515 96.477 71.537 97.0462C74.604 97.6262 76.1005 100.438 75.4818 103.787L75.4316 104.054L67.1719 102.496C66.9313 104.556 67.9148 106.125 69.7947 106.478C71.4498 106.791 72.5523 106.344 73.2318 105.409L74.8658 105.716C74.0382 107.435 72.3805 108.878 69.4483 108.325L69.451 108.338ZM67.4574 101.181L73.8029 102.381C73.8743 100.732 73.1736 99.2645 71.1801 98.8904C69.369 98.5456 68.0444 99.4436 67.4469 101.181" fill="black"/>
<path id="Vector_10" d="M79.6327 104.265L77.0787 98.281L79.2493 98.6899L81.0102 103.073L84.2173 99.628L86.187 99.9995L81.7346 104.546L84.4156 110.973L82.2423 110.564L80.3757 105.762L76.8486 109.546L74.8789 109.175L79.6327 104.265Z" fill="black"/>
<path id="Vector_11" d="M91.5862 110.525C90.6212 111.594 89.471 112.024 88.0909 111.762C86.2111 111.407 85.1191 110.172 85.484 108.202C85.825 106.347 87.0016 105.749 89.1141 105.353L92.5512 104.69C92.6517 103.397 91.8083 102.819 90.7005 102.605C89.4922 102.378 88.5298 102.688 88.1544 103.717L86.4569 103.399C87.2105 101.085 89.1696 100.377 91.0283 100.727C93.4449 101.184 94.7616 102.72 94.2354 105.43L93.4184 109.608C93.2545 110.49 93.4184 110.805 93.9657 110.904L94.3914 110.987L94.0636 112.786C93.7674 112.754 93.3841 112.703 93.0906 112.649C92.0621 112.454 91.4778 111.735 91.5862 110.511V110.525ZM88.9687 110.017C90.0421 110.22 90.9992 110.051 91.5941 109.6L92.2948 106.056L90.1585 106.508C88.3077 106.884 87.5145 107.229 87.34 108.223C87.1655 109.218 87.7895 109.808 88.9766 110.03" fill="black"/>
<path id="Vector_12" d="M97.2046 76.8464C96.8564 80.5069 95.4422 83.9808 93.141 86.8289C90.8397 89.677 87.7546 91.7713 84.2759 92.847C80.7971 93.9228 77.0809 93.9316 73.5972 92.8724C70.1135 91.8133 67.0187 89.7336 64.7042 86.8965C62.3897 84.0594 60.9594 80.5923 60.5942 76.9335C60.2289 73.2747 60.9452 69.5886 62.6524 66.3413C64.3595 63.094 66.9809 60.4313 70.1851 58.69C73.3893 56.9486 77.0323 56.2068 80.6535 56.5584C83.0581 56.7918 85.3937 57.5018 87.5269 58.6477C89.6601 59.7936 91.5491 61.3531 93.086 63.2371C94.623 65.121 95.7777 67.2925 96.4844 69.6276C97.1911 71.9628 97.4358 74.4157 97.2046 76.8464Z" fill="#FA3200"/>
<path id="Vector_13" d="M93.9841 76.5337C93.6974 79.5502 92.5323 82.4131 90.6361 84.7602C88.7399 87.1074 86.1977 88.8335 83.3311 89.7202C80.4644 90.6069 77.402 90.6144 74.5312 89.7418C71.6603 88.8692 69.1098 87.1556 67.2024 84.8178C65.2949 82.48 64.116 79.6229 63.8149 76.6078C63.5137 73.5927 64.1037 70.5551 65.5104 67.879C66.917 65.2029 69.0771 63.0085 71.7175 61.5734C74.3578 60.1383 77.3599 59.5268 80.344 59.8163C82.3256 60.0086 84.2502 60.5935 86.0082 61.5377C87.7661 62.4819 89.3228 63.7668 90.5894 65.3192C91.856 66.8716 92.8077 68.661 93.3902 70.5851C93.9727 72.5093 94.1745 74.5307 93.9841 76.5337Z" fill="white"/>
<path id="Vector_14" d="M93.9841 76.5337C93.6974 79.5502 92.5323 82.4131 90.6361 84.7602C88.7399 87.1074 86.1977 88.8335 83.3311 89.7202C80.4644 90.6069 77.402 90.6144 74.5312 89.7418C71.6603 88.8692 69.1098 87.1556 67.2024 84.8178C65.2949 82.48 64.116 79.6229 63.8149 76.6078C63.5137 73.5927 64.1037 70.5551 65.5104 67.879C66.917 65.2029 69.0771 63.0085 71.7175 61.5734C74.3578 60.1383 77.3599 59.5268 80.344 59.8163C82.3256 60.0086 84.2502 60.5935 86.0082 61.5377C87.7661 62.4819 89.3228 63.7668 90.5894 65.3192C91.856 66.8716 92.8077 68.661 93.3902 70.5851C93.9727 72.5093 94.1745 74.5307 93.9841 76.5337Z" stroke="black" stroke-width="4.2" stroke-linecap="round" stroke-linejoin="round"/>
<path id="Vector_15" d="M88.4423 75.994C88.261 77.903 87.5238 79.7149 86.3238 81.2004C85.1237 82.6859 83.5149 83.7783 81.7007 84.3394C79.8865 84.9006 77.9484 84.9053 76.1315 84.353C74.3147 83.8007 72.7006 82.7161 71.4936 81.2365C70.2865 79.7569 69.5406 77.9487 69.3502 76.0405C69.1598 74.1324 69.5335 72.21 70.4239 70.5165C71.3144 68.823 72.6817 67.4345 74.3528 66.5266C76.024 65.6186 77.924 65.232 79.8125 65.4157C82.3445 65.6619 84.676 66.9146 86.2944 68.8984C87.9128 70.8821 88.6854 73.4345 88.4423 75.994Z" fill="#FA3200"/>
<path id="Vector_16" d="M88.4423 75.994C88.261 77.903 87.5238 79.7149 86.3238 81.2004C85.1237 82.6859 83.5149 83.7783 81.7007 84.3394C79.8865 84.9006 77.9484 84.9053 76.1315 84.353C74.3147 83.8007 72.7006 82.7161 71.4936 81.2365C70.2865 79.7569 69.5406 77.9487 69.3502 76.0405C69.1598 74.1324 69.5335 72.21 70.4239 70.5165C71.3144 68.823 72.6817 67.4345 74.3528 66.5266C76.024 65.6186 77.924 65.232 79.8125 65.4157C82.3445 65.6619 84.676 66.9146 86.2944 68.8984C87.9128 70.8821 88.6854 73.4345 88.4423 75.994Z" stroke="black" stroke-width="4.11" stroke-linecap="round" stroke-linejoin="round"/>
<path id="Vector_17" d="M89.4709 60.701L97.527 54.308C97.629 54.2262 97.7519 54.1754 97.8813 54.1617C98.0108 54.1479 98.1414 54.1718 98.258 54.2304C98.3745 54.289 98.4721 54.38 98.5393 54.4927C98.6065 54.6054 98.6406 54.7351 98.6375 54.8666L98.5767 57.7504C98.5705 58.0071 98.6532 58.258 98.8106 58.4595C98.968 58.6611 99.1902 58.8007 99.4386 58.8542L102.347 59.493C102.473 59.5206 102.588 59.5835 102.681 59.6744C102.773 59.7652 102.838 59.8805 102.869 60.007C102.899 60.1335 102.894 60.2661 102.854 60.3898C102.813 60.5134 102.739 60.6231 102.64 60.7064L94.7588 67.2837L89.4709 60.701Z" fill="#FA3200"/>
<path id="Vector_18" d="M83.2603 75.4914C83.1778 76.3647 82.8408 77.1936 82.2921 77.8733C81.7434 78.5529 81.0075 79.0527 80.1777 79.3095C79.3479 79.5663 78.4614 79.5684 77.6303 79.3157C76.7993 79.063 76.0611 78.5668 75.5091 77.8898C74.9571 77.2128 74.6162 76.3856 74.5295 75.5127C74.4428 74.6399 74.6142 73.7606 75.022 72.9862C75.4298 72.2119 76.0557 71.5772 76.8204 71.1625C77.5852 70.7478 78.4544 70.5717 79.3182 70.6566C79.8915 70.7119 80.4484 70.8808 80.9571 71.1537C81.4658 71.4266 81.9163 71.7982 82.2829 72.2472C82.6495 72.6962 82.925 73.2138 83.0936 73.7705C83.2622 74.3271 83.3206 74.9119 83.2656 75.4914" fill="white"/>
<path id="Vector_19" d="M83.2603 75.4914C83.1778 76.3647 82.8408 77.1936 82.2921 77.8733C81.7434 78.5529 81.0075 79.0527 80.1777 79.3095C79.3479 79.5663 78.4614 79.5684 77.6303 79.3157C76.7993 79.063 76.0611 78.5668 75.5091 77.8898C74.9571 77.2128 74.6162 76.3856 74.5295 75.5127C74.4428 74.6399 74.6142 73.7606 75.022 72.9862C75.4298 72.2119 76.0557 71.5772 76.8204 71.1625C77.5852 70.7478 78.4544 70.5717 79.3182 70.6566C80.4751 70.7695 81.5403 71.3423 82.2795 72.249C83.0187 73.1556 83.3715 74.3219 83.2603 75.4914Z" stroke="black" stroke-width="4.2" stroke-linecap="round" stroke-linejoin="round"/>
<path id="Vector_20" d="M95.3537 63.8868L92.7441 63.518L92.8843 60.8587L96.829 57.5687L96.6915 60.2279L99.3011 60.5968L95.3537 63.8868Z" fill="white"/>
<path id="Vector_21" d="M95.3537 63.8868L92.7441 63.518L92.8843 60.8587L96.829 57.5687L96.6915 60.2279L99.3011 60.5968L95.3537 63.8868Z" stroke="black" stroke-width="4.11" stroke-linecap="round" stroke-linejoin="round"/>
<path id="Vector_22" d="M92.7442 63.5232L79.157 74.8525" stroke="black" stroke-width="4.11" stroke-linecap="round" stroke-linejoin="round"/>
<path id="Vector_23" d="M29.1282 2.45873L44.7989 0.0186046C45.1049 -0.0292538 45.418 0.0157129 45.6988 0.147816C45.9795 0.279918 46.2151 0.493221 46.3759 0.760737C46.5367 1.02825 46.6153 1.33796 46.6019 1.65068C46.5885 1.96339 46.4837 2.26507 46.3006 2.51753L42.4563 7.82273L47.6411 11.6125C47.8928 11.7964 48.0847 12.0518 48.1925 12.3463C48.3002 12.6408 48.3188 12.9609 48.2459 13.2661C48.1731 13.5713 48.012 13.8477 47.7833 14.0601C47.5546 14.2725 47.2686 14.4113 46.9616 14.4589L34.8391 16.3458L35.7909 22.5891C35.8522 22.9927 35.8343 23.4046 35.7381 23.8012C35.6419 24.1978 35.4694 24.5714 35.2304 24.9006C34.9914 25.2298 34.6905 25.5082 34.3451 25.7199C33.9997 25.9316 33.6164 26.0724 33.2171 26.1343C32.8178 26.1963 32.4103 26.1781 32.018 26.0809C31.6256 25.9837 31.2561 25.8093 30.9304 25.5677C30.6047 25.3261 30.3293 25.022 30.1199 24.6728C29.9105 24.3236 29.7712 23.9362 29.7099 23.5325L26.9681 5.43873C26.864 4.75406 27.0331 4.05563 27.4381 3.49688C27.8431 2.93812 28.451 2.56473 29.1282 2.45873Z" fill="#E6008C"/>
<path id="Vector_24" d="M32.6129 22.7763L29.9055 5.00586" stroke="black" stroke-width="4.57" stroke-linecap="round" stroke-linejoin="round"/>
<path id="Vector_25" d="M31.4021 14.3012L44.2543 12.3021L38.8659 8.36527L42.8239 2.90506L29.9717 4.9042L31.4021 14.3012Z" stroke="black" stroke-width="4.57" stroke-linecap="round" stroke-linejoin="round"/>
</g>
</g>
</g>
</g>
<defs>
<clipPath id="clip0_168_1294">
<rect width="121" height="124" fill="white"/>
</clipPath>
</defs>
</svg>
