<svg width="120" height="117" viewBox="0 0 120 117" fill="none" xmlns="http://www.w3.org/2000/svg">
<g id="&#208;&#160;&#208;&#181;&#209;&#129;&#209;&#131;&#209;&#128;&#209;&#129; 1 6" clip-path="url(#clip0_168_1325)">
<g id="&#208;&#161;&#208;&#187;&#208;&#190;&#208;&#185; 2">
<g id="&#208;&#161;&#208;&#187;&#208;&#190;&#208;&#185; 1">
<path id="Vector" d="M114.797 72.0662L0.21582 92.2977L4.58338 117L119.164 96.7689L114.797 72.0662Z" fill="#FFC800"/>
<g id="Group">
<path id="Vector_2" d="M102.586 95.9668C104.97 92.3863 107.638 85.6114 108.547 80.4244C108.667 79.761 108.262 79.372 107.58 79.4999C107.257 79.5585 107.046 79.7317 106.897 80.467C106.433 82.8301 105.671 86.0883 104.407 89.0215C103.645 86.8422 102.576 83.616 102.192 82.3852C101.808 81.1543 101.547 80.8266 100.883 80.9492C100.179 81.0824 99.8165 81.5246 100.083 82.1827C100.979 84.6017 102.594 88.9842 103.333 91.278C102.572 92.7276 101.71 94.1217 100.752 95.45C100.187 96.2199 100.752 96.9552 101.584 96.8193C102.013 96.7607 102.253 96.497 102.594 95.9668H102.586ZM98.121 91.1128C98.0463 90.2416 97.9744 89.1494 97.8731 87.7773C97.7451 86.0323 97.6198 84.1781 97.6065 82.8327C97.6065 82.3239 97.5478 81.8044 97.1639 81.6552C96.9 81.5328 96.6089 81.4805 96.3188 81.5033C96.0203 81.5593 95.8443 81.6818 95.4124 82.3345C94.8473 83.2137 93.5143 85.5315 92.6639 87.026C92.312 85.8538 91.8161 84.266 91.5842 83.624C91.4323 83.1684 91.3176 82.9446 91.0084 82.7821C90.6603 82.6397 90.2745 82.6181 89.9127 82.7208C89.5714 82.7848 89.3795 82.9872 89.1876 83.4535C87.8872 86.5974 86.7701 89.8139 85.8419 93.0869C85.6712 93.713 85.9032 94.355 86.7563 94.1952C87.3774 94.0806 87.4947 93.8808 87.644 93.2574C88.0546 91.0808 89.3635 87.3218 90.2673 85.0546C90.5898 86.0776 91.091 87.6868 91.3336 88.4354C91.3816 88.6753 91.5121 88.8909 91.7025 89.0446C91.8929 89.1984 92.1312 89.2807 92.376 89.2772C92.6171 89.3129 92.8632 89.2649 93.0732 89.1413C93.2833 89.0177 93.4446 88.8259 93.5303 88.5979C94.2154 87.2978 95.2152 85.4329 96.0123 84.1355C96.0709 85.2731 96.1562 86.5598 96.1829 87.8812C96.2202 89.2666 96.1829 90.3349 96.1642 91.3446C96.1642 91.9866 96.4548 92.4102 97.1799 92.2797C97.3167 92.266 97.4494 92.2256 97.5705 92.1606C97.6916 92.0956 97.7987 92.0073 97.8856 91.9009C97.9725 91.7945 98.0376 91.672 98.0771 91.5404C98.1165 91.4088 98.1297 91.2708 98.1157 91.1341L98.121 91.1128ZM80.7527 85.9125C81.5231 85.7686 81.9817 86.1043 82.0856 86.7117C82.2749 87.7161 80.7153 88.9575 77.4763 89.9592C77.9482 87.9931 79.2704 86.2002 80.7447 85.9231L80.7527 85.9125ZM82.8774 91.9786C82.1843 92.9937 81.2459 93.8968 79.6783 94.1872C78.4387 94.419 77.5989 93.7156 77.3723 92.4981C77.2991 92.1029 77.2687 91.701 77.2817 91.2993C77.4322 91.2742 77.5809 91.2395 77.7269 91.1954C81.9923 89.89 84.221 88.6778 83.8025 86.4346C83.5359 85.0892 82.2429 84.25 80.4914 84.5697C77.327 85.1612 74.9357 89.2772 75.5995 92.8285C75.9914 94.9225 77.7135 96.1027 79.8516 95.7031C81.6671 95.3647 83.0507 94.3071 84.1544 92.9324C84.5996 92.3623 84.4556 91.9467 84.101 91.7042C84.0051 91.6335 83.8952 91.5841 83.7786 91.5591C83.6621 91.5341 83.5415 91.5343 83.425 91.5595C83.3085 91.5847 83.1987 91.6344 83.1029 91.7053C83.0071 91.7762 82.9275 91.8666 82.8694 91.9706L82.8774 91.9786ZM59.0923 89.6955C58.9057 91.8961 58.7644 95.6338 58.695 97.7465C58.5545 97.8252 58.4437 97.9478 58.3796 98.0956C58.3156 98.2433 58.3018 98.408 58.3405 98.5643C58.4445 99.1185 58.8737 99.3263 59.6281 99.1851C62.1074 98.7215 68.6575 97.5653 71.59 96.9286C71.967 96.8698 72.3144 96.6892 72.579 96.4144C72.8201 96.1137 72.9382 95.733 72.9096 95.3487C72.9523 93.0869 72.9656 89.7248 73.0509 87.3564C73.0509 86.7117 72.7843 86.368 72.0938 86.4959C71.5367 86.5998 71.2328 86.8555 71.2354 87.4736C71.2354 89.9486 71.2941 92.9857 71.1634 95.3541C69.9745 95.6205 68.2949 95.9775 66.5514 96.3478C66.818 93.6837 67.0846 90.3695 67.0606 88.3181C67.0446 87.6361 66.818 87.2525 66.0503 87.4043C65.6637 87.4763 65.3465 87.6708 65.3305 88.2888C65.2718 90.4654 65.0639 93.9954 64.784 96.7234C63.0831 97.0831 61.4836 97.4054 60.4092 97.5626C60.4759 95.3168 60.5798 92.4475 60.8891 89.6049C60.9424 88.9549 60.4572 88.7124 59.9427 88.8057C59.5161 88.8856 59.1429 89.0721 59.0923 89.6955ZM55.1387 99.2863C55.1841 97.0458 55.2614 93.5611 55.36 90.5374C55.3867 89.85 54.9335 89.557 54.355 89.6662C53.9711 89.7381 53.6485 89.9086 53.6538 90.5267C53.6538 91.4538 53.6538 92.5568 53.6245 93.6704C52.6408 94.5602 51.4171 95.2315 50.7107 95.3621C49.7723 95.5379 49.2311 95.0211 49.4097 93.1295L49.5564 91.555C49.6443 90.7212 49.1671 90.4148 48.5673 90.5267C48.1621 90.6013 47.9088 90.7931 47.8715 91.4085L47.7409 93.3107C47.5089 96.6888 48.8446 97.3255 50.3401 97.0405C51.3025 96.8593 52.5422 96.164 53.6032 95.3248C53.5525 96.838 53.4939 98.2846 53.4032 99.3396C53.3473 99.9923 53.7525 100.381 54.3923 100.261C54.9255 100.16 55.1387 99.8778 55.1387 99.281V99.2863ZM39.9245 107.67C42.3051 104.087 44.9737 97.3122 45.8827 92.1278C46.0027 91.4645 45.5975 91.0755 44.915 91.2034C44.5951 91.262 44.3818 91.4352 44.2326 92.1705C43.7687 94.5335 43.0062 97.7917 41.7426 100.722C40.9802 98.5457 39.9138 95.3194 39.5273 94.0886C39.1407 92.8578 38.8821 92.5274 38.221 92.6527C37.5145 92.7832 37.1546 93.2281 37.4212 93.8862C38.3169 96.3052 39.9325 100.688 40.6709 102.981C39.911 104.432 39.0486 105.826 38.0903 107.153C37.5252 107.921 38.0903 108.659 38.9221 108.523C39.3513 108.464 39.5912 108.2 39.9351 107.67H39.9245ZM36.1016 102.664C35.875 100.517 34.8433 96.5369 34.2994 95.045C33.9395 94.0726 33.7316 93.6704 33.4357 93.5025C33.147 93.3647 32.8211 93.3254 32.5079 93.3906C32.3174 93.4263 32.1378 93.5058 31.9832 93.6227C31.8287 93.7397 31.7035 93.891 31.6175 94.0646C30.6178 96.1746 28.3491 101.061 27.1175 103.701C26.7363 104.5 27.3841 105.067 27.9173 104.966C28.3651 104.884 28.5411 104.631 28.7544 104.127C29.6768 101.964 31.5962 97.5626 32.7532 95.1596C33.3877 97.496 34.0302 100.69 34.1821 102.806C34.2461 103.605 34.5127 103.98 35.2192 103.85C35.9256 103.719 36.1949 103.402 36.1256 102.664H36.1016ZM12.6897 107.169C12.655 106.16 12.623 105.038 12.6124 103.914C14.5718 104.697 16.2167 105.694 17.9895 106.778C18.5227 107.098 19.2878 106.975 19.557 106.527C19.8263 106.08 19.8423 105.68 19.2691 105.345C17.4119 104.254 15.4817 103.292 13.4921 102.467C15.3817 101.023 17.1793 99.4623 18.8746 97.7944C19.3411 97.3309 19.3864 96.8593 18.9545 96.5636C18.5227 96.2679 18.0668 96.3105 17.6402 96.7421C16.3526 98.0209 14.3052 100.205 12.6257 101.503C12.6257 100.352 12.679 99.305 12.7403 98.4524C12.7883 98.0022 12.4737 97.5973 11.7433 97.7331C11.3167 97.8131 10.9942 97.9836 11.0155 98.5777C11.0635 100.845 10.9968 104.503 10.8795 107.308C10.8475 107.955 11.1834 108.336 11.8872 108.203C12.4204 108.105 12.719 107.806 12.687 107.169" fill="black"/>
<path id="Vector_3" d="M97.3052 21.5127C93.0585 21.5248 88.9181 22.8408 85.4446 25.2825C83.4404 26.6466 81.0716 27.3762 78.6466 27.3762C76.2216 27.3762 73.8528 26.6466 71.8486 25.2825C68.4696 22.8919 64.446 21.579 60.3064 21.5162C56.1669 21.4534 52.1052 22.6438 48.6553 24.9308C44.5151 27.6296 38.9674 27.5603 34.9872 24.6644C31.4301 22.0279 27.1235 20.5952 22.6948 20.575C10.1651 20.575 0 32.0307 0 46.1745C0 60.3183 10.1597 71.7766 22.6948 71.7766C26.7262 71.7679 30.6668 70.5797 34.0302 68.3586C38.173 65.6572 43.7207 65.7291 47.7009 68.625C51.1786 71.2203 55.3893 72.6484 59.7294 72.7044C64.0694 72.7604 68.3157 71.4414 71.8592 68.9367C73.8635 67.5726 76.2323 66.843 78.6573 66.843C81.0822 66.843 83.451 67.5726 85.4553 68.9367C88.9248 71.3792 93.0613 72.6979 97.3052 72.7144C109.835 72.7144 120 61.2587 120 47.1149C120 32.9711 109.835 21.5127 97.3052 21.5127Z" fill="#FFC800"/>
<path id="Vector_4" d="M19.0718 54.6117V35.7791H21.3138L28.0478 47.4666L34.7819 35.7791H36.8613V54.6117H34.534V40.5425L28.3811 51.1484H27.496L21.3431 40.5425V54.6117H19.0718Z" fill="black"/>
<path id="Vector_5" d="M46.2561 54.8329C42.5238 54.8329 39.9939 51.7585 39.9939 47.9062C39.9939 44.0538 42.5158 41.0274 46.2561 41.0274C50.0523 41.0274 52.4623 44.0192 52.4623 48.1166V48.4496H42.2386C42.4039 50.9406 43.9288 52.5737 46.2561 52.5737C48.3062 52.5737 49.5245 51.7984 50.135 50.5543H52.1584C51.5479 52.7682 49.8844 54.8462 46.2561 54.8462V54.8329ZM42.2919 46.8538H50.1616C49.895 44.8877 48.722 43.3079 46.2561 43.3079C44.0114 43.3079 42.6251 44.6666 42.2919 46.8538Z" fill="black"/>
<path id="Vector_6" d="M63.7976 48.796H57.6181V54.6117H55.4V41.2352H57.6181V46.5528H63.7976V41.2352H66.013V54.6117H63.7976V48.796Z" fill="black"/>
<path id="Vector_7" d="M73.2747 49.1556C70.9741 49.0997 69.0626 48.0207 69.0626 45.2234C69.0626 42.6472 71.1687 41.2272 73.9119 41.2272H78.9104V54.6144H76.6924V49.1556H75.9166L71.4459 54.6144H68.6467L73.2747 49.1556ZM76.6817 47.6317V43.4784H74.1331C72.387 43.4784 71.3073 43.9766 71.3073 45.5271C71.3073 46.9684 72.4696 47.6317 74.0772 47.6317H76.6817Z" fill="black"/>
<path id="Vector_8" d="M84.9676 46.9124H87.2682C87.6841 43.5343 90.1501 41.0141 93.725 41.0141C97.6306 41.0141 100.235 44.0325 100.235 47.9088C100.235 51.7851 97.6306 54.8355 93.725 54.8355C90.0381 54.8355 87.4895 52.0941 87.2416 48.5215H84.9676V54.6144H82.7522V41.2352H84.9676V46.9124ZM89.4569 47.9088C89.4569 50.5942 91.1471 52.4378 93.7224 52.4378C96.2976 52.4378 97.9878 50.5729 97.9878 47.9088C97.9878 45.2447 96.295 43.3958 93.7224 43.3958C91.1498 43.3958 89.4569 45.2234 89.4569 47.9088Z" fill="black"/>
<path id="Vector_9" d="M87.1347 1.96878L94.9058 4.96325L99.4965 0L103.735 4.96858L110.819 1.38268L110.28 9.66275L117.206 14.6074L110.603 17.4233L112.391 23.977L105.708 24.2701L103.727 30.4935L97.3398 28.6073L92.7944 34.0767L88.7529 29.5078L81.2697 31.9667L82.3761 24.8855L76.5938 21.915L80.8752 17.3514L76.823 11.1467L85.5832 9.47626L87.1347 1.96878Z" fill="#FA3200"/>
<path id="Vector_10" d="M86.5803 18.0627C87.0602 17.1262 87.8119 16.3564 88.737 15.8542C89.636 15.3766 90.6568 15.1773 91.6695 15.2814C92.2353 15.3371 92.7882 15.4846 93.3064 15.7183C93.4125 15.753 93.5279 15.7445 93.6278 15.6946C93.7276 15.6447 93.8037 15.5575 93.8396 15.4519C93.8729 15.3459 93.8637 15.2311 93.8139 15.1317C93.7642 15.0323 93.6778 14.9561 93.573 14.9191C92.19 14.3083 90.6262 14.2468 89.1995 14.7472C87.7728 15.2475 86.5903 16.272 85.8925 17.6125C85.8362 17.7077 85.8183 17.8208 85.8426 17.9288C85.8669 18.0367 85.9315 18.1313 86.0232 18.1933C86.1182 18.2524 86.2326 18.2719 86.3418 18.2474C86.451 18.223 86.5463 18.1567 86.607 18.0627" fill="black"/>
<path id="Vector_11" d="M87.5721 22.589C90.4112 22.8981 93.3224 22.7889 96.0763 21.9923C98.7702 21.1976 101.248 19.801 103.322 17.9082C104.621 16.7182 105.789 15.3928 106.806 13.9546C106.842 13.8925 106.862 13.8224 106.863 13.7507C106.864 13.679 106.847 13.6082 106.814 13.5448C106.78 13.4815 106.731 13.4277 106.671 13.3884C106.611 13.3492 106.542 13.3259 106.471 13.3206L105.809 13.3632C105.699 13.3608 105.591 13.4009 105.509 13.4752C105.426 13.5495 105.376 13.6524 105.367 13.7628C105.363 13.8741 105.402 13.9828 105.477 14.0654C105.551 14.1481 105.656 14.1982 105.767 14.2051L106.431 14.1624L106.103 13.5044C104.418 15.8462 102.37 17.9508 99.8725 19.4374C97.5903 20.7846 95.0352 21.6039 92.3947 21.8351C90.8054 21.9692 89.2067 21.9434 87.6227 21.7578C87.5674 21.755 87.5121 21.7632 87.4599 21.7817C87.4077 21.8003 87.3597 21.829 87.3186 21.8661C87.2775 21.9032 87.2442 21.948 87.2204 21.998C87.1966 22.048 87.183 22.1022 87.1802 22.1575C87.1774 22.2127 87.1855 22.268 87.2041 22.3202C87.2226 22.3723 87.2513 22.4203 87.2885 22.4613C87.3256 22.5024 87.3705 22.5358 87.4205 22.5595C87.4705 22.5832 87.5247 22.5969 87.5801 22.5997" fill="black"/>
<path id="Vector_12" d="M97.3959 13.88C97.9258 12.9899 98.6631 12.2409 99.545 11.6968C100.427 11.1527 101.427 10.8296 102.461 10.755C103.077 10.7224 103.694 10.769 104.298 10.8936C104.404 10.9255 104.518 10.9157 104.617 10.8661C104.717 10.8166 104.793 10.7311 104.831 10.6272C104.865 10.5211 104.856 10.4061 104.806 10.3065C104.757 10.2069 104.67 10.1308 104.565 10.0943C103.389 9.83257 102.169 9.85265 101.003 10.1529C99.875 10.4605 98.8398 11.0395 97.9877 11.8393C97.4884 12.3139 97.0529 12.8512 96.6921 13.4378C96.6434 13.532 96.6318 13.6411 96.6596 13.7435C96.6875 13.8458 96.7528 13.934 96.8426 13.9906C96.9323 14.0472 97.0401 14.068 97.1445 14.049C97.249 14.0301 97.3425 13.9726 97.4066 13.888" fill="black"/>
<path id="Vector_13" d="M94.6046 13.0329C94.8169 14.8577 94.8375 16.6998 94.6659 18.5289C94.6644 18.6021 94.6819 18.6744 94.7167 18.7388C94.7515 18.8032 94.8024 18.8575 94.8644 18.8964C94.9264 18.9353 94.9974 18.9574 95.0706 18.9608C95.1437 18.9641 95.2165 18.9484 95.2818 18.9152L98.9687 16.8212C99.0663 16.7676 99.1394 16.6783 99.1727 16.572C99.206 16.4658 99.1969 16.3508 99.1473 16.2511C99.0957 16.1522 99.0068 16.0779 98.9004 16.0445C98.7939 16.011 98.6785 16.0211 98.5795 16.0726L94.9059 18.1746L95.5217 18.5716C95.6929 16.6699 95.6652 14.7556 95.4391 12.8597C95.4161 12.7502 95.3505 12.6543 95.2568 12.5931C95.163 12.5319 95.0488 12.5104 94.9392 12.5333C94.8296 12.5563 94.7336 12.6218 94.6724 12.7155C94.6111 12.8092 94.5896 12.9233 94.6126 13.0329" fill="black"/>
<path id="Vector_14" d="M26.5364 60.3342C28.2532 59.21 30.5005 59.5989 31.5456 61.1947L38.4582 71.3983L39.0607 71.004C39.6147 70.6307 40.2582 70.4118 40.925 70.3696C41.5917 70.3275 42.2577 70.4637 42.8543 70.7642C43.4229 71.061 43.8911 71.5189 44.2003 72.0805C44.5095 72.6421 44.6459 73.2824 44.5925 73.9212L43.7421 85.5767C43.6875 86.158 43.5027 86.7195 43.2013 87.2196C42.8999 87.7197 42.4896 88.1455 42.001 88.4654C41.5123 88.7853 40.9578 88.9912 40.3786 89.0676C39.7995 89.144 39.2105 89.0891 38.6555 88.9069L27.6294 85.0039C27.0223 84.7968 26.4902 84.4149 26.0998 83.9062C25.7094 83.3976 25.4782 82.7849 25.4353 82.1453C25.4007 81.4773 25.5452 80.8122 25.8541 80.2187C26.163 79.6253 26.6249 79.1251 27.1922 78.7699L27.7947 78.3783L20.874 68.1641C19.829 66.5656 20.3781 64.3544 22.095 63.2328L26.5364 60.3342Z" fill="#1EBEAA"/>
<path id="Vector_15" d="M40.7589 85.5341L41.7107 74.0331C41.7169 73.9118 41.6882 73.7911 41.6278 73.6856C41.5674 73.5801 41.478 73.4942 41.3701 73.438C41.2622 73.3819 41.1405 73.3579 41.0194 73.369C40.8983 73.38 40.7829 73.4256 40.6869 73.5003L37.5519 75.5464L29.1383 62.985C29.0347 62.842 28.8785 62.7459 28.704 62.7179C28.5295 62.69 28.3511 62.7324 28.2079 62.8358L23.7665 65.7344C23.614 65.8244 23.5034 65.971 23.459 66.1423C23.4145 66.3136 23.4398 66.4955 23.5292 66.6482L31.9455 79.2122L28.8104 81.2556C28.7033 81.3131 28.615 81.4002 28.5561 81.5065C28.4971 81.6128 28.4699 81.7337 28.4778 81.855C28.4857 81.9762 28.5282 82.0927 28.6004 82.1904C28.6726 82.2882 28.7714 82.3632 28.885 82.4065L39.8152 86.1522C39.9182 86.1833 40.0267 86.1915 40.1332 86.1761C40.2397 86.1608 40.3415 86.1223 40.4315 86.0634C40.5215 86.0044 40.5974 85.9265 40.654 85.8351C40.7106 85.7436 40.7464 85.6409 40.7589 85.5341V85.5341Z" stroke="black" stroke-width="4.61" stroke-miterlimit="10"/>
</g>
</g>
</g>
</g>
<defs>
<clipPath id="clip0_168_1325">
<rect width="120" height="117" fill="white"/>
</clipPath>
</defs>
</svg>
