<svg width="120" height="119" viewBox="0 0 120 119" fill="none" xmlns="http://www.w3.org/2000/svg">
<g id="&#208;&#160;&#208;&#181;&#209;&#129;&#209;&#131;&#209;&#128;&#209;&#129; 1 8" clip-path="url(#clip0_168_1258)">
<g id="&#208;&#161;&#208;&#187;&#208;&#190;&#208;&#185; 2">
<g id="&#208;&#161;&#208;&#187;&#208;&#190;&#208;&#185; 1">
<g id="Group">
<path id="Vector" d="M88.8803 21.9453L25.9316 21.9971C19.6591 21.9988 13.6333 24.4465 9.12883 28.8225C4.62437 33.1984 1.9946 39.1594 1.79583 45.4444C1.59707 51.7294 3.84491 57.8454 8.06382 62.4987C12.2827 67.1519 18.1418 69.9774 24.4016 70.3774V82.2585C24.3981 82.6457 24.5121 83.0247 24.7286 83.3452C24.9451 83.6658 25.2538 83.9127 25.6137 84.0532C25.9735 84.1936 26.3675 84.221 26.7432 84.1316C27.1189 84.0422 27.4586 83.8402 27.7171 83.5527L39.7834 70.4155L88.9102 70.3746C92.0822 70.3719 95.2226 69.743 98.1521 68.5236C101.082 67.3042 103.743 65.5183 105.984 63.2679C108.225 61.0174 110.002 58.3465 111.213 55.4076C112.425 52.4688 113.047 49.3195 113.044 46.1395C113.041 42.9596 112.414 39.8114 111.198 36.8745C109.981 33.9377 108.2 31.2698 105.955 29.0232C103.71 26.7765 101.046 24.9952 98.1144 23.7807C95.1829 22.5663 92.0414 21.9426 88.8694 21.9453" fill="#FFC800"/>
<path id="Vector_2" d="M94.976 48.6911C95.0222 48.5276 95.0901 48.3669 95.1363 48.1462C96.4951 46.9365 98.2725 45.8195 99.1965 45.8141C100.012 45.8141 100.145 46.359 100.148 46.9692C100.148 48.5222 97.7344 50.9878 96.0957 50.9932C94.7531 50.9932 94.4977 50.2331 94.976 48.6802V48.6911ZM101.998 46.9638C101.998 45.4354 100.949 44.4655 99.2155 44.4709C98.0653 44.5042 96.9596 44.9245 96.0766 45.6642C96.5199 44.5417 97.0487 43.4551 97.6583 42.414C97.8177 42.1797 97.9116 41.9069 97.9301 41.6239C97.9301 41.139 97.3729 40.8856 97.0278 40.8856C96.8335 40.8801 96.6419 40.9326 96.4774 41.0364C96.3129 41.1402 96.1829 41.2906 96.1038 41.4686C94.9731 43.644 94.0074 45.9017 93.215 48.2225C92.3997 50.8216 93.5302 52.4617 96.0957 52.4535C98.9872 52.4535 102.004 49.4212 101.996 46.9638H101.998ZM89.3342 49.0698C88.3912 50.0233 87.0079 50.8161 85.8964 50.8216C84.6952 50.8216 84.3473 50.1786 84.3419 48.672C84.3419 45.8686 86.3529 42.5693 88.2716 42.5638C89.0352 42.5638 89.0135 43.3812 89.9402 43.3675C90.1781 43.3633 90.405 43.2661 90.5725 43.0966C90.74 42.9272 90.8349 42.6989 90.837 42.4603C90.8126 41.5585 90.0217 40.8883 88.2661 40.8938C85.2604 40.8938 82.1324 44.8796 82.146 48.6802C82.146 51.2983 83.6597 52.4508 85.9969 52.4426C87.7742 52.4426 91.0762 50.7099 91.0707 49.5738C91.0373 49.3422 90.9282 49.1284 90.7605 48.9657C90.5928 48.803 90.376 48.7006 90.144 48.6747C89.9864 48.6698 89.83 48.7032 89.688 48.772C89.5461 48.8408 89.4228 48.9429 89.3287 49.0698H89.3342ZM72.3245 57.2893C75.5014 53.9873 79.5914 47.3915 81.54 42.1225C81.79 41.4496 81.4421 40.9646 80.7029 40.9673C80.3551 40.9673 80.1024 41.109 79.8034 41.8528C78.8658 44.2421 77.4445 47.5141 75.5585 50.3475C75.1807 47.9173 74.6807 44.3265 74.5149 42.9589C74.3491 41.6403 74.1399 41.1989 73.4278 41.2016C72.6642 41.2016 72.2049 41.5994 72.3408 42.3404C72.8109 45.0649 73.6616 49.9688 73.9931 52.508C72.924 53.8857 71.7579 55.1849 70.5037 56.3957C69.7645 57.0932 70.2074 57.9732 71.1097 57.9922C71.5717 58.014 71.8706 57.7825 72.3326 57.2948L72.3245 57.2893ZM68.2127 51.4918C68.6883 49.1488 69.4383 45.498 70.115 42.3541C70.2754 41.6348 69.8569 41.2425 69.2345 41.2452C68.816 41.2452 68.4491 41.3651 68.335 42.0135C68.1529 42.9889 67.9491 44.1467 67.6991 45.3073C66.5006 46.0511 65.0901 46.5197 64.3292 46.5224C63.3128 46.5224 62.8481 45.8795 63.3943 43.9315L63.8509 42.2968C64.1036 41.4387 63.6606 41.0218 63.0138 41.0245C62.5763 41.0245 62.2747 41.1662 62.117 41.8174L61.6143 43.7871C60.7256 47.2907 62.0002 48.2116 63.6172 48.2061C64.658 48.2061 66.0902 47.7103 67.3594 47.0346C67.0169 48.6121 66.6745 50.1187 66.3783 51.2084C66.1962 51.8814 66.5441 52.3663 67.2398 52.3663C67.8159 52.3663 68.0931 52.0939 68.2073 51.4809L68.2127 51.4918ZM57.4237 44.5145C57.4237 47.1109 55.342 50.8706 53.3092 50.8788C51.9911 50.8788 51.3878 49.9824 51.3824 48.4976C51.3824 45.4163 52.9559 42.7464 55.0593 42.7382C56.5404 42.7382 57.421 43.4956 57.4237 44.5145ZM59.4103 44.3456C59.4103 42.2124 57.4101 40.9919 55.062 41C51.8253 41 49.3876 44.4028 49.4012 48.435C49.4012 51.0777 50.9883 52.5216 53.2521 52.5216C56.4426 52.5216 59.432 47.8901 59.4184 44.3483L59.4103 44.3456ZM39.2073 48.3124C39.2073 47.3152 39.2481 46.2963 39.3351 45.3455C41.1097 43.8797 43.2811 43.2695 44.0447 43.2667C45.2704 43.2667 45.6182 44.0269 45.621 44.9995C45.621 47.6422 43.7186 51.0995 41.3679 51.1076C39.9112 51.1076 39.2128 49.9797 39.2073 48.3124ZM47.7244 45.0158C47.7244 42.9534 46.4879 41.6839 44.4633 41.6893C43.4469 41.6893 41.4739 42.2097 39.6612 43.422C40.1395 41.3106 41.126 39.6078 42.9522 39.0057C44.2893 38.5617 46.7162 38.4146 48.1022 38.1094C48.8658 37.9432 49.0941 37.5482 49.0914 36.9216C49.0914 36.1042 48.5805 36.0443 47.9337 36.1615C46.5015 36.3985 44.3083 36.8235 42.7702 37.2512C39.0062 38.2838 37.3132 43.2967 37.3349 48.326C37.3349 51.0504 38.7372 52.7913 41.4412 52.7831C44.7703 52.7695 47.7598 48.5657 47.7462 45.0213L47.7244 45.0158ZM27.5623 50.1214C27.5623 49.4267 28.0895 48.9608 30.0543 48.4213L32.5247 47.7402L32.1388 49.6174C31.0082 50.3393 29.5081 51.0177 28.6303 51.0204C28.0514 51.0204 27.565 50.6526 27.5623 50.1214ZM33.5411 51.756L34.7912 45.3564C35.3592 42.3895 34.1281 40.9782 31.7012 40.9973C30.0902 41.0334 28.5187 41.504 27.1519 42.3595C26.5296 42.7328 26.4399 43.2204 26.7877 43.6345C27.1356 44.0487 27.603 44.2121 28.1466 43.768C29.1961 42.9719 30.4803 42.5491 31.7963 42.5666C33.1552 42.5666 33.4867 43.0461 33.0763 45.0403L32.8263 46.2691L29.663 46.9774C26.8665 47.5904 25.4615 48.5222 25.467 50.1432C25.4724 51.7642 26.8856 52.6878 28.595 52.6796C29.7282 52.6796 30.6278 52.1184 31.8045 51.1403L31.7366 51.4128C31.598 52.0612 31.8561 52.617 32.4323 52.6142C33.0084 52.6115 33.4025 52.4262 33.5384 51.7533L33.5411 51.756ZM17.1537 52.9003C20.6214 52.9003 23.4559 50.5164 23.445 47.318C23.445 45.37 22.358 44.4955 21.1242 44.1277C22.7548 43.3812 24.0973 41.6621 24.0891 39.8994C24.0891 37.8152 22.6461 36.8235 20.635 36.8317C18.855 36.8317 16.9173 37.7471 15.4715 39.0957C14.928 39.6078 14.7812 40.1173 15.3139 40.3952C15.8465 40.6731 16.2623 40.763 16.7923 40.2726C17.7353 39.3654 18.9827 38.4827 20.2763 38.4772C21.5699 38.4718 22.1514 39.0493 22.1542 39.8612C22.1542 41.2752 21.2166 43.1768 19.393 43.4847C17.8902 43.3975 17.0586 43.5392 17.0613 44.3293C17.0613 44.9777 17.3195 45.2992 17.8032 45.2065C18.2685 45.1191 18.7403 45.0708 19.2137 45.0621C20.8443 45.0621 21.4585 45.8795 21.4639 47.3261C21.4639 49.1542 19.5615 51.2248 17.1537 51.233C15.6753 51.233 14.4361 50.6172 13.8681 49.947C13.542 49.5765 13.2403 49.255 12.8028 49.255C12.4794 49.255 11.7864 49.5275 11.7864 50.0723C11.7864 51.3474 14.2486 52.9139 17.1591 52.903" fill="black"/>
<path id="Vector_3" d="M114.73 69.3845L-0.00280762 91.3255L5.2637 119.002L119.996 97.0614L114.73 69.3845Z" fill="#FFC800"/>
<path id="Vector_4" d="M24.07 101.327C24.6842 104.552 23.0047 107.5 19.7625 108.121C16.5204 108.743 13.8789 106.62 13.2647 103.392C12.6505 100.163 14.3327 97.24 17.5748 96.6216C20.817 96.0032 23.4558 98.0982 24.07 101.327ZM15.1263 103.038C15.5529 105.272 17.2487 106.547 19.3875 106.138C21.5263 105.729 22.6324 103.918 22.2084 101.681C21.7845 99.4441 20.0914 98.1936 17.9526 98.6023C15.8138 99.0109 14.6914 100.801 15.1263 103.038Z" fill="black"/>
<path id="Vector_5" d="M33.3481 99.624L34.3971 105.13L32.5573 105.484L30.4375 94.3496L32.2773 93.9981L33.2747 99.2317L36.7152 93.1508L38.8296 92.7449L35.2504 98.853L40.9955 103.869L38.6964 104.31L33.3481 99.624Z" fill="black"/>
<path id="Vector_6" d="M42.4739 101.621C43.4875 101.428 43.599 100.022 43.368 97.1747C43.2348 95.6 42.9957 93.9735 42.6695 91.9983L49.4636 90.696L51.5834 101.828L49.7435 102.179L47.9798 92.9165L44.5773 93.5676C44.7458 94.7064 44.9279 96.0196 45.0475 97.1584C45.504 101.441 45.2132 103.168 43.2131 103.55C42.8014 103.639 42.3775 103.655 41.9602 103.599L41.5961 101.692C41.8868 101.703 42.1778 101.679 42.463 101.621" fill="black"/>
<path id="Vector_7" d="M55.5946 97.9458L59.4075 88.8108L61.2011 88.4675L63.3182 99.5995L61.4783 99.951L59.9102 91.6987L56.0322 100.992L54.3282 101.319L52.2112 90.1866L54.051 89.8352L55.5946 97.9458Z" fill="black"/>
<path id="Vector_8" d="M70.5716 98.4035C67.468 98.9947 64.889 96.8369 64.2802 93.6357C63.6715 90.4345 65.2803 87.4949 68.3839 86.901C71.5336 86.2989 74.0067 88.4048 74.6562 91.8049L74.7078 92.0774L66.2261 93.712C66.7696 95.7608 68.2806 96.8805 70.2128 96.51C71.9141 96.1831 72.8027 95.3467 73.1125 94.2106L74.7893 93.8918C74.6344 95.8316 73.5854 97.8232 70.5716 98.4007V98.4035ZM66.0168 92.3689L72.5391 91.1184C71.9956 89.5273 70.7808 88.3939 68.7344 88.789C66.8728 89.1459 65.938 90.4945 66.0168 92.3689Z" fill="black"/>
<path id="Vector_9" d="M83.7086 90.6825L78.5831 91.6633L79.5044 96.5018L77.6646 96.856L75.5448 85.724L77.3846 85.3698L78.2271 89.797L83.3526 88.8162L82.5128 84.3891L84.3499 84.0376L86.4697 95.1696L84.6299 95.5238L83.7086 90.6825Z" fill="black"/>
<path id="Vector_10" d="M95.0412 81.9944L95.4026 83.8824L91.8371 84.5662L93.5981 93.8075L91.7583 94.1589L90 84.9177L86.4344 85.5988L86.0757 83.708L95.0412 81.9944Z" fill="black"/>
<path id="Vector_11" d="M103.172 92.1672C100.069 92.7611 97.4897 90.6033 96.8809 87.3994C96.2722 84.1955 97.881 81.2586 100.985 80.6674C104.134 80.0626 106.607 82.1713 107.257 85.5713L107.308 85.8438L98.8268 87.4784C99.3703 89.5245 100.881 90.6442 102.814 90.2737C104.515 89.9495 105.403 89.1104 105.711 87.977L107.39 87.6555C107.235 89.5953 106.183 91.5869 103.172 92.1644V92.1672ZM98.6175 86.1326L105.14 84.8848C104.596 83.291 103.382 82.1604 101.335 82.5527C99.4736 82.9096 98.5387 84.2582 98.6175 86.1326Z" fill="black"/>
<path id="Vector_12" d="M76.4363 33.0882L76.2053 33.1863C75.7586 33.3639 75.2857 33.4661 74.8057 33.4887C74.6725 33.505 74.5176 33.5132 74.3872 33.5159C65.2804 33.6631 58.0351 30.8433 53.9832 25.577C51.2764 22.0679 50.2219 17.8369 51.0916 13.9955C51.8715 10.5382 54.3528 7.55765 57.7444 6.0238C58.4373 5.70961 59.1579 5.46062 59.8967 5.28003C61.1938 4.9599 62.5372 4.87319 63.8645 5.02394C64.623 3.93052 65.5678 2.97968 66.6555 2.21506C67.2797 1.77929 67.9429 1.4026 68.6366 1.08987C72.0201 -0.446702 75.8955 -0.348623 78.999 1.34597C82.4504 3.22854 84.9153 6.81116 85.7632 11.1702C87.0296 17.6898 84.5131 24.7133 78.4854 31.4862C78.3904 31.5942 78.2897 31.6969 78.1837 31.7941C78.0668 31.9031 77.9473 32.0093 77.8277 32.1156L77.6076 32.3145C77.3476 32.5522 77.0602 32.758 76.7515 32.9275C76.6537 32.9819 76.5395 33.0392 76.4363 33.0855" fill="#E6008C"/>
<path id="Vector_13" d="M76.3275 6.26627C74.2241 5.11657 71.4141 5.30728 69.2372 6.83023C68.5097 7.32703 67.9005 7.97877 67.4533 8.73889C67.0061 9.49901 66.7318 10.3488 66.65 11.2274C65.9381 10.709 65.1208 10.3544 64.2564 10.1891C63.392 10.0238 62.5019 10.0518 61.6496 10.2712C59.0705 10.8978 57.0704 12.8948 56.5459 15.2378C55.9507 17.8641 56.9263 20.5123 58.4618 22.5093C61.8398 26.9038 67.998 28.3286 73.9523 28.2306C74.0339 28.2306 74.1181 28.2142 74.1969 28.2115L74.2404 28.1924C74.4116 28.0371 74.5855 27.8846 74.7567 27.7265C78.662 23.3402 81.5508 17.8641 80.4991 12.5161C80.0262 10.0423 78.6864 7.55765 76.3275 6.26627Z" stroke="black" stroke-width="5.53" stroke-linecap="round" stroke-linejoin="round"/>
</g>
</g>
</g>
</g>
<defs>
<clipPath id="clip0_168_1258">
<rect width="120" height="119" fill="white"/>
</clipPath>
</defs>
</svg>
