<svg width="130" height="126" viewBox="0 0 130 126" fill="none" xmlns="http://www.w3.org/2000/svg">
<g id="&#208;&#160;&#208;&#181;&#209;&#129;&#209;&#131;&#209;&#128;&#209;&#129; 1 4" clip-path="url(#clip0_168_1346)">
<g id="&#208;&#161;&#208;&#187;&#208;&#190;&#208;&#185; 2">
<g id="&#208;&#161;&#208;&#187;&#208;&#190;&#208;&#185; 1">
<g id="Group">
<path id="Vector" d="M105.181 28.9658C100.7 28.9296 96.2916 30.1048 92.4268 32.3666C88.0985 34.9077 82.1436 34.8875 77.8432 32.2859C74.0942 30.0491 69.8229 28.8293 65.4541 28.7479C61.0853 28.6666 56.7713 29.7264 52.9411 31.822C48.4787 34.285 42.5239 34.1867 38.269 31.4893C34.3239 29.0001 29.7536 27.6718 25.0843 27.6574C11.6365 27.5843 0.655212 38.0665 0.581852 51.0948C0.508491 64.1231 11.3608 74.7262 24.8187 74.7918C29.0793 74.8247 33.2768 73.7638 37.0066 71.7112C41.4665 69.2507 47.4238 69.349 51.6788 72.0439C55.5485 74.4741 60.0133 75.7993 64.5866 75.8753C69.16 75.9514 73.6666 74.7752 77.6155 72.475C81.9463 69.9364 87.9012 69.9692 92.2016 72.5557C96.0406 74.86 100.434 76.0849 104.916 76.1001C118.374 76.1733 129.342 65.681 129.413 52.6552C129.484 39.6295 118.637 29.0213 105.179 28.9582" fill="#FFC800"/>
<path id="Vector_2" d="M105.181 28.9658C100.7 28.9296 96.2917 30.1048 92.4268 32.3666C88.0985 34.9077 82.1436 34.8875 77.8432 32.2859C74.0942 30.0491 69.8229 28.8293 65.4541 28.7479C61.0853 28.6666 56.7713 29.7264 52.9411 31.822C48.4787 34.285 42.5239 34.1867 38.269 31.4893C34.3239 29.0001 29.7536 27.6718 25.0843 27.6574C11.6365 27.5843 0.655212 38.0665 0.581852 51.0948C0.508491 64.1231 11.3608 74.7262 24.8187 74.7918C29.0794 74.8247 33.2768 73.7638 37.0066 71.7112C41.4665 69.2507 47.4238 69.349 51.6788 72.0439C55.5485 74.4741 60.0133 75.7993 64.5866 75.8753C69.16 75.9514 73.6666 74.7752 77.6155 72.475C81.9463 69.9364 87.9012 69.9692 92.2016 72.5557C96.0406 74.86 100.434 76.0849 104.916 76.1001C118.374 76.1733 129.342 65.681 129.413 52.6552C129.484 39.6295 118.642 29.0389 105.181 28.9658Z" stroke="white" stroke-width="4.61" stroke-miterlimit="10"/>
<path id="Vector_3" d="M11.9174 55.6778H13.3543C15.2262 53.7115 15.9118 50.888 16.2229 48.2284C16.4759 45.9595 16.6454 43.5848 16.7289 41.1874L25.7548 41.2378L25.6763 55.7459L27.9328 55.7585L27.8974 61.7886H25.9141L25.9344 58.0551L13.8881 57.982L13.8678 61.713H11.882L11.9174 55.6778ZM18.1328 48.4956C17.8166 51.6796 16.949 54.2006 15.7853 55.698L23.5969 55.7409L23.6652 43.5319L18.5072 43.5041C18.4238 44.9613 18.3403 46.494 18.1328 48.4956Z" fill="black"/>
<path id="Vector_4" d="M35.0411 58.3022C31.6918 58.282 29.4505 55.5291 29.4758 52.0905C29.5011 48.652 31.7525 45.9495 35.1144 45.9697C38.5118 45.9873 40.6544 48.6696 40.6342 52.3275V52.6225L31.4844 52.572C31.621 54.798 32.9769 56.2627 35.0588 56.2753C36.8953 56.2753 37.9882 55.5997 38.5422 54.4905H40.3509C39.7943 56.4644 38.2968 58.3097 35.0386 58.2921L35.0411 58.3022ZM31.5299 51.1301L38.575 51.1679C38.3347 49.4032 37.3102 47.9965 35.0942 47.9839C33.0856 47.9839 31.8385 49.1788 31.5299 51.1301Z" fill="black"/>
<path id="Vector_5" d="M45.2254 54.9217L51.0436 46.2546H52.9763L52.9105 58.1914H50.9273L50.9753 49.3428L45.0483 58.1662H43.2143L43.2801 46.2294H45.2659L45.2254 54.9217ZM48.1927 43.4967C49.1337 43.4967 49.6321 43.0833 49.9635 42.2362H51.5015C51.3194 43.9152 50.4188 45.2437 48.1876 45.2336C45.9565 45.2236 45.0685 43.8799 44.8991 42.2085H46.4371C46.7558 43.0505 47.2491 43.469 48.1927 43.469" fill="black"/>
<path id="Vector_6" d="M66.5558 50.22H64.7445C64.4283 49.131 63.2925 48.2612 61.2839 48.2486C58.9769 48.2486 57.6539 49.9351 57.6412 52.2569C57.6286 54.5787 58.9339 56.3182 61.2384 56.3308C63.247 56.3308 64.3929 55.4838 64.7218 54.3972H66.533C65.9487 56.9182 64.0033 58.461 61.3016 58.4459C57.8056 58.4283 55.6124 55.6728 55.6326 52.2368C55.6529 48.8007 57.8739 46.0957 61.37 46.1134C64.0742 46.1285 65.9993 47.6965 66.5558 50.22Z" fill="black"/>
<path id="Vector_7" d="M77.7367 46.4008L77.7241 48.4277L73.8815 48.4075L73.8259 58.3174L71.8426 58.3073L71.8983 48.3974L68.0532 48.3747L68.0658 46.3479L77.7367 46.4008Z" fill="black"/>
<path id="Vector_8" d="M80.0263 58.3526L80.0921 46.4159L84.5317 46.4386C86.988 46.4537 88.5437 47.5982 88.5311 49.5999C88.5311 50.8603 87.8253 51.7956 86.8058 52.0628C88.144 52.2922 89.0825 53.2628 89.0825 54.8687C89.0699 57.1905 87.5268 58.398 84.6733 58.3778L80.0263 58.3526ZM81.9716 56.4367H84.476C86.3353 56.4367 87.0841 55.9073 87.0892 54.672C87.0942 53.4368 86.305 52.8872 84.5443 52.8771L81.9919 52.8645L81.9716 56.4367ZM81.9994 51.5183H84.5038C85.8167 51.5183 86.5655 51.0368 86.5706 49.9225C86.5706 48.8612 85.9837 48.3621 84.6202 48.3545L82.0172 48.3419L81.9994 51.5183Z" fill="black"/>
<path id="Vector_9" d="M94.7566 58.4333H94.2861L90.2108 46.4739H92.3433L95.5635 56.1291L98.9406 46.5092H100.825L95.8873 60.3215C95.0551 62.6408 94.0331 63.4752 92.4976 63.4676C92.0269 63.4677 91.5589 63.398 91.1088 63.2609V61.2442C91.4898 61.3379 91.8801 61.3895 92.2724 61.3979C93.2388 61.3979 93.8611 60.9366 94.2962 59.7039L94.7566 58.4333Z" fill="black"/>
<path id="Vector_10" d="M104.913 51.6191H106.972C107.359 48.5939 109.58 46.3705 112.778 46.3881C116.277 46.4083 118.596 49.1133 118.573 52.5745C118.551 56.0358 116.208 58.7408 112.71 58.7206C109.421 58.703 107.144 56.2425 106.94 53.0535H104.916L104.875 58.4862H102.892L102.958 46.5494H104.941L104.913 51.6191ZM108.925 52.5317C108.925 54.9291 110.415 56.5929 112.72 56.6056C115.024 56.6182 116.547 54.9694 116.562 52.572C116.578 50.1746 115.07 48.5385 112.768 48.5234C110.466 48.5082 108.94 50.1343 108.925 52.5317Z" fill="black"/>
<path id="Vector_11" d="M113.057 63.3749L26.9826 82.4855L33.1262 109.966L119.2 90.8552L113.057 63.3749Z" fill="#FFC800"/>
<path id="Vector_12" d="M113.057 63.3749L26.9826 82.4855L33.1262 109.966L119.2 90.8552L113.057 63.3749Z" stroke="white" stroke-width="4.61" stroke-miterlimit="10"/>
<path id="Vector_13" d="M101.319 83.8092C101.177 83.1714 101.572 82.637 103.277 81.7471L105.422 80.6227L105.444 82.4252C104.546 83.3176 103.297 84.2403 102.487 84.4218C101.953 84.5403 101.43 84.2983 101.319 83.8092ZM107.187 84.1143L107.051 77.9833C106.975 75.1447 105.553 74.0985 103.312 74.5951C101.831 74.953 100.475 75.702 99.3859 76.7632C98.8799 77.2295 98.9002 77.6959 99.3049 78.0085C99.7097 78.3211 100.17 78.374 100.593 77.8547C101.402 76.9167 102.501 76.2723 103.717 76.022C104.981 75.7422 105.374 76.1228 105.399 78.0388L105.417 79.2186L102.634 80.5068C100.175 81.6311 99.0621 82.7756 99.396 84.2605C99.7299 85.7453 101.22 86.31 102.801 85.9596C103.846 85.7277 104.572 85.0319 105.452 83.8975V84.1672C105.452 84.7899 105.806 85.2487 106.34 85.1302C106.874 85.0117 107.197 84.7622 107.187 84.1218V84.1143ZM88.5386 78.9261C88.5133 81.1194 88.4931 84.6285 88.2401 87.4066C86.7729 87.7545 85.4372 88.0949 84.5038 88.3268C84.2812 85.6294 84.5518 82.1328 84.6353 79.9043C84.6733 79.2715 84.3469 79.0093 83.7803 78.9791C83.6506 78.967 83.5198 78.9823 83.3965 79.0241C83.2731 79.0658 83.16 79.133 83.0645 79.2213C82.969 79.3095 82.8933 79.4169 82.8423 79.5363C82.7912 79.6557 82.7661 79.7846 82.7684 79.9144C82.6445 82.2639 82.5458 85.7126 82.7684 88.4856C82.7844 88.7194 82.8546 88.9463 82.9735 89.1484C83.0925 89.3505 83.257 89.5223 83.454 89.6503C83.8182 89.8797 84.1016 90.041 84.5923 89.9326C88.0984 89.0856 93.4614 87.6285 96.5602 87.1596C96.4489 87.9663 95.9227 89.4284 95.4725 90.4141C95.2498 90.9183 95.437 91.4503 96.0593 91.536C96.6184 91.6343 96.97 91.3998 97.3242 90.5629C97.7291 89.5041 98.0389 88.4116 98.25 87.2982C98.3689 86.6251 98.2804 86.131 97.9186 85.8109C97.5569 85.4907 97.1901 85.4579 96.674 85.5588C96.454 85.584 96.2212 85.6369 95.9379 85.6773C96.2051 82.9837 96.2432 80.2724 96.0518 77.5724C95.9657 76.7884 95.6925 76.4682 95.0095 76.6195C94.3695 76.7632 94.1216 77.1539 94.1697 77.7665C94.3866 80.5256 94.3773 83.2978 94.1418 86.0554C92.9023 86.3302 91.43 86.6554 90.0058 86.9957C90.1272 84.3336 90.231 80.9858 90.279 78.8984C90.3018 78.2026 89.9982 77.8446 89.2292 78.0161C88.8472 78.1018 88.5538 78.2984 88.5386 78.9287V78.9261ZM72.7534 88.4604C72.5485 87.5453 72.3816 86.5999 72.2728 85.71C73.6161 84.0059 75.4981 83.0076 76.2014 82.8513C77.3322 82.5992 77.8103 83.2294 78.0101 84.1244C78.5515 86.547 77.489 90.1091 75.3109 90.5931C73.9677 90.8906 73.095 89.9906 72.7534 88.4604ZM79.9554 83.7134C79.533 81.8202 78.1391 80.9026 76.2621 81.3185C75.3236 81.5278 73.6135 82.3975 72.1767 83.8773C72.1919 81.8429 72.761 80.0959 74.3244 79.1606C75.4703 78.4825 77.6838 77.8572 78.9006 77.2951C79.5734 76.99 79.705 76.5816 79.576 76.0069C79.409 75.2632 78.9259 75.3035 78.3516 75.543C77.0868 76.0472 75.1364 76.8816 73.7982 77.5825C70.5299 79.2892 69.9784 84.2353 71.0156 88.8486C71.5721 91.3368 73.2138 92.6679 75.7106 92.1133C78.7817 91.4326 80.6966 86.968 79.9681 83.7134H79.9554ZM66.7505 86.2016C67.2818 88.5839 66.1105 92.4586 64.2335 92.8771C63.0167 93.1469 62.2781 92.441 61.972 91.0797C61.3396 88.2512 62.2654 85.4781 64.2082 85.047C65.5742 84.7445 66.5406 85.2663 66.7505 86.2016ZM68.5517 85.6445C68.114 83.6882 66.022 82.9698 63.8515 83.4538C60.864 84.1168 59.2981 87.7243 60.1228 91.4225C60.6667 93.8477 62.4172 94.8636 64.5067 94.3998C67.4512 93.7468 69.2802 88.899 68.5542 85.6445H68.5517ZM56.1082 88.5587C56.6419 90.941 55.4707 94.8157 53.5937 95.2342C52.3769 95.5039 51.6357 94.7981 51.3322 93.4368C50.6997 90.6083 51.6256 87.8352 53.5659 87.4041C54.9319 87.1016 55.9008 87.6234 56.1082 88.5587ZM57.9118 88.0016C57.4742 86.0453 55.3822 85.3268 53.2092 85.8109C50.2216 86.4739 48.6558 90.0814 49.483 93.7796C50.0243 96.2048 51.7749 97.2207 53.8669 96.7569C56.8114 96.1039 58.6379 91.2561 57.9144 88.0016H57.9118ZM46.3613 95.2317C45.6809 96.298 44.5627 97.3064 43.5382 97.5333C42.4277 97.7854 41.9749 97.256 41.6663 95.8745C41.092 93.3006 42.2936 89.8646 44.0644 89.4713C44.7677 89.315 44.9144 90.0637 45.7669 89.8747C45.9842 89.8217 46.1727 89.6875 46.2933 89.4997C46.4139 89.3119 46.4573 89.0851 46.4145 88.8663C46.207 88.0419 45.3444 87.5881 43.7229 87.9461C40.9403 88.5638 38.8583 92.8443 39.64 96.3308C40.1763 98.7333 41.8003 99.4896 43.9556 99.0106C45.5999 98.6451 48.2991 96.3938 48.0663 95.3527C47.9868 95.1476 47.8422 94.974 47.6545 94.8584C47.4668 94.7428 47.2463 94.6915 47.0267 94.7124C46.7054 94.783 46.5764 94.9014 46.3613 95.2392" fill="black"/>
<path id="Vector_14" d="M43.4927 111.134C43.4767 114.091 42.5812 116.977 40.9194 119.427C39.2576 121.876 36.9041 123.78 34.1567 124.897C31.4092 126.014 28.3911 126.294 25.484 125.702C22.5768 125.109 19.9112 123.671 17.8242 121.569C15.7372 119.467 14.3225 116.796 13.759 113.892C13.1955 110.989 13.5085 107.985 14.6584 105.259C15.8084 102.533 17.7436 100.208 20.2194 98.5777C22.6952 96.9477 25.6004 96.086 28.5677 96.1014C30.5383 96.1113 32.4876 96.508 34.3043 97.269C36.121 98.0299 37.7694 99.14 39.1555 100.536C40.5415 101.932 41.6379 103.587 42.3821 105.405C43.1263 107.223 43.5037 109.17 43.4927 111.134Z" fill="#FA3200"/>
<path id="Vector_15" d="M35.9796 118.223L35.6052 116.355" stroke="black" stroke-width="4.11" stroke-linecap="round" stroke-linejoin="round"/>
<path id="Vector_16" d="M36.02 118.276L37.9299 118.17" stroke="black" stroke-width="4.11" stroke-linecap="round" stroke-linejoin="round"/>
<path id="Vector_17" d="M21.0596 104.199L21.4365 106.069" stroke="black" stroke-width="4.11" stroke-linecap="round" stroke-linejoin="round"/>
<path id="Vector_18" d="M21.0192 104.146L19.1093 104.254" stroke="black" stroke-width="4.11" stroke-linecap="round" stroke-linejoin="round"/>
<path id="Vector_19" d="M37.1028 105.732C38.3236 107.627 38.8805 109.872 38.6865 112.116C38.4924 114.361 37.5584 116.478 36.0302 118.137" stroke="black" stroke-width="4.11" stroke-linecap="round" stroke-linejoin="round"/>
<path id="Vector_20" d="M23.02 102.618C24.7329 101.537 26.7293 100.988 28.7559 101.04C30.7826 101.091 32.7482 101.742 34.4035 102.908C34.7712 103.168 35.1219 103.451 35.4533 103.755" stroke="black" stroke-width="4.11" stroke-linecap="round" stroke-linejoin="round"/>
<path id="Vector_21" d="M20.2375 117.272C18.8282 115.359 18.1329 113.015 18.2714 110.645C18.41 108.275 19.3736 106.027 20.9964 104.289" stroke="black" stroke-width="4.11" stroke-linecap="round" stroke-linejoin="round"/>
<path id="Vector_22" d="M35.4889 103.778L33.6144 104.151" stroke="black" stroke-width="4.11" stroke-linecap="round" stroke-linejoin="round"/>
<path id="Vector_23" d="M35.542 103.737L35.4357 101.834" stroke="black" stroke-width="4.11" stroke-linecap="round" stroke-linejoin="round"/>
<path id="Vector_24" d="M21.525 118.798L23.3692 118.293" stroke="black" stroke-width="4.11" stroke-linecap="round" stroke-linejoin="round"/>
<path id="Vector_25" d="M21.4745 118.843L21.7174 120.734" stroke="black" stroke-width="4.11" stroke-linecap="round" stroke-linejoin="round"/>
<path id="Vector_26" d="M34.1075 119.035C32.295 120.38 30.0874 121.09 27.8278 121.055C25.5683 121.021 23.3836 120.243 21.6135 118.843" stroke="black" stroke-width="4.11" stroke-linecap="round" stroke-linejoin="round"/>
<path id="Vector_27" d="M98.7611 13.2048C98.2141 12.7514 97.5744 12.4227 96.8866 12.2415C96.1988 12.0604 95.4796 12.0312 94.7794 12.156C94.2918 12.2259 93.8161 12.3616 93.3653 12.5594C92.5844 11.942 91.6388 11.5668 90.6459 11.4804L90.4941 10.3283C89.9629 6.34019 89.462 2.57136 86.988 0.844506C86.4229 0.454612 85.7807 0.189684 85.1044 0.0675037C84.4281 -0.0546763 83.7334 -0.0312817 83.067 0.136117C81.4202 0.504177 79.3129 1.56298 78.6173 4.6083C78.2226 6.32507 78.3289 8.4704 78.6173 11.1628L77.9975 10.4443C76.6492 8.88888 75.5058 7.56286 74.2637 6.64271C71.906 4.91837 69.8747 5.31416 68.5846 5.94692C66.4242 7.01077 65.6552 8.63931 65.3896 9.82164C64.8457 12.2367 65.8627 15.0804 68.4126 18.2769C70.9625 21.4735 72.928 23.7651 74.0765 25.0684C73.7451 26.4121 73.6768 28.3456 74.3978 30.9977C75.2199 34.0228 76.7959 36.753 78.6147 38.2656C80.2866 39.6414 82.27 40.5901 84.393 41.0294C86.5159 41.4687 88.7143 41.3853 90.7977 40.7866C91.3279 40.6378 91.8491 40.4585 92.3585 40.2496C95.4576 39.0185 97.947 36.6228 99.2898 33.5791C100.381 31.057 100.747 28.2824 100.347 25.565C101.217 23.6012 101.152 21.229 101.106 19.908C101.05 17.8358 100.744 14.8862 98.751 13.2148" fill="#1EBEAA"/>
<path id="Vector_28" d="M96.3808 26.528C94.9566 26.9263 93.7347 26.2532 93.1934 24.7633C93.1613 24.6999 93.143 24.6303 93.1397 24.5593C93.1365 24.4883 93.1484 24.4174 93.1746 24.3513C93.2008 24.2852 93.2407 24.2253 93.2917 24.1757C93.3428 24.126 93.4038 24.0876 93.4707 24.0631C93.5377 24.0386 93.6091 24.0285 93.6803 24.0334C93.7514 24.0384 93.8207 24.0582 93.8836 24.0918C93.9466 24.1253 94.0016 24.1716 94.0453 24.2279C94.0889 24.2841 94.1202 24.3489 94.1369 24.418C94.3064 24.8793 94.8351 25.9079 96.1076 25.5524C97.3269 25.2121 98.1161 24.1331 98.0048 19.971C97.9416 17.6895 97.5216 16.2047 96.7551 15.5619C96.5411 15.393 96.2921 15.2735 96.0262 15.2121C95.7602 15.1506 95.4839 15.1487 95.2171 15.2064C94.8018 15.268 94.4127 15.4464 94.0955 15.7205C93.7783 15.9947 93.5461 16.3533 93.4261 16.7543C93.371 16.8649 93.277 16.9516 93.162 16.9978C93.047 17.0439 92.919 17.0464 92.8023 17.0048C92.6856 16.9631 92.5883 16.8801 92.5288 16.7717C92.4694 16.6632 92.4521 16.5368 92.48 16.4165C92.9227 15.1761 93.8435 14.3997 95.0729 14.2131C95.4802 14.134 95.8999 14.145 96.3025 14.2452C96.705 14.3453 97.0806 14.5323 97.4027 14.793C98.4146 15.6425 98.9383 17.3139 99.0091 19.9458C99.1229 24.06 98.359 25.9658 96.3808 26.5179" fill="black"/>
<path id="Vector_29" d="M96.3808 26.528C94.9566 26.9263 93.7347 26.2532 93.1934 24.7633C93.1613 24.6999 93.143 24.6303 93.1397 24.5593C93.1365 24.4883 93.1484 24.4174 93.1746 24.3513C93.2008 24.2852 93.2407 24.2253 93.2917 24.1757C93.3428 24.126 93.4038 24.0876 93.4707 24.0631C93.5377 24.0386 93.6091 24.0285 93.6803 24.0334C93.7514 24.0384 93.8207 24.0582 93.8836 24.0917C93.9466 24.1253 94.0016 24.1716 94.0453 24.2279C94.089 24.2841 94.1202 24.3489 94.1369 24.418C94.3064 24.8793 94.8351 25.9079 96.1076 25.5524C97.3269 25.2121 98.1161 24.1331 98.0048 19.971C97.9416 17.6895 97.5216 16.2047 96.7552 15.5619C96.5411 15.393 96.2921 15.2735 96.0262 15.2121C95.7602 15.1506 95.4839 15.1487 95.2171 15.2064C94.8018 15.268 94.4127 15.4464 94.0955 15.7205C93.7783 15.9947 93.5461 16.3533 93.4261 16.7543C93.371 16.8649 93.277 16.9516 93.162 16.9978C93.047 17.0439 92.919 17.0464 92.8023 17.0048C92.6856 16.9631 92.5883 16.8801 92.5288 16.7717C92.4694 16.6632 92.4521 16.5368 92.48 16.4165C92.9227 15.1761 93.8435 14.3997 95.0729 14.2131C95.4802 14.134 95.8999 14.145 96.3025 14.2452C96.705 14.3453 97.0806 14.5323 97.4028 14.793C98.4146 15.6425 98.9383 17.3139 99.0091 19.9458C99.1331 24.0701 98.3691 25.9658 96.3808 26.528Z" stroke="#231F20" stroke-width="0.92" stroke-miterlimit="10"/>
<path id="Vector_30" d="M91.5969 28.0784C91.4146 28.1275 91.2297 28.1662 91.0429 28.1944C90.1904 28.3204 88.9888 28.1061 88.1136 26.3667C88.0741 26.3072 88.0477 26.2401 88.0361 26.1697C88.0246 26.0994 88.0282 26.0274 88.0466 25.9585C88.065 25.8896 88.0979 25.8253 88.1431 25.7701C88.1883 25.7148 88.2447 25.6696 88.3087 25.6377C88.3726 25.6057 88.4427 25.5876 88.5142 25.5846C88.5857 25.5816 88.657 25.5938 88.7234 25.6203C88.7898 25.6468 88.8499 25.687 88.8995 25.7383C88.9492 25.7896 88.9874 25.8508 89.0116 25.918C89.6693 27.2213 90.4029 27.2742 90.8962 27.2011C92.6316 26.949 93.608 25.7163 93.1071 20.4097C92.8896 18.1106 92.538 15.8719 91.43 14.977C90.9746 14.614 90.3903 14.4728 89.644 14.5762C88.8978 14.6795 88.321 14.9316 87.9871 15.3652C87.2484 16.3308 87.4533 18.3021 87.7518 20.4071C87.7689 20.4757 87.7713 20.5471 87.7589 20.6166C87.7465 20.6862 87.7196 20.7524 87.6799 20.8109C87.6402 20.8694 87.5886 20.919 87.5284 20.9564C87.4683 20.9937 87.4009 21.0181 87.3307 21.0279C87.2605 21.0376 87.189 21.0326 87.1209 21.0131C87.0528 20.9935 86.9895 20.96 86.9353 20.9145C86.881 20.8691 86.8369 20.8127 86.8059 20.7492C86.7749 20.6857 86.7576 20.6164 86.7551 20.5458C86.4136 18.1332 86.2113 16.0308 87.1877 14.7476C87.6936 14.0896 88.4525 13.7039 89.5201 13.5703C90.5319 13.4417 91.3895 13.6485 92.0497 14.1854C93.3702 15.2392 93.8205 17.3946 94.0988 20.3038C94.4883 24.4256 94.1924 27.3373 91.5868 28.0683" fill="black"/>
<path id="Vector_31" d="M91.5969 28.0784C91.4146 28.1275 91.2297 28.1662 91.0429 28.1944C90.1904 28.3204 88.9888 28.1061 88.1136 26.3667C88.0741 26.3072 88.0477 26.2401 88.0361 26.1697C88.0246 26.0994 88.0282 26.0274 88.0466 25.9585C88.065 25.8896 88.0979 25.8253 88.1431 25.7701C88.1883 25.7148 88.2447 25.6696 88.3087 25.6377C88.3726 25.6057 88.4427 25.5876 88.5142 25.5846C88.5857 25.5816 88.657 25.5938 88.7234 25.6203C88.7898 25.6468 88.8499 25.687 88.8995 25.7383C88.9492 25.7896 88.9874 25.8508 89.0116 25.918C89.6693 27.2213 90.4029 27.2742 90.8962 27.2011C92.6316 26.949 93.608 25.7163 93.1071 20.4097C92.8896 18.1106 92.538 15.8719 91.43 14.977C90.9746 14.614 90.3903 14.4728 89.644 14.5762C88.8978 14.6795 88.321 14.9316 87.9871 15.3652C87.2484 16.3308 87.4533 18.3021 87.7518 20.4071C87.7689 20.4757 87.7713 20.5471 87.7589 20.6166C87.7465 20.6862 87.7196 20.7524 87.6799 20.8109C87.6402 20.8694 87.5886 20.919 87.5284 20.9564C87.4683 20.9937 87.4009 21.0181 87.3307 21.0279C87.2605 21.0376 87.189 21.0326 87.1209 21.0131C87.0528 20.9935 86.9895 20.96 86.9353 20.9145C86.881 20.8691 86.8369 20.8127 86.8059 20.7492C86.7749 20.6857 86.7576 20.6164 86.7551 20.5458C86.4136 18.1332 86.2113 16.0308 87.1877 14.7476C87.6936 14.0896 88.4525 13.7039 89.5201 13.5703C90.5319 13.4417 91.3895 13.6485 92.0497 14.1854C93.3702 15.2392 93.8205 17.3946 94.0988 20.3038C94.4985 24.4356 94.2025 27.3473 91.5969 28.0784Z" stroke="#231F20" stroke-width="0.92" stroke-miterlimit="10"/>
<path id="Vector_32" d="M77.2386 25.0356C77.1491 25.0602 77.0546 25.0598 76.9654 25.0345C76.8761 25.0091 76.7956 24.9598 76.7326 24.8919C76.7048 24.8642 74.0486 21.9878 70.0543 16.9786C67.9496 14.3392 67.044 12.0224 67.4361 10.2779C67.6764 9.20652 68.3746 8.37965 69.5129 7.82252C71.9465 6.62506 73.8134 8.79561 76.4012 11.7981C76.7023 12.1485 77.0134 12.5115 77.3372 12.8821C79.108 14.8988 80.4917 16.4114 81.3569 17.3366C81.2051 15.824 80.9572 13.3434 80.7093 11.0342C80.2033 6.31751 80.1097 2.91925 83.5147 2.17557C83.8993 2.07196 84.3018 2.05234 84.6948 2.11803C85.0877 2.18373 85.4618 2.33321 85.7914 2.55624C87.5091 3.75621 87.9517 7.09396 88.4197 10.6031L88.8827 14.1173C88.8879 14.2432 88.8457 14.3664 88.7644 14.4628C88.6831 14.5592 88.5685 14.6218 88.4432 14.6382C88.3179 14.6547 88.191 14.6238 88.0874 14.5516C87.9838 14.4795 87.911 14.3713 87.8834 14.2484L87.418 10.7342C86.9981 7.58303 86.5655 4.32595 85.207 3.37555C84.9913 3.23473 84.7476 3.1422 84.4925 3.10434C84.2375 3.06647 83.9772 3.08418 83.7297 3.15622C81.5694 3.62764 81.114 5.37215 81.706 10.9283C82.0981 14.5837 82.4978 18.6576 82.5003 18.6979C82.5084 18.8005 82.4849 18.9031 82.4329 18.9919C82.3808 19.0808 82.3028 19.1516 82.2091 19.195C82.1155 19.2383 82.0108 19.2521 81.9091 19.2344C81.8074 19.2168 81.7136 19.1686 81.6402 19.0962C81.62 19.0761 79.6822 17.0795 76.5808 13.5501C76.2436 13.1754 75.929 12.8115 75.6373 12.4586C73.0444 9.44854 71.6151 7.92084 69.9581 8.72754C69.0955 9.15358 68.5921 9.73592 68.4176 10.4922C68.0938 11.9292 68.9235 13.956 70.841 16.3484C74.8101 21.3323 77.446 24.1835 77.4713 24.2012C77.5293 24.2645 77.5702 24.3414 77.59 24.4248C77.6099 24.5082 77.6081 24.5953 77.5848 24.6778C77.5615 24.7603 77.5175 24.8355 77.4569 24.8964C77.3963 24.9572 77.3212 25.0017 77.2386 25.0255" fill="black"/>
<path id="Vector_33" d="M77.2386 25.0356C77.1491 25.0602 77.0546 25.0598 76.9654 25.0345C76.8761 25.0091 76.7956 24.9598 76.7326 24.8919C76.7048 24.8642 74.0486 21.9878 70.0543 16.9786C67.9496 14.3392 67.044 12.0224 67.4361 10.2779C67.6764 9.20652 68.3746 8.37965 69.5129 7.82252C71.9465 6.62506 73.8134 8.79561 76.4012 11.7981C76.7023 12.1485 77.0134 12.5115 77.3372 12.8821C79.108 14.8988 80.4917 16.4114 81.3569 17.3366C81.2051 15.824 80.9572 13.3434 80.7093 11.0342C80.2033 6.31751 80.1097 2.91925 83.5147 2.17557C83.8993 2.07196 84.3018 2.05234 84.6948 2.11803C85.0877 2.18373 85.4618 2.33321 85.7914 2.55624C87.509 3.75621 87.9517 7.09396 88.4197 10.6031L88.8827 14.1173C88.8879 14.2432 88.8457 14.3664 88.7644 14.4628C88.6831 14.5592 88.5685 14.6218 88.4432 14.6382C88.3179 14.6547 88.191 14.6238 88.0874 14.5516C87.9838 14.4795 87.911 14.3713 87.8834 14.2484L87.418 10.7342C86.9981 7.58303 86.5655 4.32595 85.207 3.37555C84.9913 3.23473 84.7476 3.1422 84.4925 3.10434C84.2375 3.06647 83.9772 3.08418 83.7297 3.15622C81.5694 3.62764 81.114 5.37215 81.706 10.9283C82.0981 14.5837 82.4978 18.6576 82.5003 18.6979C82.5084 18.8005 82.4849 18.9031 82.4329 18.9919C82.3808 19.0808 82.3028 19.1516 82.2091 19.195C82.1155 19.2383 82.0108 19.2521 81.9091 19.2344C81.8074 19.2168 81.7136 19.1686 81.6402 19.0962C81.62 19.0761 79.6822 17.0795 76.5808 13.5501C76.2436 13.1754 75.929 12.8115 75.6373 12.4586C73.0444 9.44854 71.6151 7.92083 69.9581 8.72754C69.0955 9.15358 68.5921 9.73592 68.4176 10.4922C68.0938 11.9292 68.9235 13.956 70.841 16.3484C74.8101 21.3323 77.446 24.1835 77.4713 24.2012C77.5293 24.2645 77.5702 24.3414 77.59 24.4248C77.6099 24.5082 77.6081 24.5953 77.5848 24.6778C77.5615 24.7603 77.5175 24.8355 77.4569 24.8964C77.3963 24.9572 77.3212 25.0017 77.2386 25.0255V25.0356Z" stroke="#231F20" stroke-width="0.92" stroke-miterlimit="10"/>
<path id="Vector_34" d="M90.2335 38.7623C88.4784 39.2714 86.625 39.346 84.8344 38.9796C83.0438 38.6132 81.3699 37.8169 79.958 36.6598C76.6947 33.9472 74.805 26.7549 76.6998 24.2516C77.9646 22.5777 79.7733 22.1668 81.6908 21.7307C82.3991 21.5718 83.1353 21.4055 83.8891 21.1685C84.1977 21.0702 84.5316 20.9567 84.8807 20.8357C86.6389 20.2256 88.6272 19.5374 89.7959 20.4021C90.3954 20.8433 90.6788 21.6197 90.6358 22.7063C90.5649 24.5491 89.3962 26.1801 87.2561 27.4305C86.673 27.767 86.0649 28.0586 85.4373 28.3028C86.4491 28.8751 87.7393 30.0145 88.2781 32.2229C88.2963 32.3471 88.2673 32.4737 88.1968 32.5778C88.1262 32.6818 88.0193 32.7559 87.8969 32.7856C87.7744 32.8152 87.6453 32.7982 87.5347 32.738C87.4242 32.6778 87.3402 32.5786 87.2991 32.4599C86.5402 29.3162 83.9954 28.7742 83.8891 28.7515C83.7788 28.7275 83.6798 28.6673 83.6077 28.5806C83.5357 28.494 83.4948 28.3858 83.4916 28.2733C83.4884 28.1608 83.5231 28.0505 83.5901 27.9599C83.657 27.8693 83.7525 27.8037 83.8613 27.7734C83.9195 27.7583 89.4898 26.3062 89.6315 22.6685C89.6593 21.9323 89.5126 21.4407 89.1989 21.2063C88.4552 20.6593 86.6566 21.2819 85.2121 21.7811C84.8529 21.9071 84.5139 22.0332 84.2003 22.1239C83.4085 22.376 82.6521 22.5449 81.9236 22.7088C80.0415 23.1348 78.5566 23.4651 77.5143 24.8516C76.8187 25.7718 76.7757 27.8768 77.403 30.1885C78.0557 32.601 79.2851 34.7842 80.6132 35.8884C83.5071 38.2934 87.5597 38.8631 91.1872 37.3757C96.5375 35.185 98.0477 29.7297 97.1699 25.2953C97.1505 25.2282 97.1453 25.1577 97.1546 25.0885C97.1639 25.0192 97.1876 24.9526 97.2241 24.893C97.2606 24.8333 97.3092 24.7819 97.3667 24.7419C97.4242 24.702 97.4895 24.6744 97.5583 24.6609C97.6271 24.6474 97.6979 24.6483 97.7663 24.6635C97.8348 24.6788 97.8993 24.708 97.9558 24.7494C98.0123 24.7908 98.0595 24.8435 98.0945 24.904C98.1295 24.9646 98.1514 25.0317 98.159 25.1012C99.1152 29.9364 97.4482 35.8959 91.5818 38.3034C91.1487 38.4817 90.7052 38.6341 90.2538 38.7597" fill="black"/>
<path id="Vector_35" d="M90.2335 38.7623C88.4784 39.2714 86.625 39.346 84.8344 38.9796C83.0438 38.6132 81.3699 37.8169 79.958 36.6598C76.6947 33.9472 74.805 26.7549 76.6998 24.2516C77.9646 22.5777 79.7733 22.1668 81.6908 21.7307C82.3991 21.5718 83.1353 21.4055 83.8891 21.1685C84.1977 21.0702 84.5316 20.9567 84.8807 20.8357C86.6389 20.2256 88.6272 19.5374 89.7959 20.4021C90.3954 20.8433 90.6788 21.6197 90.6358 22.7063C90.5649 24.5491 89.3962 26.1801 87.2561 27.4305C86.673 27.767 86.0649 28.0586 85.4373 28.3028C86.4491 28.8751 87.7393 30.0145 88.2781 32.2229C88.2963 32.3471 88.2673 32.4737 88.1968 32.5778C88.1262 32.6818 88.0193 32.7559 87.8969 32.7856C87.7744 32.8152 87.6453 32.7982 87.5347 32.738C87.4242 32.6778 87.3402 32.5786 87.2991 32.4599C86.5402 29.3162 83.9954 28.7742 83.8891 28.7515C83.7788 28.7275 83.6798 28.6673 83.6077 28.5806C83.5357 28.494 83.4948 28.3858 83.4916 28.2733C83.4884 28.1608 83.5231 28.0505 83.5901 27.9599C83.657 27.8693 83.7525 27.8037 83.8613 27.7734C83.9195 27.7583 89.4898 26.3062 89.6315 22.6685C89.6593 21.9323 89.5126 21.4407 89.1989 21.2063C88.4552 20.6593 86.6566 21.2819 85.2121 21.7811C84.8529 21.9071 84.5139 22.0332 84.2003 22.1239C83.4085 22.376 82.6521 22.5449 81.9236 22.7088C80.0415 23.1348 78.5566 23.4651 77.5143 24.8516C76.8187 25.7718 76.7757 27.8768 77.403 30.1885C78.0557 32.601 79.2851 34.7842 80.6132 35.8884C83.5071 38.2934 87.5597 38.8631 91.1872 37.3757C96.5375 35.185 98.0477 29.7297 97.1699 25.2953C97.1505 25.2282 97.1453 25.1577 97.1546 25.0885C97.1639 25.0192 97.1876 24.9526 97.2241 24.893C97.2606 24.8333 97.3092 24.7819 97.3667 24.7419C97.4242 24.702 97.4895 24.6744 97.5583 24.6609C97.6271 24.6474 97.6979 24.6483 97.7664 24.6635C97.8348 24.6788 97.8993 24.708 97.9558 24.7494C98.0123 24.7908 98.0595 24.8435 98.0945 24.904C98.1295 24.9646 98.1514 25.0317 98.159 25.1012C99.1152 29.9364 97.4482 35.8959 91.5818 38.3034C91.1421 38.4834 90.6919 38.6366 90.2335 38.7623Z" stroke="#231F20" stroke-width="0.92" stroke-miterlimit="10"/>
</g>
</g>
</g>
</g>
<defs>
<clipPath id="clip0_168_1346">
<rect width="130" height="126" fill="white"/>
</clipPath>
</defs>
</svg>
