<svg width="103" height="130" viewBox="0 0 103 130" fill="none" xmlns="http://www.w3.org/2000/svg">
<g id="&#208;&#160;&#208;&#181;&#209;&#129;&#209;&#131;&#209;&#128;&#209;&#129; 1 7" clip-path="url(#clip0_168_1277)">
<g id="&#208;&#161;&#208;&#187;&#208;&#190;&#208;&#185; 2">
<g id="&#208;&#161;&#208;&#187;&#208;&#190;&#208;&#185; 1">
<g id="Group">
<path id="Vector" d="M62.2483 4.32644L65.2297 16.0842L73.7612 7.3626C77.4003 3.64948 83.6519 7.21245 82.2128 12.1802L78.8471 23.8337L90.6592 20.5023C95.6832 19.0873 99.2939 25.2513 95.5388 28.8448L86.7107 37.2712L98.6259 40.2106C103.704 41.4628 103.704 48.5862 98.6259 49.8408L86.7107 52.7828L95.5388 61.2118C99.3017 64.8028 95.6936 70.9718 90.6592 69.5517L78.8471 66.2228L82.2231 77.8763C83.6622 82.8441 77.4106 86.4045 73.7715 82.6914L65.2297 73.9799L62.2483 85.7377C60.9768 90.7488 53.758 90.7488 52.4865 85.7377L49.518 73.985L40.9787 82.6965C37.3371 86.4096 31.0855 82.8492 32.5246 77.8814L35.9006 66.2279L24.0885 69.5568C19.0567 70.9769 15.446 64.8078 19.2089 61.2169L28.037 52.7879L16.1217 49.8459C11.0436 48.5912 11.0436 41.4679 16.1217 40.2157L28.037 37.2712L19.196 28.8448C15.4331 25.2513 19.0438 19.0873 24.0781 20.5023L35.8877 23.8337L32.5117 12.1802C31.0726 7.21245 37.3242 3.64948 40.9658 7.3626L49.518 16.0741L52.4865 4.32644C53.758 -0.68462 60.9768 -0.68462 62.2483 4.32644Z" fill="#FFC800"/>
<path id="Vector_2" d="M62.2483 4.32645L65.2297 16.0842L73.7612 7.36261C77.4003 3.64948 83.6519 7.21245 82.2128 12.1802L78.8471 23.8337L90.6592 20.5023C95.6832 19.0873 99.2939 25.2513 95.5388 28.8448L86.7107 37.2712L98.6259 40.2106C103.704 41.4628 103.704 48.5862 98.6259 49.8408L86.7107 52.7828L95.5388 61.2118C99.3017 64.8028 95.6935 70.9718 90.6592 69.5517L78.8471 66.2229L82.2231 77.8763C83.6622 82.8441 77.4106 86.4045 73.7715 82.6914L65.2297 73.9799L62.2483 85.7377C60.9768 90.7488 53.758 90.7488 52.4865 85.7377L49.518 73.985L40.9787 82.6965C37.3371 86.4096 31.0855 82.8492 32.5246 77.8814L35.9006 66.2279L24.0885 69.5568C19.0567 70.9769 15.446 64.8078 19.2089 61.2169L28.037 52.7879L16.1217 49.8459C11.0436 48.5912 11.0436 41.4679 16.1217 40.2157L28.037 37.2712L19.196 28.8448C15.4331 25.2513 19.0438 19.0873 24.0781 20.5023L35.8877 23.8337L32.5117 12.1802C31.0726 7.21245 37.3242 3.64948 40.9658 7.36261L49.518 16.0741L52.4865 4.32645C53.758 -0.694794 60.9768 -0.694794 62.2483 4.32645Z" stroke="white" stroke-width="4.39" stroke-miterlimit="10"/>
<path id="Vector_3" d="M34.6626 34.4131H44.463V36.7341H36.8084V41.0605H39.7743C43.5294 41.0605 45.4972 42.9769 45.4972 46.0283C45.4972 49.0798 43.5294 51.5509 39.7743 51.5509H34.6626V34.4131ZM36.8084 42.8369V49.2426H39.4158C41.8195 49.2426 43.3515 48.133 43.3515 46.0385C43.3515 43.944 41.8195 42.8369 39.4158 42.8369H36.8084Z" fill="black"/>
<path id="Vector_4" d="M52.9094 51.7623C49.4586 51.7623 47.1323 48.9628 47.1323 45.4584C47.1323 41.9539 49.4535 39.1799 52.9094 39.1799C56.4092 39.1799 58.6324 41.903 58.6324 45.634V45.9368H49.2033C49.3555 48.2069 50.7507 49.6958 52.9094 49.6958C54.7999 49.6958 55.9243 48.9883 56.4866 47.8532H58.3512C57.789 49.8714 56.257 51.7623 52.9094 51.7623ZM49.26 44.476H56.5175C56.2596 42.6945 55.1893 41.2464 52.9068 41.2464C50.8436 41.2464 49.5541 42.4833 49.2523 44.476" fill="black"/>
<path id="Vector_5" d="M66.8623 39.1926C70.3878 39.1926 72.5362 41.7885 72.5362 45.3693C72.5362 48.9501 70.4136 51.775 66.8881 51.775C65.0466 51.775 63.7184 51.1464 62.875 49.739V56.6105H60.8298V39.381H62.7744V41.4984C63.5482 39.9358 64.8377 39.1799 66.8623 39.1799V39.1926ZM70.4729 45.3566C70.4729 42.8599 69.1705 41.2973 66.5115 41.2973C64.7062 41.2973 63.4708 41.8063 62.8828 42.9617V48.0313C63.4708 49.1918 64.7242 49.6449 66.5373 49.6449C69.1963 49.6449 70.4729 47.8634 70.4729 45.3566Z" fill="black"/>
<path id="Vector_6" d="M78.0296 51.5613H77.5447L73.2764 39.3811H75.4737L78.8471 49.2174L82.2721 39.3811H84.2142L79.2056 53.5032C78.3623 55.8751 77.3152 56.7302 75.7291 56.7302C75.2446 56.7318 74.7624 56.6641 74.2977 56.5291V54.4626C74.6917 54.5552 75.0946 54.6055 75.4995 54.6128C76.4976 54.6128 77.1346 54.1343 77.5628 52.872L78.0296 51.5613Z" fill="black"/>
<path id="Vector_7" d="M5.98341 85.0945L0.694946 113.034L89.0726 129.323L94.3611 101.384L5.98341 85.0945Z" fill="#FFC800"/>
<path id="Vector_8" d="M5.98341 85.0945L0.694946 113.034L89.0726 129.323L94.3611 101.384L5.98341 85.0945Z" stroke="white" stroke-width="4.61" stroke-miterlimit="10"/>
<path id="Vector_9" d="M85.6816 111.926C85.2509 114.203 82.3546 117.362 80.3506 116.993C78.976 116.738 78.3287 115.753 78.602 114.313C79.0688 111.842 81.8981 109.047 83.9897 109.434C85.4701 109.706 85.9472 110.528 85.6816 111.926ZM73.5754 116.102C73.7508 115.532 74.295 114.066 74.9269 112.524C75.0114 112.543 75.0981 112.551 75.1848 112.549C75.8347 112.58 76.6162 112.613 77.3254 112.679C77.1661 113.143 77.0386 113.618 76.9437 114.099C76.4846 116.527 77.7432 118.095 80.0386 118.514C82.8497 119.023 86.7983 115.914 87.474 112.343C87.8918 110.129 86.6332 108.452 84.2579 108.016C81.8388 107.571 79.4454 108.91 78.0398 111.208C77.2429 111.129 76.3092 111.068 75.5252 111.035C76.1081 109.63 76.6729 108.309 76.9618 107.739C77.1784 107.311 77.0649 106.958 76.4743 106.739C75.9585 106.556 75.3859 106.65 75.1641 107.23C74.3053 109.498 72.6908 113.626 71.7804 115.572C71.5225 116.168 71.7598 116.636 72.3659 116.771C72.9281 116.896 73.3975 116.736 73.5754 116.104V116.102ZM63.0967 112.742C63.2179 112.099 63.8008 111.76 65.7454 111.607L68.1929 111.414L67.494 113.086C66.2999 113.557 64.7679 113.918 63.9401 113.766C63.3933 113.666 63.0013 113.239 63.0967 112.748V112.742ZM68.4457 115.336L70.7668 109.622C71.832 106.973 70.9242 105.449 68.6365 105.026C67.1137 104.774 65.5502 104.931 64.1103 105.482C63.4552 105.718 63.285 106.154 63.5377 106.601C63.7905 107.049 64.198 107.278 64.7989 106.968C65.9294 106.418 67.2134 106.255 68.4483 106.505C69.7378 106.741 69.9519 107.248 69.222 109.027L68.7655 110.121L65.6706 110.215C62.9291 110.289 61.4358 110.905 61.1521 112.409C60.8684 113.913 62.0316 115.018 63.6461 115.315C64.7112 115.511 65.6603 115.153 66.9421 114.455L66.826 114.71C66.5836 115.287 66.7255 115.847 67.2696 115.949C67.8138 116.051 68.2162 115.949 68.4663 115.346L68.4457 115.336ZM58.9599 113.282C59.535 111.187 60.0225 107.072 60.0534 105.477C60.0715 104.433 60.0199 103.98 59.7955 103.715C59.572 103.481 59.2766 103.325 58.9547 103.273C58.7602 103.237 58.5598 103.246 58.3695 103.3C58.1793 103.354 58.0043 103.451 57.8586 103.583C56.1332 105.199 52.1847 108.963 50.0312 110.994C49.3735 111.607 49.7733 112.368 50.3149 112.47C50.774 112.554 51.0319 112.379 51.4213 111.984C53.0951 110.289 56.5407 106.853 58.5111 105.016C58.2532 107.436 57.691 110.668 57.0565 112.709C56.8193 113.491 56.9379 113.934 57.6549 114.066C58.3719 114.198 58.751 114.002 58.9444 113.282H58.9599ZM47.9705 102.771C48.7442 102.916 49.0692 103.397 48.9557 103.998C48.7649 105.016 46.8254 105.609 43.3746 105.372C44.5481 103.698 46.4695 102.494 47.9705 102.771ZM47.7616 109.23C46.73 109.928 45.5049 110.437 43.9162 110.144C42.6525 109.912 42.1109 108.945 42.3456 107.719C42.4206 107.321 42.5391 106.933 42.6989 106.561C42.8511 106.593 43.0054 106.614 43.1606 106.624C47.6997 106.948 50.2633 106.624 50.6888 104.362C50.9468 103.008 50.0131 101.746 48.2258 101.417C45.002 100.824 41.2134 103.817 40.5377 107.385C40.1379 109.493 41.3423 111.228 43.5216 111.628C45.3734 111.971 47.0885 111.485 48.6333 110.592C49.2652 110.218 49.2833 109.778 49.0357 109.419C48.9695 109.318 48.8823 109.232 48.7799 109.167C48.6775 109.102 48.5622 109.059 48.4417 109.041C48.3212 109.023 48.1982 109.031 48.081 109.063C47.9637 109.096 47.8549 109.153 47.7616 109.23ZM30.6289 107.398C32.6122 105.138 34.7296 102.881 36.8187 101.173C36.4885 103.27 35.836 106.243 35.0984 108.243C33.5948 107.966 32.117 107.67 30.6366 107.398H30.6289ZM36.9167 113.16C37.5397 112.177 38.1013 111.157 38.5982 110.106C38.9386 109.391 38.9644 108.884 38.0514 108.714C37.6981 108.673 37.3499 108.607 36.976 108.561C37.8554 105.698 38.5647 102.669 38.8071 100.417C38.8793 99.8089 38.6988 99.4424 38.0979 99.2872C37.8682 99.2285 37.6332 99.1927 37.3964 99.1803C36.93 99.148 36.4687 99.2928 36.1068 99.5849C33.8244 101.412 30.7888 104.945 28.8674 107.105C28.5631 107.049 28.2536 107.014 27.9441 106.981C27.3793 106.876 26.9357 107.194 26.6546 107.698C26.2264 108.533 25.9015 109.297 25.4734 110.129C25.2155 110.704 25.2954 111.187 25.8241 111.373C26.3528 111.559 26.7887 111.396 27.0724 110.846C27.3872 110.072 27.7418 109.313 28.1349 108.574C31.0209 108.928 34.0952 109.605 36.8083 110.037C36.3561 110.877 35.8558 111.691 35.3099 112.475C35.052 112.895 35.0339 113.338 35.6581 113.608C36.1739 113.837 36.5685 113.687 36.9167 113.15V113.16ZM17.2694 105.947C18.0611 103.911 19.833 99.7911 20.9987 97.549C21.352 96.8796 20.7047 96.2485 20.225 96.1594C19.9242 96.1153 19.6172 96.1775 19.3584 96.335C17.2694 97.4853 13.295 100.379 10.5277 102.603C11.5103 100.628 12.8643 98.119 13.7051 96.5386C13.994 95.9685 13.9217 95.5206 13.1609 95.3705C12.6451 95.2737 12.3098 95.457 12.0261 96.0067C10.9532 98.1012 9.135 101.748 8.18849 103.774C7.87126 104.494 8.54182 104.998 9.02152 105.085C9.1821 105.112 9.34689 105.104 9.50363 105.059C9.66036 105.015 9.80501 104.937 9.92677 104.83C12.666 102.616 15.5449 100.576 18.546 98.7222C17.5144 100.957 16.2068 103.698 15.4356 105.268C15.1468 105.838 15.3376 106.385 16.0778 106.523C16.6427 106.627 17.0476 106.523 17.2694 105.94" fill="black"/>
<path id="Vector_10" d="M56.1977 97.0731C52.2182 94.9608 50.008 91.8533 49.6082 87.8399C49.2781 84.4754 50.3329 81.2713 51.1557 79.1539C51.8778 77.2961 53.0435 76.0439 54.6219 75.4331C55.6921 75.0372 56.8523 74.9403 57.9747 75.1532L62.7511 66.3985C63.0356 65.8928 63.4306 65.4559 63.9075 65.1196C64.3844 64.7833 64.9312 64.5559 65.5082 64.4541C66.5574 64.2355 67.6509 64.3821 68.603 64.8689C70.6792 65.9709 71.5818 68.6151 70.5425 70.529L68.0434 75.1099L68.1362 75.1583C68.9435 75.5896 69.5763 76.2814 69.9287 77.1179C70.4995 77.1524 71.0558 77.3096 71.5586 77.5786C72.4441 78.0464 73.1176 78.8273 73.4439 79.7647C73.874 79.8295 74.2899 79.9655 74.6741 80.1668C76.3789 81.0728 77.0572 83.1113 76.3299 85.1295C75.8657 86.4173 75.4685 87.2851 74.0294 89.8912C72.6264 92.4361 70.3826 95.8006 67.6591 97.4217C64.3244 99.4043 60.3629 99.2847 56.2003 97.0731" fill="#FA3200"/>
<path id="Vector_11" d="M74.6537 84.5723C75.1308 83.2438 74.7465 81.9789 73.6968 81.4216C73.1737 81.146 72.563 81.0803 71.9921 81.2384C72.0167 80.7681 71.9067 80.3005 71.6745 79.8891C71.4423 79.4777 71.0975 79.1392 70.6793 78.9123C70.3814 78.754 70.0539 78.6575 69.7169 78.6286C69.3798 78.5997 69.0403 78.6391 68.7192 78.7443L68.678 78.7596C68.6778 78.3112 68.5557 77.8711 68.3243 77.4852C68.093 77.0993 67.7608 76.7818 67.3627 76.5658C66.8896 76.3142 66.3454 76.2247 65.8152 76.3113L69.119 70.2415C69.7044 69.1624 69.2686 67.3759 67.8063 66.5971C67.1699 66.2771 66.4415 66.1828 65.743 66.3299C65.3805 66.3885 65.0357 66.5263 64.7341 66.7333C64.4325 66.9402 64.1815 67.2111 63.9996 67.526L58.8569 76.9552C58.1528 76.7134 56.7679 76.3825 55.4087 76.9094C54.2559 77.3547 53.3893 78.3065 52.8296 79.7343C52.0843 81.6583 51.1249 84.5697 51.4163 87.5397C51.749 90.95 53.6575 93.6019 57.0902 95.4291C60.6751 97.3328 64.0537 97.4651 66.8365 95.8007C69.3382 94.3144 71.4659 90.9118 72.5105 89.0158C73.8593 86.5701 74.2307 85.7659 74.6537 84.5926V84.5723ZM71.5975 88.5246C70.5994 90.329 68.5877 93.5586 66.2949 94.9227C63.801 96.4064 60.8789 96.2715 57.5829 94.5257C54.488 92.8791 52.7548 90.497 52.4583 87.4481C52.1874 84.6868 53.0979 81.9382 53.8071 80.1109C54.2507 78.9657 54.9161 78.2124 55.7827 77.8764C56.7395 77.5023 57.7608 77.7008 58.3617 77.8764L56.8349 80.6759C56.8026 80.7352 56.7824 80.8003 56.7755 80.8673C56.7686 80.9343 56.7752 81.002 56.7948 81.0665C56.8145 81.131 56.8468 81.1911 56.89 81.2433C56.9331 81.2955 56.9863 81.3388 57.0464 81.3707C57.1065 81.4026 57.1724 81.4225 57.2403 81.4293C57.3083 81.4361 57.3769 81.4296 57.4422 81.4102C57.5076 81.3909 57.5685 81.359 57.6214 81.3164C57.6743 81.2738 57.7181 81.2213 57.7505 81.162L64.9229 68.0121C65.0362 67.8334 65.1868 67.6806 65.3647 67.5639C65.5426 67.4472 65.7437 67.3692 65.9545 67.3351C66.4152 67.2374 66.8958 67.2957 67.3188 67.5006C68.059 67.8925 68.6083 69.0072 68.2086 69.7529L63.8835 77.6703L62.0988 80.9304C62.0331 81.0502 62.0184 81.1909 62.0578 81.3214C62.0972 81.4519 62.1876 81.5617 62.309 81.6265C62.4304 81.6913 62.5729 81.7058 62.7052 81.6669C62.8375 81.628 62.9487 81.5389 63.0144 81.4191L64.7991 78.1462C64.9954 77.7788 65.3267 77.4993 65.725 77.3649C65.9109 77.303 66.1076 77.2792 66.3032 77.2949C66.4988 77.3107 66.689 77.3657 66.8623 77.4565C67.039 77.5563 67.1939 77.6894 67.3183 77.8484C67.4427 78.0073 67.5341 78.1889 67.5873 78.3828C67.6405 78.5766 67.6544 78.7789 67.6283 78.9781C67.6021 79.1772 67.5364 79.3693 67.4349 79.5434L67.177 79.999L65.4825 83.1064C65.4172 83.2265 65.4029 83.3673 65.4428 83.4979C65.4827 83.6284 65.5735 83.738 65.6953 83.8024C65.817 83.8669 65.9598 83.881 66.092 83.8416C66.2243 83.8022 66.3353 83.7126 66.4007 83.5925L68.0925 80.485C68.2876 80.1167 68.6208 79.8382 69.021 79.7088C69.2087 79.6466 69.4073 79.6229 69.6047 79.6391C69.802 79.6552 69.9939 79.711 70.1687 79.803C70.3453 79.9028 70.5003 80.0359 70.6247 80.1948C70.7491 80.3538 70.8405 80.5354 70.8937 80.7292C70.9469 80.9231 70.9608 81.1254 70.9346 81.3245C70.9084 81.5237 70.8427 81.7158 70.7412 81.8899L70.4472 82.4294L68.8791 85.3027C68.8138 85.4225 68.7994 85.563 68.8391 85.6933C68.8787 85.8236 68.9692 85.933 69.0906 85.9975C69.212 86.0619 69.3544 86.0762 69.4865 86.037C69.6185 85.9979 69.7294 85.9086 69.7947 85.7888L71.3628 82.9155C71.5353 82.5916 71.8284 82.3462 72.1803 82.2309C72.345 82.1765 72.5191 82.156 72.692 82.1704C72.865 82.1848 73.0332 82.234 73.1862 82.3149C73.9006 82.6941 73.8851 83.5874 73.653 84.216C73.2816 85.2518 72.9721 85.9695 71.5897 88.4941" fill="black"/>
</g>
</g>
</g>
</g>
<defs>
<clipPath id="clip0_168_1277">
<rect width="103" height="130" fill="white"/>
</clipPath>
</defs>
</svg>
