<svg width="302" height="165" viewBox="0 0 302 165" fill="none" xmlns="http://www.w3.org/2000/svg">
<g id="Frame 363">
<g id="Vector">
<path d="M7.86296 30.4891H2.10445V0H8.80772L17.4905 15.5136L26.1732 0H32.6066V30.4891H26.4432V11.0747L18.5702 25.1984H15.7809L7.86296 11.0747V30.4891Z" fill="black"/>
<path d="M63.4021 8.16033V30.4891H57.7336V8.16033H63.4021ZM43.7422 8.16033V15.3791H47.0264C49.6057 15.3791 51.6902 15.9171 53.2798 16.9932C54.8993 18.0693 55.7091 19.8927 55.7091 22.4633C55.7091 24.2568 55.3192 25.7514 54.5394 26.947C53.7896 28.1128 52.7549 28.9946 51.4352 29.5924C50.1456 30.1902 48.6909 30.4891 47.0714 30.4891H38.0737V8.16033H43.7422ZM46.8464 19.7283H43.7422V24.8845H46.7564C47.9861 24.8845 48.8709 24.6603 49.4108 24.212C49.9806 23.7636 50.2655 23.1209 50.2655 22.284C50.2655 21.447 50.0106 20.8193 49.5007 20.4008C49.0209 19.9524 48.1361 19.7283 46.8464 19.7283Z" fill="black"/>
<path d="M92.4287 30.4891V14.1236H84.6008V30.4891H78.9322V8.16033H98.0973V30.4891H92.4287Z" fill="black"/>
<path d="M108.451 12.106C108.96 10.8804 109.815 9.83424 111.015 8.96739C112.245 8.10054 113.744 7.66712 115.514 7.66712C117.373 7.66712 119.053 8.11549 120.552 9.01223C122.052 9.87908 123.252 11.1793 124.152 12.913C125.051 14.6168 125.501 16.7092 125.501 19.1902C125.501 21.6712 125.051 23.7935 124.152 25.5571C123.282 27.3207 122.097 28.6658 120.597 29.5924C119.098 30.519 117.418 30.9823 115.559 30.9823C113.849 30.9823 112.455 30.6834 111.375 30.0856C110.295 29.4878 109.41 28.6359 108.721 27.5299V39.4565H103.052V8.16033H108.451V12.106ZM114.209 24.8845C116.039 24.8845 117.433 24.4062 118.393 23.4497C119.383 22.4633 119.878 21.0584 119.878 19.2351C119.878 17.4117 119.383 16.0516 118.393 15.1549C117.433 14.2283 116.039 13.7649 114.209 13.7649C112.829 13.7649 111.675 13.9443 110.745 14.303C109.815 14.6617 109.14 15.2446 108.721 16.0516V22.6875C109.14 23.4946 109.815 24.0625 110.745 24.3913C111.675 24.7201 112.829 24.8845 114.209 24.8845Z" fill="black"/>
<path d="M135.081 8.16033V21.2079L143.584 8.16033H148.937V30.4891H143.269V17.3519L134.901 30.4891H129.412V8.16033H135.081Z" fill="black"/>
<path d="M161.756 25.4674C163.076 25.4674 164.081 25.2731 164.771 24.8845C165.461 24.466 165.805 23.8383 165.805 23.0014C165.805 22.2242 165.521 21.6562 164.951 21.2976C164.411 20.9389 163.601 20.7595 162.521 20.7595H159.147V17.3967H162.296C163.346 17.3967 164.111 17.2174 164.591 16.8587C165.071 16.4701 165.311 15.947 165.311 15.2894C165.311 13.8247 164.126 13.0924 161.756 13.0924C160.557 13.0924 159.597 13.3016 158.877 13.7201C158.187 14.1087 157.738 14.7215 157.528 15.5584H152.804C153.044 13.0774 153.973 11.1345 155.593 9.72962C157.243 8.32473 159.387 7.62228 162.026 7.62228C164.696 7.62228 166.795 8.20516 168.325 9.37092C169.884 10.5068 170.664 12.1359 170.664 14.2582C170.664 15.3641 170.379 16.3207 169.809 17.1277C169.27 17.9348 168.505 18.5027 167.515 18.8315C168.655 19.1304 169.554 19.6984 170.214 20.5353C170.904 21.3424 171.249 22.4035 171.249 23.7187C171.249 25.2731 170.844 26.6033 170.034 27.7092C169.255 28.7853 168.16 29.6073 166.75 30.1753C165.371 30.7432 163.781 31.0272 161.981 31.0272C159.162 31.0272 156.943 30.3247 155.323 28.9198C153.734 27.4851 152.849 25.5272 152.669 23.0462H157.483C157.663 23.8832 158.097 24.4959 158.787 24.8845C159.477 25.2731 160.467 25.4674 161.756 25.4674Z" fill="black"/>
<path d="M195.124 23.0014C194.825 24.4959 194.24 25.856 193.37 27.0815C192.5 28.3071 191.345 29.2785 189.906 29.9959C188.466 30.6834 186.727 31.0272 184.687 31.0272C182.588 31.0272 180.728 30.5489 179.109 29.5924C177.489 28.606 176.214 27.2459 175.285 25.5122C174.355 23.7486 173.89 21.7011 173.89 19.3696C173.89 17.038 174.355 14.9905 175.285 13.2269C176.244 11.4633 177.549 10.0883 179.199 9.1019C180.848 8.11549 182.723 7.62228 184.822 7.62228C186.952 7.62228 188.811 8.10054 190.401 9.05706C192.02 9.98369 193.28 11.3139 194.18 13.0476C195.109 14.7812 195.574 16.8736 195.574 19.3247C195.574 19.534 195.559 19.788 195.529 20.087C195.529 20.356 195.514 20.5951 195.484 20.8043H179.514C179.753 22.3587 180.338 23.5394 181.268 24.3465C182.198 25.1236 183.383 25.5122 184.822 25.5122C186.232 25.5122 187.356 25.288 188.196 24.8397C189.036 24.3614 189.636 23.7486 189.996 23.0014H195.124ZM184.822 13.0924C183.503 13.0924 182.378 13.4511 181.448 14.1685C180.548 14.856 179.933 15.8872 179.604 17.2622H189.996C189.786 15.947 189.216 14.9307 188.286 14.2133C187.386 13.466 186.232 13.0924 184.822 13.0924Z" fill="black"/>
<path d="M204.71 12.106C205.22 10.8804 206.074 9.83424 207.274 8.96739C208.504 8.10054 210.003 7.66712 211.773 7.66712C213.632 7.66712 215.312 8.11549 216.812 9.01223C218.311 9.87908 219.511 11.1793 220.411 12.913C221.311 14.6168 221.76 16.7092 221.76 19.1902C221.76 21.6712 221.311 23.7935 220.411 25.5571C219.541 27.3207 218.356 28.6658 216.857 29.5924C215.357 30.519 213.677 30.9823 211.818 30.9823C210.108 30.9823 208.714 30.6834 207.634 30.0856C206.554 29.4878 205.67 28.6359 204.98 27.5299V39.4565H199.311V8.16033H204.71V12.106ZM210.468 24.8845C212.298 24.8845 213.692 24.4062 214.652 23.4497C215.642 22.4633 216.137 21.0584 216.137 19.2351C216.137 17.4117 215.642 16.0516 214.652 15.1549C213.692 14.2283 212.298 13.7649 210.468 13.7649C209.089 13.7649 207.934 13.9443 207.004 14.303C206.074 14.6617 205.4 15.2446 204.98 16.0516V22.6875C205.4 23.4946 206.074 24.0625 207.004 24.3913C207.934 24.7201 209.089 24.8845 210.468 24.8845Z" fill="black"/>
<path d="M251 8.16033V30.4891H245.331V8.16033H251ZM231.34 8.16033V15.3791H234.624C237.204 15.3791 239.288 15.9171 240.878 16.9932C242.497 18.0693 243.307 19.8927 243.307 22.4633C243.307 24.2568 242.917 25.7514 242.137 26.947C241.387 28.1128 240.353 28.9946 239.033 29.5924C237.743 30.1902 236.289 30.4891 234.669 30.4891H225.672V8.16033H231.34ZM234.444 19.7283H231.34V24.8845H234.354C235.584 24.8845 236.469 24.6603 237.009 24.212C237.578 23.7636 237.863 23.1209 237.863 22.284C237.863 21.447 237.608 20.8193 237.099 20.4008C236.619 19.9524 235.734 19.7283 234.444 19.7283Z" fill="black"/>
<path d="M12.0019 82.3007V68.2817H4.2339V82.3007H1.43463V65.457H14.8012V82.3007H12.0019Z" fill="black"/>
<path d="M22.1361 68.3863C22.6727 67.2936 23.3958 66.4915 24.3056 65.9801C25.2153 65.4454 26.3584 65.178 27.7347 65.178C29.3443 65.178 30.7322 65.55 31.8986 66.2939C33.065 67.0146 33.9514 68.026 34.5579 69.3279C35.1878 70.6066 35.5027 72.0713 35.5027 73.7219C35.5027 75.3726 35.1878 76.8721 34.5579 78.2206C33.9514 79.5457 33.065 80.6036 31.8986 81.394C30.7556 82.1845 29.3793 82.5797 27.7697 82.5797C26.51 82.5797 25.4253 82.3588 24.5155 81.9171C23.6058 81.4521 22.8593 80.7314 22.2761 79.755V89.2754H19.4768V65.457H22.1361V68.3863ZM27.2798 79.6504C29.0993 79.6504 30.4523 79.0924 31.3388 77.9764C32.2252 76.8605 32.6684 75.4423 32.6684 73.7219C32.6684 72.0015 32.2135 70.6414 31.3038 69.6417C30.4173 68.6188 29.0643 68.1073 27.2448 68.1073C26.0085 68.1073 24.9704 68.2933 24.1306 68.6653C23.2908 69.014 22.6727 69.5953 22.2761 70.409V77.4185C22.6727 78.2089 23.2908 78.7785 24.1306 79.1273C24.9937 79.476 26.0435 79.6504 27.2798 79.6504Z" fill="black"/>
<path d="M53.4697 77.1744C53.2131 78.1043 52.7932 78.9878 52.21 79.8247C51.6268 80.6384 50.8337 81.301 49.8306 81.8125C48.8276 82.324 47.5562 82.5797 46.0166 82.5797C44.4537 82.5797 43.0774 82.1961 41.8877 81.4289C40.698 80.6384 39.7649 79.5806 39.0884 78.2554C38.4353 76.9303 38.1087 75.4656 38.1087 73.8614C38.1087 72.234 38.4353 70.7693 39.0884 69.4674C39.7649 68.1655 40.698 67.1309 41.8877 66.3637C43.0774 65.5732 44.4537 65.178 46.0166 65.178C47.6262 65.178 49.0142 65.5616 50.1806 66.3288C51.3469 67.096 52.245 68.1538 52.8749 69.5023C53.528 70.8507 53.8546 72.3851 53.8546 74.1055C53.8546 74.1753 53.8546 74.245 53.8546 74.3148C53.8546 74.3845 53.8546 74.4542 53.8546 74.524H40.9429C41.0596 76.0817 41.5611 77.3371 42.4476 78.2903C43.3573 79.2435 44.547 79.7201 46.0166 79.7201C47.323 79.7201 48.3727 79.4992 49.1658 79.0575C49.9589 78.5925 50.5421 77.9648 50.9154 77.1744H53.4697ZM46.0166 68.0376C44.5937 68.0376 43.4506 68.4444 42.5875 69.2581C41.7477 70.0486 41.2229 71.1297 41.0129 72.5014H50.9504C50.7871 71.2692 50.3089 70.223 49.5157 69.3628C48.7459 68.4793 47.5796 68.0376 46.0166 68.0376Z" fill="black"/>
<path d="M60.1016 82.3007H57.3723V65.457H61.1863L66.26 75.2912L71.3337 65.457H74.9727V82.3007H72.1734V69.293L66.7149 79.5806H65.5602L60.1016 69.293V82.3007Z" fill="black"/>
<path d="M82.4509 65.457V77.7323L90.6038 65.457H93.3331V82.3007H90.5338V69.8161L82.241 82.3007H79.6517V65.457H82.4509Z" fill="black"/>
<path d="M100.835 65.457V77.7323L108.988 65.457H111.717V82.3007H108.918V69.8161L100.625 82.3007H98.0356V65.457H100.835Z" fill="black"/>
<path d="M4.40886 104.4H6.99819L3.11419 110.991L6.99819 117.652H4.44385L0 110.991L4.40886 104.4ZM9.69249 104.4H12.2818L8.39782 110.991L12.2818 117.652H9.72748L5.28363 110.991L9.69249 104.4Z" fill="black"/>
<path d="M28.0299 120.163L19.0373 107.539V120.163H16.098V96.4493H19.0373V107.086L28.0299 96.4493H31.3191L22.3964 107.016L31.8089 120.163H28.0299Z" fill="black"/>
<path d="M40.7617 103.04C42.4179 103.04 43.8526 103.424 45.0656 104.191C46.3019 104.958 47.2584 106.005 47.9348 107.33C48.6347 108.632 48.9846 110.096 48.9846 111.724C48.9846 113.351 48.6347 114.827 47.9348 116.153C47.2584 117.455 46.3019 118.501 45.0656 119.291C43.8526 120.058 42.4179 120.442 40.7617 120.442C39.1288 120.442 37.6942 120.058 36.4578 119.291C35.2215 118.501 34.2534 117.455 33.5536 116.153C32.8771 114.827 32.5388 113.351 32.5388 111.724C32.5388 110.096 32.8771 108.632 33.5536 107.33C34.2534 106.005 35.2215 104.958 36.4578 104.191C37.6942 103.424 39.1288 103.04 40.7617 103.04ZM40.7617 106.039C39.1288 106.039 37.8225 106.562 36.8427 107.609C35.863 108.655 35.3731 110.027 35.3731 111.724C35.3731 113.421 35.863 114.804 36.8427 115.874C37.8225 116.92 39.1288 117.443 40.7617 117.443C42.3946 117.443 43.7009 116.92 44.6807 115.874C45.6604 114.804 46.1503 113.421 46.1503 111.724C46.1503 110.027 45.6604 108.655 44.6807 107.609C43.7009 106.562 42.3946 106.039 40.7617 106.039Z" fill="black"/>
<path d="M56.339 121.976L56.9688 120.163H56.304L50.4605 103.319H53.4697L58.0885 116.92L62.7773 103.319H65.4366L58.5784 122.848C57.9952 124.476 57.3304 125.627 56.5839 126.301C55.8374 126.975 54.916 127.312 53.8196 127.312C53.423 127.312 53.0498 127.277 52.6999 127.207C52.3733 127.161 52.0934 127.103 51.8601 127.033V124.173C52.0934 124.22 52.35 124.266 52.6299 124.313C52.9098 124.359 53.2014 124.383 53.5047 124.383C54.1812 124.383 54.741 124.197 55.1843 123.825C55.6508 123.453 56.0357 122.837 56.339 121.976Z" fill="black"/>
<path d="M77.7553 120.163V112.317C77.3588 112.968 76.7989 113.502 76.0758 113.921C75.3759 114.339 74.4778 114.548 73.3815 114.548C71.4919 114.548 70.0573 114.037 69.0776 113.014C68.0978 111.991 67.6079 110.561 67.6079 108.725V103.319H70.4072V107.992C70.4072 109.271 70.7221 110.189 71.352 110.747C72.0051 111.305 72.9382 111.584 74.1513 111.584C74.8977 111.584 75.5859 111.503 76.2157 111.34C76.8689 111.154 77.3821 110.875 77.7553 110.503V103.319H80.5546V120.163H77.7553Z" fill="black"/>
<path d="M88.055 103.319V115.595L96.2078 103.319H98.9371V120.163H96.1379V107.678L87.845 120.163H85.2557V103.319H88.055Z" fill="black"/>
<path d="M114.242 120.163V112.84H106.439V120.163H103.64V103.319H106.439V110.015H114.242V103.319H117.041V120.163H114.242Z" fill="black"/>
<path d="M121.716 103.319H131.688V106.179H124.515V120.163H121.716V103.319Z" fill="black"/>
<path d="M150.129 120.163H143.585V103.319H149.849C151.575 103.319 152.951 103.703 153.978 104.47C155.004 105.237 155.517 106.33 155.517 107.748C155.517 108.632 155.296 109.387 154.852 110.015C154.409 110.643 153.826 111.05 153.103 111.235C154.059 111.398 154.829 111.817 155.412 112.491C156.019 113.142 156.322 114.037 156.322 115.176C156.322 116.804 155.785 118.047 154.712 118.908C153.663 119.745 152.135 120.163 150.129 120.163ZM146.315 106.039V110.503H149.849C150.782 110.503 151.493 110.329 151.983 109.98C152.496 109.608 152.753 109.027 152.753 108.236C152.753 107.492 152.531 106.946 152.088 106.597C151.645 106.225 150.945 106.039 149.989 106.039H146.315ZM146.315 112.421V117.443H149.849C151.155 117.443 152.088 117.245 152.648 116.85C153.231 116.432 153.523 115.792 153.523 114.932C153.523 114.049 153.231 113.409 152.648 113.014C152.065 112.619 151.155 112.421 149.919 112.421H146.315Z" fill="black"/>
<path d="M8.57278 140.903C10.229 140.903 11.6636 141.286 12.8767 142.053C14.113 142.821 15.0694 143.867 15.7459 145.192C16.4457 146.494 16.7956 147.959 16.7956 149.586C16.7956 151.213 16.4457 152.69 15.7459 154.015C15.0694 155.317 14.113 156.363 12.8767 157.154C11.6636 157.921 10.229 158.304 8.57278 158.304C6.93987 158.304 5.50524 157.921 4.26889 157.154C3.03255 156.363 2.06447 155.317 1.36465 154.015C0.688155 152.69 0.349909 151.213 0.349909 149.586C0.349909 147.959 0.688155 146.494 1.36465 145.192C2.06447 143.867 3.03255 142.821 4.26889 142.053C5.50524 141.286 6.93987 140.903 8.57278 140.903ZM8.57278 143.902C6.93987 143.902 5.63354 144.425 4.65379 145.471C3.67405 146.517 3.18418 147.889 3.18418 149.586C3.18418 151.283 3.67405 152.667 4.65379 153.736C5.63354 154.782 6.93987 155.305 8.57278 155.305C10.2057 155.305 11.512 154.782 12.4918 153.736C13.4715 152.667 13.9614 151.283 13.9614 149.586C13.9614 147.889 13.4715 146.517 12.4918 145.471C11.512 144.425 10.2057 143.902 8.57278 143.902Z" fill="black"/>
<path d="M23.0588 144.111C23.5953 143.018 24.3184 142.216 25.2282 141.705C26.138 141.17 27.281 140.903 28.6573 140.903C30.2669 140.903 31.6549 141.275 32.8212 142.019C33.9876 142.739 34.874 143.751 35.4805 145.053C36.1104 146.331 36.4253 147.796 36.4253 149.447C36.4253 151.097 36.1104 152.597 35.4805 153.945C34.874 155.27 33.9876 156.328 32.8212 157.119C31.6782 157.909 30.3019 158.304 28.6923 158.304C27.4326 158.304 26.3479 158.083 25.4381 157.642C24.5284 157.177 23.7819 156.456 23.1987 155.48V165H20.3994V141.182H23.0588V144.111ZM28.2024 155.375C30.0219 155.375 31.3749 154.817 32.2614 153.701C33.1478 152.585 33.591 151.167 33.591 149.447C33.591 147.726 33.1361 146.366 32.2264 145.366C31.3399 144.343 29.987 143.832 28.1674 143.832C26.9311 143.832 25.893 144.018 25.0532 144.39C24.2135 144.739 23.5953 145.32 23.1987 146.134V153.143C23.5953 153.934 24.2135 154.503 25.0532 154.852C25.9163 155.201 26.9661 155.375 28.2024 155.375Z" fill="black"/>
<path d="M40.116 141.182H50.0884V144.041H42.9153V158.025H40.116V141.182Z" fill="black"/>
<path d="M64.7887 158.095C63.9956 158.095 63.3424 157.874 62.8292 157.433C62.316 156.968 62.0128 156.27 61.9195 155.34C61.3363 156.27 60.6365 156.979 59.82 157.467C59.0269 157.932 58.0821 158.165 56.9857 158.165C55.5161 158.165 54.3264 157.781 53.4167 157.014C52.5069 156.247 52.052 155.108 52.052 153.596C52.052 152.643 52.227 151.853 52.5769 151.225C52.9268 150.574 53.4517 150.028 54.1515 149.586C54.8513 149.144 55.7144 148.726 56.7408 148.331L61.7445 146.378C61.6512 145.401 61.278 144.727 60.6248 144.355C59.995 143.983 59.2368 143.797 58.3504 143.797C57.4173 143.797 56.6242 143.995 55.971 144.39C55.3412 144.762 54.9563 145.355 54.8163 146.168H52.192C52.3553 144.936 52.7402 143.937 53.3467 143.169C53.9532 142.402 54.6997 141.833 55.5861 141.461C56.4725 141.089 57.394 140.903 58.3504 140.903C60.2399 140.903 61.7445 141.402 62.8642 142.402C63.9839 143.379 64.5321 144.913 64.5088 147.005L64.4388 153.457C64.4388 154.131 64.5321 154.596 64.7187 154.852C64.9054 155.108 65.2086 155.236 65.6285 155.236H66.2933V158.025C66.0601 158.049 65.8035 158.06 65.5235 158.06C65.2669 158.083 65.022 158.095 64.7887 158.095ZM54.8513 153.108C54.8513 153.875 55.1079 154.445 55.6211 154.817C56.1576 155.166 56.8924 155.34 57.8255 155.34C58.6653 155.34 59.4234 155.224 60.0999 154.991C60.7764 154.736 61.3013 154.399 61.6745 153.98L61.7445 148.505L58.6303 149.76C57.2773 150.295 56.3093 150.795 55.7261 151.26C55.1429 151.725 54.8513 152.341 54.8513 153.108Z" fill="black"/>
<path d="M79.7635 158.025V150.702H71.9605V158.025H69.1612V141.182H71.9605V147.877H79.7635V141.182H82.5628V158.025H79.7635Z" fill="black"/>
<path d="M90.0369 141.182V153.457L98.1898 141.182H100.919V158.025H98.1198V145.541L89.8269 158.025H87.2376V141.182H90.0369Z" fill="black"/>
<path d="M110.94 155.445C112.06 155.445 112.981 155.224 113.704 154.782C114.428 154.34 114.789 153.678 114.789 152.794C114.789 151.911 114.474 151.283 113.844 150.911C113.238 150.516 112.351 150.318 111.185 150.318H108.666V148.4H111.115C112.188 148.4 112.981 148.203 113.494 147.808C114.031 147.389 114.299 146.808 114.299 146.064C114.299 144.529 113.215 143.762 111.045 143.762C109.972 143.762 109.086 143.995 108.386 144.46C107.709 144.925 107.289 145.599 107.126 146.482H104.642C104.875 144.739 105.563 143.379 106.706 142.402C107.873 141.402 109.342 140.903 111.115 140.903C112.865 140.903 114.264 141.321 115.314 142.158C116.387 142.995 116.924 144.169 116.924 145.68C116.924 146.54 116.667 147.296 116.154 147.947C115.664 148.575 115.046 148.982 114.299 149.168C115.256 149.33 116.014 149.749 116.574 150.423C117.157 151.097 117.448 151.969 117.448 153.038C117.448 154.178 117.157 155.143 116.574 155.933C115.99 156.723 115.209 157.316 114.229 157.712C113.273 158.107 112.2 158.304 111.01 158.304C109.237 158.304 107.756 157.851 106.566 156.944C105.4 156.014 104.723 154.596 104.537 152.69H107.021C107.138 153.62 107.534 154.317 108.211 154.782C108.887 155.224 109.797 155.445 110.94 155.445Z" fill="black"/>
<path d="M132.755 158.095C131.961 158.095 131.308 157.874 130.795 157.433C130.282 156.968 129.979 156.27 129.885 155.34C129.302 156.27 128.602 156.979 127.786 157.467C126.993 157.932 126.048 158.165 124.952 158.165C123.482 158.165 122.292 157.781 121.382 157.014C120.473 156.247 120.018 155.108 120.018 153.596C120.018 152.643 120.193 151.853 120.543 151.225C120.893 150.574 121.417 150.028 122.117 149.586C122.817 149.144 123.68 148.726 124.707 148.331L129.71 146.378C129.617 145.401 129.244 144.727 128.591 144.355C127.961 143.983 127.203 143.797 126.316 143.797C125.383 143.797 124.59 143.995 123.937 144.39C123.307 144.762 122.922 145.355 122.782 146.168H120.158C120.321 144.936 120.706 143.937 121.312 143.169C121.919 142.402 122.665 141.833 123.552 141.461C124.438 141.089 125.36 140.903 126.316 140.903C128.206 140.903 129.71 141.402 130.83 142.402C131.95 143.379 132.498 144.913 132.475 147.005L132.405 153.457C132.405 154.131 132.498 154.596 132.685 154.852C132.871 155.108 133.174 155.236 133.594 155.236H134.259V158.025C134.026 158.049 133.769 158.06 133.489 158.06C133.233 158.083 132.988 158.095 132.755 158.095ZM122.817 153.108C122.817 153.875 123.074 154.445 123.587 154.817C124.123 155.166 124.858 155.34 125.791 155.34C126.631 155.34 127.389 155.224 128.066 154.991C128.742 154.736 129.267 154.399 129.64 153.98L129.71 148.505L126.596 149.76C125.243 150.295 124.275 150.795 123.692 151.26C123.109 151.725 122.817 152.341 122.817 153.108Z" fill="black"/>
<path d="M150.424 162.419V158.025H137.127V141.182H139.926V155.201H147.799V141.182H150.599V155.201H153.118V162.419H150.424Z" fill="black"/>
<path d="M158.584 141.182V153.457L166.736 141.182H169.466V158.025H166.666V145.541L158.374 158.025H155.784V141.182H158.584Z" fill="black"/>
<path d="M176.967 141.182V153.457L185.12 141.182H187.85V158.025H185.05V145.541L176.758 158.025H174.168V141.182H176.967Z" fill="black"/>
<path d="M201.545 142.263H198.955L202.839 148.854L198.955 155.514H201.51L205.954 148.854L201.545 142.263ZM196.261 142.263H193.672L197.556 148.854L193.672 155.514H196.226L200.67 148.854L196.261 142.263Z" fill="black"/>
</g>
</g>
</svg>
