<svg width="227" height="158" viewBox="0 0 227 158" fill="none" xmlns="http://www.w3.org/2000/svg">
<g id="Vector">
<path d="M8.35307 30.4305H2.5944V0H9.29785L17.9808 15.4838L26.6638 0H33.0973V30.4305H26.9338V11.0534L19.0606 25.1499H16.2712L8.35307 11.0534V30.4305Z" fill="black"/>
<path d="M63.8938 8.14464V30.4305H58.2251V8.14464H63.8938ZM44.2333 8.14464V15.3495H47.5176C50.097 15.3495 52.1815 15.8865 53.7711 16.9605C55.3907 18.0346 56.2005 19.8544 56.2005 22.4201C56.2005 24.2102 55.8106 25.7018 55.0308 26.8952C54.281 28.0587 53.2462 28.9388 51.9265 29.5355C50.6368 30.1322 49.1822 30.4305 47.5625 30.4305H38.5646V8.14464H44.2333ZM47.3376 19.6903H44.2333V24.8367H47.2476C48.4773 24.8367 49.3621 24.6129 49.902 24.1654C50.4719 23.7179 50.7568 23.0765 50.7568 22.2411C50.7568 21.4058 50.5019 20.7793 49.992 20.3616C49.5121 19.9141 48.6273 19.6903 47.3376 19.6903Z" fill="black"/>
<path d="M92.9212 30.4305V14.0965H85.093V30.4305H79.4243V8.14464H98.5899V30.4305H92.9212Z" fill="black"/>
<path d="M123.61 22.9571C123.31 24.4488 122.725 25.8063 121.855 27.0295C120.986 28.2526 119.831 29.2222 118.391 29.9383C116.952 30.6244 115.212 30.9675 113.172 30.9675C111.073 30.9675 109.213 30.4902 107.594 29.5355C105.974 28.551 104.699 27.1935 103.77 25.4632C102.84 23.703 102.375 21.6594 102.375 19.3323C102.375 17.0053 102.84 14.9617 103.77 13.2015C104.729 11.4413 106.034 10.0689 107.684 9.0844C109.333 8.09988 111.208 7.60763 113.307 7.60763C115.437 7.60763 117.297 8.08497 118.886 9.03965C120.506 9.9645 121.765 11.2921 122.665 13.0225C123.595 14.7528 124.06 16.8412 124.06 19.2876C124.06 19.4964 124.045 19.75 124.015 20.0483C124.015 20.3168 124 20.5555 123.97 20.7643H107.999C108.239 22.3157 108.823 23.4941 109.753 24.2997C110.683 25.0753 111.868 25.4632 113.307 25.4632C114.717 25.4632 115.842 25.2394 116.682 24.7919C117.521 24.3146 118.121 23.703 118.481 22.9571H123.61ZM113.307 13.0672C111.988 13.0672 110.863 13.4252 109.933 14.1412C109.033 14.8274 108.419 15.8567 108.089 17.229H118.481C118.271 15.9164 117.701 14.902 116.772 14.186C115.872 13.4401 114.717 13.0672 113.307 13.0672Z" fill="black"/>
<path d="M133.196 12.0827C133.706 10.8595 134.56 9.81533 135.76 8.95015C136.99 8.08497 138.489 7.65238 140.259 7.65238C142.119 7.65238 143.798 8.09989 145.298 8.9949C146.798 9.86008 147.997 11.1579 148.897 12.8882C149.797 14.5887 150.247 16.6771 150.247 19.1533C150.247 21.6295 149.797 23.7477 148.897 25.5079C148.027 27.2681 146.842 28.6106 145.343 29.5355C143.843 30.4603 142.164 30.9228 140.304 30.9228C138.594 30.9228 137.2 30.6244 136.12 30.0278C135.04 29.4311 134.155 28.5808 133.466 27.477V39.3807H127.797V8.14464H133.196V12.0827ZM138.954 24.8367C140.784 24.8367 142.179 24.3593 143.138 23.4046C144.128 22.4201 144.623 21.0179 144.623 19.1981C144.623 17.3782 144.128 16.0208 143.138 15.1258C142.179 14.2009 140.784 13.7385 138.954 13.7385C137.575 13.7385 136.42 13.9175 135.49 14.2755C134.56 14.6335 133.885 15.2153 133.466 16.0208V22.6439C133.885 23.4494 134.56 24.0162 135.49 24.3444C136.42 24.6726 137.575 24.8367 138.954 24.8367Z" fill="black"/>
<path d="M164.596 30.4305H154.158V8.14464H164.101C166.5 8.14464 168.33 8.66673 169.589 9.71091C170.849 10.7551 171.479 12.202 171.479 14.0517C171.479 15.1258 171.224 16.0506 170.714 16.8263C170.234 17.602 169.574 18.1837 168.735 18.5716C169.784 18.9594 170.654 19.5859 171.344 20.4511C172.064 21.2864 172.424 22.3605 172.424 23.6731C172.424 25.851 171.704 27.5217 170.264 28.6852C168.855 29.8488 166.965 30.4305 164.596 30.4305ZM159.647 13.291V17.3633H163.246C164.236 17.3633 164.971 17.1992 165.45 16.871C165.93 16.5429 166.17 16.0208 166.17 15.3048C166.17 14.5887 165.93 14.0816 165.45 13.7832C165 13.4551 164.281 13.291 163.291 13.291H159.647ZM159.647 20.6748V25.2394H163.741C164.851 25.2394 165.675 25.0604 166.215 24.7024C166.785 24.3146 167.07 23.7328 167.07 22.9571C167.07 22.1516 166.8 21.5699 166.26 21.2119C165.72 20.8539 164.911 20.6748 163.831 20.6748H159.647Z" fill="black"/>
<path d="M201.543 8.14464V30.4305H195.874V8.14464H201.543ZM181.882 8.14464V15.3495H185.166C187.746 15.3495 189.83 15.8865 191.42 16.9605C193.04 18.0346 193.849 19.8544 193.849 22.4201C193.849 24.2102 193.459 25.7018 192.68 26.8952C191.93 28.0587 190.895 28.9388 189.575 29.5355C188.286 30.1322 186.831 30.4305 185.211 30.4305H176.213V8.14464H181.882ZM184.986 19.6903H181.882V24.8367H184.896C186.126 24.8367 187.011 24.6129 187.551 24.1654C188.121 23.7179 188.406 23.0765 188.406 22.2411C188.406 21.4058 188.151 20.7793 187.641 20.3616C187.161 19.9141 186.276 19.6903 184.986 19.6903Z" fill="black"/>
<path d="M226.55 22.9571C226.25 24.4488 225.665 25.8063 224.796 27.0295C223.926 28.2526 222.771 29.2222 221.331 29.9383C219.892 30.6244 218.152 30.9675 216.113 30.9675C214.013 30.9675 212.153 30.4902 210.534 29.5355C208.914 28.551 207.639 27.1935 206.71 25.4632C205.78 23.703 205.315 21.6594 205.315 19.3323C205.315 17.0053 205.78 14.9617 206.71 13.2015C207.669 11.4413 208.974 10.0689 210.624 9.0844C212.273 8.09988 214.148 7.60763 216.247 7.60763C218.377 7.60763 220.237 8.08497 221.826 9.03965C223.446 9.9645 224.706 11.2921 225.605 13.0225C226.535 14.7528 227 16.8412 227 19.2876C227 19.4964 226.985 19.75 226.955 20.0483C226.955 20.3168 226.94 20.5555 226.91 20.7643H210.939C211.179 22.3157 211.764 23.4941 212.693 24.2997C213.623 25.0753 214.808 25.4632 216.247 25.4632C217.657 25.4632 218.782 25.2394 219.622 24.7919C220.462 24.3146 221.061 23.703 221.421 22.9571H226.55ZM216.247 13.0672C214.928 13.0672 213.803 13.4252 212.873 14.1412C211.973 14.8274 211.359 15.8567 211.029 17.229H221.421C221.211 15.9164 220.641 14.902 219.712 14.186C218.812 13.4401 217.657 13.0672 216.247 13.0672Z" fill="black"/>
<path d="M8.46804 82.1425H1.92455V65.3311H8.18811C9.91437 65.3311 11.2907 65.714 12.3172 66.4797C13.3436 67.2455 13.8568 68.3361 13.8568 69.7515C13.8568 70.6333 13.6352 71.3874 13.1919 72.0139C12.7487 72.6404 12.1655 73.0465 11.4424 73.2321C12.3988 73.3945 13.1686 73.8122 13.7518 74.4851C14.3583 75.1349 14.6616 76.0282 14.6616 77.1652C14.6616 78.7895 14.1251 80.0309 13.052 80.8895C12.0022 81.7248 10.4742 82.1425 8.46804 82.1425ZM4.65392 68.046V72.5012H8.18811C9.12122 72.5012 9.83273 72.3272 10.3226 71.9791C10.8358 71.6078 11.0924 71.0277 11.0924 70.2388C11.0924 69.4963 10.8708 68.951 10.4276 68.6029C9.98436 68.2316 9.28452 68.046 8.32807 68.046H4.65392ZM4.65392 74.4155V79.4276H8.18811C9.49447 79.4276 10.4276 79.2304 10.9875 78.8359C11.5707 78.4182 11.8623 77.7801 11.8623 76.9216C11.8623 76.0398 11.5707 75.4017 10.9875 75.0072C10.4043 74.6128 9.49447 74.4155 8.25809 74.4155H4.65392Z" fill="black"/>
<path d="M27.0791 82.1425V58.4743H40.621V61.7113H30.0184V68.5333H38.1715V71.1438H30.0184V78.9055H40.621V82.1425H27.0791Z" fill="black"/>
<path d="M57.5904 82.1425H54.791V71.5266C54.791 70.2272 54.4878 69.3222 53.8812 68.8117C53.298 68.278 52.3999 68.0112 51.1869 68.0112C49.2506 68.0112 47.9443 68.7537 47.2678 70.2388V82.1425H44.4684V65.3311H47.1278V68.4637C47.4544 67.4891 48.0259 66.677 48.8424 66.0272C49.6822 65.3775 50.7553 65.0527 52.0617 65.0527C54.8377 65.0527 56.564 66.1433 57.2405 68.3245C57.5904 67.3963 58.2086 66.619 59.095 65.9924C59.9815 65.3659 61.0546 65.0527 62.3143 65.0527C64.2039 65.0527 65.5919 65.5516 66.4783 66.5493C67.3881 67.5471 67.843 68.9742 67.843 70.8305V82.1425H65.0437V71.5266C65.0437 70.2272 64.7404 69.3222 64.1339 68.8117C63.5507 68.278 62.6525 68.0112 61.4395 68.0112C59.5033 68.0112 58.2086 68.7189 57.5554 70.1344C57.5787 70.2272 57.5904 70.3432 57.5904 70.4824C57.5904 70.5985 57.5904 70.7145 57.5904 70.8305V82.1425Z" fill="black"/>
<path d="M74.9436 68.2548C75.4802 67.1643 76.2033 66.3637 77.1131 65.8532C78.0229 65.3195 79.166 65.0527 80.5423 65.0527C82.152 65.0527 83.54 65.4239 84.7064 66.1665C85.8728 66.8858 86.7592 67.8952 87.3658 69.1946C87.9956 70.4708 88.3105 71.9327 88.3105 73.5802C88.3105 75.2277 87.9956 76.7243 87.3658 78.0702C86.7592 79.3928 85.8728 80.4486 84.7064 81.2375C83.5633 82.0265 82.187 82.4209 80.5773 82.4209C79.3176 82.4209 78.2329 82.2005 77.3231 81.7596C76.4133 81.2955 75.6668 80.5762 75.0836 79.6016V89.1037H72.2842V65.3311H74.9436V68.2548ZM80.0874 79.4972C81.907 79.4972 83.26 78.9403 84.1465 77.8265C85.033 76.7127 85.4762 75.2973 85.4762 73.5802C85.4762 71.8631 85.0213 70.5056 84.1115 69.5079C83.2251 68.4869 81.872 67.9764 80.0525 67.9764C78.8161 67.9764 77.778 68.162 76.9382 68.5333C76.0984 68.8814 75.4802 69.4615 75.0836 70.2736V77.2696C75.4802 78.0586 76.0984 78.6271 76.9382 78.9751C77.8013 79.3232 78.8511 79.4972 80.0874 79.4972Z" fill="black"/>
<path d="M94.8007 58.4743V82.1425H92.0014V58.4743H94.8007Z" fill="black"/>
<path d="M106.623 65.0527C108.28 65.0527 109.714 65.4355 110.927 66.2013C112.164 66.967 113.12 68.0112 113.797 69.3338C114.497 70.6333 114.846 72.0951 114.846 73.7194C114.846 75.3437 114.497 76.8172 113.797 78.1398C113.12 79.4392 112.164 80.4834 110.927 81.2723C109.714 82.0381 108.28 82.4209 106.623 82.4209C104.99 82.4209 103.556 82.0381 102.319 81.2723C101.083 80.4834 100.115 79.4392 99.415 78.1398C98.7385 76.8172 98.4002 75.3437 98.4002 73.7194C98.4002 72.0951 98.7385 70.6333 99.415 69.3338C100.115 68.0112 101.083 66.967 102.319 66.2013C103.556 65.4355 104.99 65.0527 106.623 65.0527ZM106.623 68.046C104.99 68.046 103.684 68.5681 102.704 69.6123C101.724 70.6565 101.235 72.0255 101.235 73.7194C101.235 75.4133 101.724 76.7939 102.704 77.8613C103.684 78.9055 104.99 79.4276 106.623 79.4276C108.256 79.4276 109.563 78.9055 110.542 77.8613C111.522 76.7939 112.012 75.4133 112.012 73.7194C112.012 72.0255 111.522 70.6565 110.542 69.6123C109.563 68.5681 108.256 68.046 106.623 68.046Z" fill="black"/>
<path d="M122.133 83.9524L122.763 82.1425H122.098L116.254 65.3311H119.263L123.882 78.9055L128.571 65.3311H131.231L124.372 84.8226C123.789 86.4469 123.124 87.5955 122.378 88.2684C121.631 88.9413 120.71 89.2778 119.613 89.2778C119.217 89.2778 118.843 89.2429 118.494 89.1733C118.167 89.1269 117.887 89.0689 117.654 88.9993V86.1452C117.887 86.1916 118.144 86.238 118.424 86.2844C118.703 86.3308 118.995 86.354 119.298 86.354C119.975 86.354 120.535 86.1684 120.978 85.7971C121.444 85.4259 121.829 84.811 122.133 83.9524Z" fill="black"/>
<path d="M148.002 77.026C147.745 77.9542 147.325 78.8359 146.742 79.6713C146.159 80.4834 145.366 81.1447 144.363 81.6552C143.36 82.1657 142.088 82.4209 140.549 82.4209C138.986 82.4209 137.609 82.0381 136.419 81.2723C135.23 80.4834 134.297 79.4276 133.62 78.105C132.967 76.7823 132.64 75.3205 132.64 73.7194C132.64 72.0951 132.967 70.6333 133.62 69.3338C134.297 68.0344 135.23 67.0018 136.419 66.2361C137.609 65.4472 138.986 65.0527 140.549 65.0527C142.158 65.0527 143.546 65.4355 144.713 66.2013C145.879 66.967 146.777 68.0228 147.407 69.3686C148.06 70.7145 148.387 72.2459 148.387 73.9631C148.387 74.0327 148.387 74.1023 148.387 74.1719C148.387 74.2415 148.387 74.3111 148.387 74.3807H135.475C135.591 75.9354 136.093 77.1884 136.979 78.1398C137.889 79.0911 139.079 79.5668 140.549 79.5668C141.855 79.5668 142.905 79.3464 143.698 78.9055C144.491 78.4414 145.074 77.8149 145.447 77.026H148.002ZM140.549 67.9068C139.126 67.9068 137.982 68.3129 137.119 69.125C136.28 69.9139 135.755 70.9929 135.545 72.362H145.482C145.319 71.1321 144.841 70.088 144.048 69.2294C143.278 68.3477 142.111 67.9068 140.549 67.9068Z" fill="black"/>
<path d="M166.181 77.026C165.925 77.9542 165.505 78.8359 164.921 79.6713C164.338 80.4834 163.545 81.1447 162.542 81.6552C161.539 82.1657 160.268 82.4209 158.728 82.4209C157.165 82.4209 155.789 82.0381 154.599 81.2723C153.409 80.4834 152.476 79.4276 151.8 78.105C151.146 76.7823 150.82 75.3205 150.82 73.7194C150.82 72.0951 151.146 70.6333 151.8 69.3338C152.476 68.0344 153.409 67.0018 154.599 66.2361C155.789 65.4472 157.165 65.0527 158.728 65.0527C160.338 65.0527 161.726 65.4355 162.892 66.2013C164.058 66.967 164.956 68.0228 165.586 69.3686C166.24 70.7145 166.566 72.2459 166.566 73.9631C166.566 74.0327 166.566 74.1023 166.566 74.1719C166.566 74.2415 166.566 74.3111 166.566 74.3807H153.654C153.771 75.9354 154.272 77.1884 155.159 78.1398C156.069 79.0911 157.258 79.5668 158.728 79.5668C160.034 79.5668 161.084 79.3464 161.877 78.9055C162.67 78.4414 163.254 77.8149 163.627 77.026H166.181ZM158.728 67.9068C157.305 67.9068 156.162 68.3129 155.299 69.125C154.459 69.9139 153.934 70.9929 153.724 72.362H163.662C163.498 71.1321 163.02 70.088 162.227 69.2294C161.457 68.3477 160.291 67.9068 158.728 67.9068Z" fill="black"/>
<path d="M27.2587 96.2638H30.198L22.7447 119.932H20.8552L15.1165 102.842L9.34284 119.932H7.45328L0 96.2638H3.35922L8.71298 113.841L14.5916 96.2638H16.0263L21.9049 113.841L27.2587 96.2638Z" fill="black"/>
<path d="M45.999 114.816C45.7424 115.744 45.3225 116.625 44.7393 117.461C44.1561 118.273 43.363 118.934 42.3599 119.445C41.3568 119.955 40.0854 120.21 38.5458 120.21C36.9828 120.21 35.6064 119.828 34.4167 119.062C33.227 118.273 32.2939 117.217 31.6174 115.895C30.9642 114.572 30.6376 113.11 30.6376 111.509C30.6376 109.885 30.9642 108.423 31.6174 107.123C32.2939 105.824 33.227 104.791 34.4167 104.026C35.6064 103.237 36.9828 102.842 38.5458 102.842C40.1554 102.842 41.5434 103.225 42.7098 103.991C43.8762 104.757 44.7743 105.812 45.4042 107.158C46.0574 108.504 46.384 110.035 46.384 111.753C46.384 111.822 46.384 111.892 46.384 111.961C46.384 112.031 46.384 112.101 46.384 112.17H33.4719C33.5886 113.725 34.0901 114.978 34.9766 115.929C35.8864 116.881 37.0761 117.356 38.5458 117.356C39.8521 117.356 40.9019 117.136 41.695 116.695C42.4882 116.231 43.0714 115.604 43.4446 114.816H45.999ZM38.5458 105.696C37.1228 105.696 35.9797 106.102 35.1166 106.915C34.2768 107.703 33.7519 108.782 33.5419 110.151H43.4796C43.3163 108.922 42.8381 107.877 42.045 107.019C41.2751 106.137 40.1087 105.696 38.5458 105.696Z" fill="black"/>
<path d="M52.7011 96.2638V119.932H49.9017V96.2638H52.7011Z" fill="black"/>
<path d="M60.1847 96.2638V119.932H57.3853V96.2638H60.1847Z" fill="black"/>
<path d="M67.6683 105.766C68.2515 104.791 68.998 104.06 69.9078 103.573C70.8176 103.086 71.9023 102.842 73.1621 102.842C74.7717 102.842 76.148 103.225 77.2911 103.991C78.4575 104.733 79.344 105.754 79.9505 107.054C80.5803 108.353 80.8953 109.827 80.8953 111.474C80.8953 113.122 80.5803 114.607 79.9505 115.929C79.344 117.252 78.4575 118.296 77.2911 119.062C76.1247 119.828 74.7367 120.21 73.1271 120.21C71.7507 120.21 70.596 119.944 69.6629 119.41C68.7297 118.876 68.0182 118.11 67.5284 117.113V119.932H64.869V96.2638H67.6683V105.766ZM72.6372 117.287C74.4567 117.287 75.8098 116.741 76.6962 115.651C77.606 114.56 78.0609 113.168 78.0609 111.474C78.0609 109.757 77.6177 108.376 76.7312 107.332C75.8448 106.288 74.4917 105.766 72.6722 105.766C71.4358 105.766 70.386 105.952 69.5229 106.323C68.6831 106.671 68.0649 107.251 67.6683 108.063V114.99C68.0649 115.778 68.6831 116.359 69.5229 116.73C70.3627 117.101 71.4008 117.287 72.6372 117.287Z" fill="black"/>
<path d="M98.8628 114.816C98.6062 115.744 98.1863 116.625 97.6031 117.461C97.0199 118.273 96.2267 118.934 95.2236 119.445C94.2205 119.955 92.9492 120.21 91.4095 120.21C89.8465 120.21 88.4702 119.828 87.2805 119.062C86.0907 118.273 85.1576 117.217 84.4811 115.895C83.8279 114.572 83.5013 113.11 83.5013 111.509C83.5013 109.885 83.8279 108.423 84.4811 107.123C85.1576 105.824 86.0907 104.791 87.2805 104.026C88.4702 103.237 89.8465 102.842 91.4095 102.842C93.0191 102.842 94.4072 103.225 95.5735 103.991C96.7399 104.757 97.6381 105.812 98.2679 107.158C98.9211 108.504 99.2477 110.035 99.2477 111.753C99.2477 111.822 99.2477 111.892 99.2477 111.961C99.2477 112.031 99.2477 112.101 99.2477 112.17H86.3357C86.4523 113.725 86.9539 114.978 87.8403 115.929C88.7501 116.881 89.9398 117.356 91.4095 117.356C92.7159 117.356 93.7656 117.136 94.5588 116.695C95.3519 116.231 95.9351 115.604 96.3084 114.816H98.8628ZM91.4095 105.696C89.9865 105.696 88.8434 106.102 87.9803 106.915C87.1405 107.703 86.6156 108.782 86.4057 110.151H96.3434C96.1801 108.922 95.7019 107.877 94.9087 107.019C94.1389 106.137 92.9725 105.696 91.4095 105.696Z" fill="black"/>
<path d="M104.165 96.96C104.702 96.96 105.145 97.134 105.495 97.4821C105.868 97.8069 106.055 98.271 106.055 98.8743C106.055 99.4544 105.868 99.9301 105.495 100.301C105.145 100.649 104.702 100.823 104.165 100.823C103.652 100.823 103.197 100.649 102.8 100.301C102.427 99.9301 102.241 99.4544 102.241 98.8743C102.241 98.271 102.427 97.8069 102.8 97.4821C103.197 97.134 103.652 96.96 104.165 96.96ZM102.765 103.121H105.565V119.932H102.765V103.121Z" fill="black"/>
<path d="M124.036 119.932H121.237V109.316C121.237 108.017 120.898 107.112 120.222 106.601C119.545 106.068 118.6 105.801 117.387 105.801C116.338 105.801 115.451 105.975 114.728 106.323C114.005 106.648 113.445 107.216 113.048 108.028V119.932H110.249V103.121H112.908V106.253C113.305 105.232 113.947 104.408 114.833 103.782C115.743 103.155 116.851 102.842 118.157 102.842C120.047 102.842 121.493 103.341 122.496 104.339C123.523 105.337 124.036 106.764 124.036 108.62V119.932Z" fill="black"/>
<path d="M135.075 119.828C133.489 119.828 132.124 119.456 130.981 118.714C129.838 117.971 128.963 116.962 128.357 115.686C127.774 114.409 127.482 112.971 127.482 111.37C127.482 109.769 127.785 108.33 128.392 107.054C128.998 105.754 129.873 104.733 131.016 103.991C132.159 103.225 133.524 102.842 135.11 102.842C136.417 102.842 137.525 103.132 138.435 103.712C139.368 104.269 140.009 105.023 140.359 105.975V103.121H143.018V118.783C143.018 120.918 142.68 122.589 142.004 123.796C141.327 125.025 140.406 125.884 139.239 126.371C138.096 126.882 136.802 127.137 135.355 127.137C133.232 127.137 131.564 126.615 130.351 125.571C129.138 124.55 128.427 123.192 128.217 121.498H130.876C131.156 122.38 131.634 123.076 132.311 123.587C132.987 124.12 134.002 124.387 135.355 124.387C136.312 124.387 137.151 124.236 137.875 123.935C138.598 123.656 139.169 123.123 139.589 122.334C140.009 121.545 140.219 120.396 140.219 118.888V117.008C139.636 117.983 138.948 118.702 138.155 119.166C137.361 119.607 136.335 119.828 135.075 119.828ZM135.53 116.973C136.767 116.973 137.758 116.788 138.505 116.417C139.251 116.045 139.823 115.465 140.219 114.676V107.994C139.449 106.462 137.898 105.696 135.565 105.696C133.722 105.696 132.369 106.23 131.506 107.297C130.666 108.365 130.246 109.722 130.246 111.37C130.246 112.994 130.666 114.34 131.506 115.407C132.346 116.451 133.687 116.973 135.53 116.973Z" fill="black"/>
<path d="M0 157.722L8.92294 134.053H10.9525L19.8754 157.722H16.5512L14.3467 151.735H5.14381L2.93932 157.722H0ZM6.15858 149.02H13.3669L9.79773 139.239L6.15858 149.02Z" fill="black"/>
<path d="M27.408 157.722H25.7983L20.0946 140.91H23.069L26.8481 152.605L31.0121 140.91H32.6917L36.8558 152.605L40.6349 140.91H43.2593L37.5556 157.722H35.946L31.677 145.748L27.408 157.722Z" fill="black"/>
<path d="M57.4892 157.791C56.6961 157.791 56.0429 157.571 55.5297 157.13C55.0165 156.666 54.7132 155.97 54.6199 155.041C54.0367 155.97 53.3369 156.677 52.5204 157.165C51.7272 157.629 50.7825 157.861 49.686 157.861C48.2164 157.861 47.0267 157.478 46.1169 156.712C45.2071 155.946 44.7522 154.809 44.7522 153.301C44.7522 152.35 44.9271 151.561 45.2771 150.934C45.627 150.285 46.1519 149.739 46.8517 149.298C47.5515 148.858 48.4147 148.44 49.4411 148.045L54.4449 146.096C54.3516 145.122 53.9784 144.449 53.3252 144.078C52.6953 143.706 51.9372 143.521 51.0507 143.521C50.1176 143.521 49.3245 143.718 48.6713 144.112C48.0414 144.484 47.6565 145.075 47.5165 145.887H44.8921C45.0554 144.658 45.4404 143.66 46.0469 142.894C46.6534 142.128 47.3999 141.56 48.2864 141.189C49.1728 140.817 50.0943 140.632 51.0507 140.632C52.9403 140.632 54.4449 141.131 55.5647 142.128C56.6844 143.103 57.2326 144.634 57.2093 146.723L57.1393 153.162C57.1393 153.835 57.2326 154.299 57.4193 154.554C57.6059 154.809 57.9091 154.937 58.329 154.937H58.9939V157.722C58.7606 157.745 58.504 157.756 58.2241 157.756C57.9675 157.78 57.7225 157.791 57.4892 157.791ZM47.5515 152.814C47.5515 153.58 47.8081 154.148 48.3214 154.519C48.8579 154.867 49.5927 155.041 50.5258 155.041C51.3657 155.041 52.1238 154.925 52.8003 154.693C53.4768 154.438 54.0017 154.102 54.375 153.684L54.4449 148.219L51.3307 149.472C49.9776 150.006 49.0095 150.505 48.4263 150.969C47.8431 151.433 47.5515 152.048 47.5515 152.814Z" fill="black"/>
<path d="M70.8548 140.736V143.869C70.7148 143.822 70.5165 143.787 70.2599 143.764C70.0266 143.741 69.7467 143.729 69.4201 143.729C68.487 143.729 67.5772 143.88 66.6907 144.182C65.8276 144.484 65.1511 145.04 64.6612 145.853V157.722H61.8619V140.91H64.4513V143.973C64.9411 142.952 65.6643 142.163 66.6208 141.606C67.6005 141.026 68.8136 140.736 70.2599 140.736H70.8548Z" fill="black"/>
<path d="M80.3395 158C78.7299 158 77.3302 157.617 76.1405 156.851C74.9507 156.086 74.0293 155.041 73.3761 153.719C72.7463 152.396 72.4313 150.911 72.4313 149.264C72.4313 147.616 72.7463 146.143 73.3761 144.843C74.0293 143.544 74.9391 142.523 76.1055 141.78C77.2952 141.015 78.6949 140.632 80.3045 140.632C81.5642 140.632 82.6256 140.864 83.4888 141.328C84.3519 141.769 85.0751 142.476 85.6583 143.451V134.053H88.4576V157.722H85.7982V154.937C85.285 155.888 84.5502 156.643 83.5937 157.199C82.6606 157.733 81.5759 158 80.3395 158ZM80.8294 155.076C81.9958 155.076 82.9872 154.902 83.8037 154.554C84.6435 154.206 85.2617 153.638 85.6583 152.849V145.783C85.2617 144.971 84.6552 144.402 83.8387 144.078C83.0455 143.729 82.0308 143.555 80.7944 143.555C78.9282 143.555 77.5401 144.078 76.6303 145.122C75.7206 146.166 75.2657 147.547 75.2657 149.264C75.2657 150.958 75.7206 152.35 76.6303 153.44C77.5635 154.531 78.9631 155.076 80.8294 155.076Z" fill="black"/>
</g>
</svg>
