<svg width="302" height="159" viewBox="0 0 302 159" fill="none" xmlns="http://www.w3.org/2000/svg">
<g id="Group 364">
<g id="&#208;&#163; &#208;&#189;&#208;&#176;&#209;&#129; &#194;&#171;&#208;&#151;&#208;&#190;&#208;&#187;&#208;&#190;&#209;&#130;&#208;&#190;&#194;&#187;">
<path d="M8.57234 30.7808C7.73455 30.7808 6.95661 30.7223 6.23851 30.6054C5.52041 30.4884 4.87711 30.3277 4.30861 30.1231V24.2914C4.78735 24.4668 5.296 24.6129 5.83458 24.7298C6.40307 24.8175 7.03141 24.8614 7.71959 24.8614C8.67706 24.8614 9.46997 24.6568 10.0983 24.2475C10.7566 23.8383 11.2652 23.1221 11.6243 22.099L11.9833 21.2221H8.75187L0 0.613861H6.95661L13.5991 16.662L19.4336 0.613861H25.2682L16.3368 24.8175C15.6187 26.776 14.6612 28.2669 13.4644 29.29C12.2676 30.2838 10.6369 30.7808 8.57234 30.7808Z" fill="black"/>
<path d="M51.4253 30.43V22.1867H43.4813V30.43H37.8262V8.59406H43.4813V16.355H51.4253V8.59406H57.0803V30.43H51.4253Z" fill="black"/>
<path d="M78.6262 30.5615C77.3396 30.5615 76.2774 30.24 75.4396 29.5969C74.6317 28.9538 74.153 27.9892 74.0034 26.703C73.4349 27.9015 72.627 28.8661 71.5798 29.5969C70.5326 30.2984 69.2011 30.6492 67.5854 30.6492C65.5507 30.6492 63.935 30.1084 62.7382 29.0269C61.5713 27.9161 60.9878 26.4107 60.9878 24.5106C60.9878 23.166 61.2421 22.0698 61.7508 21.2221C62.2894 20.3744 63.0673 19.6582 64.0846 19.0736C65.1019 18.4889 66.3437 17.9628 67.8098 17.495L73.5097 15.6535C73.3302 14.8642 72.9113 14.3234 72.253 14.0311C71.6247 13.7096 70.8318 13.5488 69.8743 13.5488C68.7672 13.5488 67.8846 13.7242 67.2263 14.075C66.5681 14.3965 66.1492 14.9227 65.9696 15.6535H61.3469C61.5264 13.9873 62.0051 12.5988 62.7831 11.488C63.561 10.3479 64.5933 9.50024 65.8799 8.94484C67.1665 8.36021 68.6326 8.06789 70.2783 8.06789C72.9412 8.06789 75.0806 8.75483 76.6963 10.1287C78.312 11.4734 79.09 13.5488 79.0301 16.355L78.8955 23.4583C78.8656 24.1598 78.9852 24.6568 79.2545 24.9491C79.5537 25.2414 80.0175 25.3876 80.6458 25.3876H81.0498V30.4738C80.6608 30.5031 80.2569 30.5177 79.838 30.5177C79.4191 30.5469 79.0152 30.5615 78.6262 30.5615ZM66.4185 23.1075C66.4185 23.7798 66.7027 24.2768 67.2712 24.5983C67.8696 24.8906 68.6176 25.0368 69.5153 25.0368C70.383 25.0368 71.1908 24.9345 71.9389 24.7298C72.6869 24.496 73.2105 24.2037 73.5097 23.8529L73.5546 19.0297L69.5602 20.389C68.4531 20.769 67.6452 21.1636 67.1366 21.5728C66.6578 21.9529 66.4185 22.4644 66.4185 23.1075Z" fill="black"/>
<path d="M93.8932 8.02404C96.8554 8.02404 99.2191 8.81329 100.984 10.3918C102.75 11.9411 103.827 14.0165 104.216 16.6181H99.2341C98.9349 15.7704 98.3813 15.1419 97.5735 14.7327C96.7656 14.2942 95.6137 14.075 94.1176 14.075C92.472 14.075 91.1405 14.5573 90.1232 15.5219C89.1358 16.4573 88.6421 17.7581 88.6421 19.4243C88.6421 21.1198 89.1358 22.4498 90.1232 23.4144C91.1405 24.3791 92.472 24.8614 94.1176 24.8614C95.6137 24.8614 96.7656 24.6421 97.5735 24.2037C98.3813 23.7652 98.9349 23.1513 99.2341 22.3621H104.216C103.827 24.9929 102.75 27.083 100.984 28.6322C99.2191 30.1523 96.8554 30.9123 93.8932 30.9123C91.6791 30.9123 89.7492 30.4154 88.1035 29.4215C86.4878 28.3984 85.2311 27.0245 84.3335 25.2999C83.4359 23.5752 82.987 21.6167 82.987 19.4243C82.987 17.232 83.4359 15.2881 84.3335 13.5926C85.2311 11.868 86.4878 10.5087 88.1035 9.51485C89.7492 8.52098 91.6791 8.02404 93.8932 8.02404Z" fill="black"/>
<path d="M122.332 10.2603H127.09L122.467 18.5474L127.09 26.9222H122.377L116.812 18.5474L122.332 10.2603ZM130.411 10.2603H135.168L130.546 18.5474L135.168 26.9222H130.456L124.89 18.5474L130.411 10.2603Z" fill="black"/>
<path d="M150.156 6.22631C148.6 6.22631 147.343 6.5917 146.386 7.32249C145.428 8.05328 144.785 9.12022 144.456 10.5233H138.756C139.145 7.24941 140.327 4.67704 142.302 2.80622C144.276 0.935407 146.984 0 150.425 0C152.609 0 154.479 0.380009 156.035 1.14003C157.621 1.87082 158.833 2.90853 159.671 4.25318C160.538 5.5686 160.972 7.10325 160.972 8.85714C160.972 10.4064 160.628 11.6926 159.94 12.7157C159.252 13.7388 158.294 14.4988 157.068 14.9958C158.474 15.4635 159.581 16.2673 160.389 17.4074C161.227 18.5474 161.645 19.9651 161.645 21.6605C161.645 23.5021 161.182 25.1245 160.254 26.5276C159.357 27.9307 158.055 29.0269 156.349 29.8161C154.674 30.6054 152.654 31 150.29 31C146.76 31 143.962 30.0792 141.898 28.2376C139.863 26.3668 138.696 23.736 138.397 20.3451H144.097C144.336 21.8067 144.95 22.9029 145.937 23.6337C146.954 24.3352 148.316 24.686 150.021 24.686C151.757 24.686 153.073 24.3644 153.971 23.7214C154.868 23.049 155.317 22.1282 155.317 20.959C155.317 19.7605 154.913 18.8982 154.105 18.372C153.298 17.8458 152.101 17.5827 150.515 17.5827H146.88V12.9349H150.47C151.876 12.9349 152.924 12.6572 153.612 12.1018C154.33 11.5464 154.689 10.728 154.689 9.64639C154.689 8.59406 154.315 7.76096 153.567 7.1471C152.849 6.53324 151.712 6.22631 150.156 6.22631Z" fill="black"/>
<path d="M176.172 8.06789C178.505 8.06789 180.51 8.56483 182.186 9.5587C183.891 10.5526 185.193 11.9118 186.09 13.6365C187.018 15.3319 187.482 17.2758 187.482 19.4682C187.482 21.6605 187.018 23.619 186.09 25.3437C185.193 27.0684 183.891 28.4422 182.186 29.4653C180.51 30.4592 178.505 30.9562 176.172 30.9562C173.838 30.9562 171.818 30.4592 170.113 29.4653C168.437 28.4422 167.135 27.0684 166.208 25.3437C165.28 23.619 164.817 21.6605 164.817 19.4682C164.817 17.2758 165.28 15.3319 166.208 13.6365C167.135 11.9118 168.437 10.5526 170.113 9.5587C171.818 8.56483 173.838 8.06789 176.172 8.06789ZM176.172 14.1188C174.466 14.1188 173.09 14.5865 172.043 15.5219C170.995 16.4573 170.472 17.7727 170.472 19.4682C170.472 21.1636 170.995 22.4936 172.043 23.4583C173.09 24.4229 174.466 24.9052 176.172 24.9052C177.847 24.9052 179.209 24.4229 180.256 23.4583C181.333 22.4936 181.872 21.1636 181.872 19.4682C181.872 17.7727 181.333 16.4573 180.256 15.5219C179.209 14.5865 177.847 14.1188 176.172 14.1188Z" fill="black"/>
<path d="M189.213 24.5983C189.392 24.5983 189.587 24.6129 189.796 24.6421C190.036 24.6421 190.26 24.6421 190.469 24.6421C191.367 24.6421 192.04 24.2768 192.489 23.546C192.968 22.8152 193.297 21.6313 193.477 19.9943C193.626 18.7082 193.761 17.1004 193.88 15.1711C194.03 13.2419 194.135 11.0495 194.195 8.59406H209.813V30.43H204.158V14.4257H198.862C198.832 15.4781 198.773 16.6035 198.683 17.802C198.623 18.9712 198.548 20.0528 198.458 21.0467C198.249 23.356 197.905 25.2268 197.426 26.6591C196.947 28.0622 196.259 29.0853 195.362 29.7284C194.494 30.3715 193.372 30.6931 191.995 30.6931C191.517 30.6931 191.023 30.6638 190.514 30.6054C190.006 30.5469 189.572 30.4738 189.213 30.3861V24.5983Z" fill="black"/>
<path d="M224.954 8.06789C227.288 8.06789 229.292 8.56483 230.968 9.5587C232.673 10.5526 233.975 11.9118 234.873 13.6365C235.8 15.3319 236.264 17.2758 236.264 19.4682C236.264 21.6605 235.8 23.619 234.873 25.3437C233.975 27.0684 232.673 28.4422 230.968 29.4653C229.292 30.4592 227.288 30.9562 224.954 30.9562C222.62 30.9562 220.6 30.4592 218.895 29.4653C217.219 28.4422 215.918 27.0684 214.99 25.3437C214.063 23.619 213.599 21.6605 213.599 19.4682C213.599 17.2758 214.063 15.3319 214.99 13.6365C215.918 11.9118 217.219 10.5526 218.895 9.5587C220.6 8.56483 222.62 8.06789 224.954 8.06789ZM224.954 14.1188C223.248 14.1188 221.872 14.5865 220.825 15.5219C219.777 16.4573 219.254 17.7727 219.254 19.4682C219.254 21.1636 219.777 22.4936 220.825 23.4583C221.872 24.4229 223.248 24.9052 224.954 24.9052C226.629 24.9052 227.991 24.4229 229.038 23.4583C230.115 22.4936 230.654 21.1636 230.654 19.4682C230.654 17.7727 230.115 16.4573 229.038 15.5219C227.991 14.5865 226.629 14.1188 224.954 14.1188Z" fill="black"/>
<path d="M238.271 8.59406H256.582V14.4696H250.254V30.43H244.599V14.4696H238.271V8.59406Z" fill="black"/>
<path d="M269.923 8.06789C272.257 8.06789 274.261 8.56483 275.937 9.5587C277.642 10.5526 278.944 11.9118 279.842 13.6365C280.769 15.3319 281.233 17.2758 281.233 19.4682C281.233 21.6605 280.769 23.619 279.842 25.3437C278.944 27.0684 277.642 28.4422 275.937 29.4653C274.261 30.4592 272.257 30.9562 269.923 30.9562C267.589 30.9562 265.569 30.4592 263.864 29.4653C262.188 28.4422 260.887 27.0684 259.959 25.3437C259.032 23.619 258.568 21.6605 258.568 19.4682C258.568 17.2758 259.032 15.3319 259.959 13.6365C260.887 11.9118 262.188 10.5526 263.864 9.5587C265.569 8.56483 267.589 8.06789 269.923 8.06789ZM269.923 14.1188C268.217 14.1188 266.841 14.5865 265.794 15.5219C264.747 16.4573 264.223 17.7727 264.223 19.4682C264.223 21.1636 264.747 22.4936 265.794 23.4583C266.841 24.4229 268.217 24.9052 269.923 24.9052C271.598 24.9052 272.96 24.4229 274.007 23.4583C275.084 22.4936 275.623 21.1636 275.623 19.4682C275.623 17.7727 275.084 16.4573 274.007 15.5219C272.96 14.5865 271.598 14.1188 269.923 14.1188Z" fill="black"/>
<path d="M296.48 10.2603H291.722L296.345 18.5474L291.722 26.9222H296.435L302 18.5474L296.48 10.2603ZM288.401 10.2603H283.644L288.266 18.5474L283.644 26.9222H288.356L293.921 18.5474L288.401 10.2603Z" fill="black"/>
</g>
<g id="&#208;&#178; &#209;&#128;&#208;&#181;&#208;&#185;&#209;&#130;&#208;&#184;&#208;&#189;&#208;&#179;&#208;&#181; &#209;&#128;&#208;&#176;&#208;&#177;&#208;&#190;&#209;&#130;&#208;&#190;&#208;&#180;&#208;&#176;&#209;&#130;&#208;&#181;&#208;&#187;&#208;&#181;&#208;&#185; Forbes &#208;&#178; &#208;&#160;&#208;&#190;&#209;&#129;&#209;&#129;&#208;&#184;&#208;&#184;*">
<path d="M8.52758 83.2456H2V66.4571H8.24832C9.97039 66.4571 11.3434 66.8395 12.3673 67.6042C13.3913 68.3689 13.9032 69.458 13.9032 70.8715C13.9032 71.7521 13.6822 72.5052 13.24 73.1308C12.7978 73.7565 12.2161 74.162 11.4947 74.3474C12.4488 74.5096 13.2167 74.9267 13.7985 75.5987C14.4036 76.2475 14.7061 77.1397 14.7061 78.2751C14.7061 79.8972 14.1708 81.1369 13.1004 81.9943C12.0532 82.8285 10.5289 83.2456 8.52758 83.2456ZM4.72273 69.1683V73.6175H8.24832C9.17917 73.6175 9.88894 73.4437 10.3776 73.0961C10.8896 72.7253 11.1456 72.146 11.1456 71.3581C11.1456 70.6166 10.9245 70.0721 10.4824 69.7245C10.0402 69.3537 9.34207 69.1683 8.38795 69.1683H4.72273ZM4.72273 75.5292V80.5345H8.24832C9.55151 80.5345 10.4824 80.3375 11.0409 79.9436C11.6226 79.5264 11.9135 78.8892 11.9135 78.0318C11.9135 77.1513 11.6226 76.514 11.0409 76.1201C10.4591 75.7262 9.55151 75.5292 8.31814 75.5292H4.72273Z" fill="black"/>
<path d="M29.5718 69.3769C30.107 68.2878 30.8284 67.4883 31.736 66.9785C32.6436 66.4455 33.7838 66.1791 35.1568 66.1791C36.7626 66.1791 38.1472 66.5498 39.3108 67.2913C40.4743 68.0097 41.3586 69.0177 41.9637 70.3154C42.592 71.5899 42.9062 73.0497 42.9062 74.695C42.9062 76.3402 42.592 77.8349 41.9637 79.1789C41.3586 80.4997 40.4743 81.554 39.3108 82.3419C38.1705 83.1298 36.7975 83.5237 35.1918 83.5237C33.9351 83.5237 32.853 83.3036 31.9454 82.8633C31.0378 82.3998 30.2932 81.6815 29.7114 80.7083V90.1974H26.9188V66.4571H29.5718V69.3769ZM34.7031 80.604C36.5182 80.604 37.8679 80.0478 38.7523 78.9356C39.6366 77.8233 40.0787 76.4097 40.0787 74.695C40.0787 72.9802 39.6249 71.6246 38.7173 70.6282C37.833 69.6086 36.4833 69.0988 34.6682 69.0988C33.4348 69.0988 32.3992 69.2842 31.5614 69.6549C30.7237 70.0025 30.107 70.5818 29.7114 71.3929V78.3794C30.107 79.1673 30.7237 79.735 31.5614 80.0826C32.4225 80.4302 33.4697 80.604 34.7031 80.604Z" fill="black"/>
<path d="M60.83 78.1361C60.574 79.063 60.1551 79.9436 59.5734 80.7778C58.9916 81.5888 58.2004 82.2492 57.1997 82.759C56.199 83.2688 54.9307 83.5237 53.3948 83.5237C51.8357 83.5237 50.4627 83.1414 49.2758 82.3767C48.089 81.5888 47.1582 80.5345 46.4833 79.2136C45.8317 77.8928 45.5059 76.4329 45.5059 74.834C45.5059 73.2119 45.8317 71.7521 46.4833 70.4544C47.1582 69.1567 48.089 68.1256 49.2758 67.3609C50.4627 66.573 51.8357 66.1791 53.3948 66.1791C55.0006 66.1791 56.3852 66.5614 57.5488 67.3261C58.7123 68.0908 59.6083 69.1452 60.2366 70.4892C60.8882 71.8332 61.214 73.3626 61.214 75.0773C61.214 75.1468 61.214 75.2164 61.214 75.2859C61.214 75.3554 61.214 75.4249 61.214 75.4944H48.3334C48.4497 77.047 48.95 78.2983 49.8343 79.2484C50.7419 80.1985 51.9288 80.6735 53.3948 80.6735C54.698 80.6735 55.7452 80.4534 56.5365 80.0131C57.3277 79.5496 57.9095 78.924 58.2818 78.1361H60.83ZM53.3948 69.0293C51.9753 69.0293 50.835 69.4348 49.974 70.2458C49.1362 71.0337 48.6126 72.1112 48.4032 73.4784H58.3167C58.1538 72.2503 57.6768 71.2075 56.8855 70.3501C56.1176 69.4696 54.954 69.0293 53.3948 69.0293Z" fill="black"/>
<path d="M67.5157 66.4571V78.6922L75.649 66.4571H78.3718V83.2456H75.5792V70.802L67.3063 83.2456H64.7232V66.4571H67.5157ZM69.5403 61C69.7731 61.5793 70.0756 62.0196 70.4479 62.3208C70.8435 62.6221 71.3671 62.7727 72.0187 62.7727C72.6936 62.7727 73.2172 62.6221 73.5895 62.3208C73.9619 62.0196 74.2644 61.5793 74.4971 61H76.6613C76.545 62.1818 76.1377 63.1898 75.4396 64.024C74.7415 64.8351 73.6012 65.2406 72.0187 65.2406C70.4596 65.2406 69.3193 64.8351 68.5979 64.024C67.8997 63.1898 67.4925 62.1818 67.3761 61H69.5403Z" fill="black"/>
<path d="M81.527 66.4571H95.1407V69.3074H89.7301V83.2456H86.9376V69.3074H81.527V66.4571Z" fill="black"/>
<path d="M101.059 66.4571V78.6922L109.192 66.4571H111.915V83.2456H109.122V70.802L100.85 83.2456H98.2665V66.4571H101.059Z" fill="black"/>
<path d="M127.183 83.2456V75.9463H119.399V83.2456H116.606V66.4571H119.399V73.1308H127.183V66.4571H129.976V83.2456H127.183Z" fill="black"/>
<path d="M134.639 66.4571H144.588V69.3074H137.432V83.2456H134.639V66.4571Z" fill="black"/>
<path d="M161.63 78.1361C161.374 79.063 160.955 79.9436 160.374 80.7778C159.792 81.5888 159.001 82.2492 158 82.759C156.999 83.2688 155.731 83.5237 154.195 83.5237C152.636 83.5237 151.263 83.1414 150.076 82.3767C148.889 81.5888 147.958 80.5345 147.284 79.2136C146.632 77.8928 146.306 76.4329 146.306 74.834C146.306 73.2119 146.632 71.7521 147.284 70.4544C147.958 69.1567 148.889 68.1256 150.076 67.3609C151.263 66.573 152.636 66.1791 154.195 66.1791C155.801 66.1791 157.185 66.5614 158.349 67.3261C159.513 68.0908 160.409 69.1452 161.037 70.4892C161.688 71.8332 162.014 73.3626 162.014 75.0773C162.014 75.1468 162.014 75.2164 162.014 75.2859C162.014 75.3554 162.014 75.4249 162.014 75.4944H149.134C149.25 77.047 149.75 78.2983 150.635 79.2484C151.542 80.1985 152.729 80.6735 154.195 80.6735C155.498 80.6735 156.546 80.4534 157.337 80.0131C158.128 79.5496 158.71 78.924 159.082 78.1361H161.63ZM154.195 69.0293C152.776 69.0293 151.635 69.4348 150.774 70.2458C149.936 71.0337 149.413 72.1112 149.203 73.4784H159.117C158.954 72.2503 158.477 71.2075 157.686 70.3501C156.918 69.4696 155.754 69.0293 154.195 69.0293Z" fill="black"/>
<path d="M4.65292 107.115C5.18816 106.026 5.90956 105.226 6.81714 104.717C7.72472 104.184 8.86501 103.917 10.238 103.917C11.8437 103.917 13.2284 104.288 14.3919 105.029C15.5555 105.748 16.4398 106.756 17.0448 108.054C17.6732 109.328 17.9873 110.788 17.9873 112.433C17.9873 114.078 17.6732 115.573 17.0448 116.917C16.4398 118.238 15.5555 119.292 14.3919 120.08C13.2516 120.868 11.8786 121.262 10.2729 121.262C9.01627 121.262 7.93416 121.042 7.02658 120.601C6.11901 120.138 5.37433 119.42 4.79255 118.446V127.936H2V104.195H4.65292V107.115ZM9.78422 118.342C11.5994 118.342 12.9491 117.786 13.8334 116.674C14.7177 115.561 15.1599 114.148 15.1599 112.433C15.1599 110.718 14.7061 109.363 13.7985 108.366C12.9142 107.347 11.5645 106.837 9.74931 106.837C8.51594 106.837 7.48037 107.022 6.64261 107.393C5.80484 107.741 5.18816 108.32 4.79255 109.131V116.118C5.18816 116.905 5.80484 117.473 6.64261 117.821C7.50364 118.168 8.55085 118.342 9.78422 118.342Z" fill="black"/>
<path d="M33.363 121.053C32.5717 121.053 31.9201 120.833 31.4082 120.393C30.8962 119.929 30.5937 119.234 30.5006 118.307C29.9188 119.234 29.2207 119.941 28.4062 120.428C27.615 120.891 26.6725 121.123 25.5787 121.123C24.1127 121.123 22.9258 120.74 22.0182 119.976C21.1107 119.211 20.6569 118.076 20.6569 116.569C20.6569 115.619 20.8314 114.831 21.1805 114.206C21.5295 113.557 22.0532 113.012 22.7513 112.572C23.4494 112.132 24.3105 111.715 25.3344 111.321L30.3261 109.374C30.233 108.401 29.8606 107.729 29.2091 107.358C28.5807 106.988 27.8244 106.802 26.9401 106.802C26.0093 106.802 25.218 106.999 24.5664 107.393C23.9381 107.764 23.5541 108.355 23.4145 109.166H20.7965C20.9594 107.938 21.3434 106.941 21.9484 106.177C22.5535 105.412 23.2982 104.844 24.1825 104.473C25.0668 104.103 25.986 103.917 26.9401 103.917C28.8251 103.917 30.3261 104.415 31.4431 105.412C32.5601 106.385 33.107 107.914 33.0837 110L33.0139 116.43C33.0139 117.102 33.107 117.566 33.2931 117.821C33.4793 118.076 33.7818 118.203 34.2007 118.203H34.864V120.984C34.6312 121.007 34.3753 121.019 34.096 121.019C33.84 121.042 33.5957 121.053 33.363 121.053ZM23.4494 116.083C23.4494 116.847 23.7054 117.415 24.2174 117.786C24.7526 118.134 25.4857 118.307 26.4165 118.307C27.2543 118.307 28.0106 118.191 28.6854 117.96C29.3603 117.705 29.8839 117.369 30.2563 116.952L30.3261 111.495L27.2194 112.746C25.8696 113.279 24.9039 113.777 24.3221 114.241C23.7403 114.704 23.4494 115.318 23.4494 116.083Z" fill="black"/>
<path d="M45.7884 104.369C47.3476 104.369 48.6624 104.717 49.7329 105.412C50.8266 106.107 51.6644 107.069 52.2462 108.297C52.828 109.525 53.1189 110.95 53.1189 112.572C53.1189 114.194 52.8047 115.666 52.1764 116.987C51.5713 118.284 50.6754 119.327 49.4886 120.115C48.3017 120.88 46.824 121.262 45.0554 121.262C43.31 121.262 41.8207 120.856 40.5873 120.045C39.3772 119.211 38.4464 118.018 37.7948 116.465C37.1664 114.889 36.8523 112.978 36.8523 110.73C36.8523 108.274 37.0617 106.13 37.4806 104.3C37.9228 102.446 38.714 100.951 39.8543 99.8157C40.9946 98.6802 42.6119 97.9619 44.7063 97.6606L51.7226 96.6179V99.6419L45.1601 100.685C43.8569 100.893 42.833 101.276 42.0883 101.832C41.3436 102.388 40.7968 103.129 40.4477 104.056C40.1219 104.96 39.9008 106.061 39.7845 107.358C40.5059 106.269 41.3785 105.505 42.4025 105.064C43.4264 104.601 44.5551 104.369 45.7884 104.369ZM45.2648 107.185C44.0547 107.185 42.9842 107.37 42.0534 107.741C41.1226 108.088 40.3546 108.668 39.7495 109.479V111.703C39.7495 113.812 40.215 115.434 41.1458 116.569C42.0999 117.705 43.4031 118.273 45.0554 118.273C46.6378 118.273 47.9061 117.786 48.8602 116.813C49.8144 115.816 50.2914 114.403 50.2914 112.572C50.2914 110.742 49.826 109.386 48.8951 108.505C47.9876 107.625 46.7775 107.185 45.2648 107.185Z" fill="black"/>
<path d="M63.8333 103.917C65.4856 103.917 66.9168 104.3 68.1269 105.064C69.3603 105.829 70.3144 106.872 70.9893 108.193C71.6874 109.49 72.0364 110.95 72.0364 112.572C72.0364 114.194 71.6874 115.666 70.9893 116.987C70.3144 118.284 69.3603 119.327 68.1269 120.115C66.9168 120.88 65.4856 121.262 63.8333 121.262C62.2044 121.262 60.7732 120.88 59.5398 120.115C58.3064 119.327 57.3407 118.284 56.6425 116.987C55.9677 115.666 55.6302 114.194 55.6302 112.572C55.6302 110.95 55.9677 109.49 56.6425 108.193C57.3407 106.872 58.3064 105.829 59.5398 105.064C60.7732 104.3 62.2044 103.917 63.8333 103.917ZM63.8333 106.906C62.2044 106.906 60.9012 107.428 59.9238 108.471C58.9464 109.513 58.4577 110.881 58.4577 112.572C58.4577 114.264 58.9464 115.643 59.9238 116.708C60.9012 117.751 62.2044 118.273 63.8333 118.273C65.4623 118.273 66.7655 117.751 67.7429 116.708C68.7203 115.643 69.209 114.264 69.209 112.572C69.209 110.881 68.7203 109.513 67.7429 108.471C66.7655 107.428 65.4623 106.906 63.8333 106.906Z" fill="black"/>
<path d="M73.7548 104.195H87.3685V107.046H81.9579V120.984H79.1654V107.046H73.7548V104.195Z" fill="black"/>
<path d="M97.2744 103.917C98.9266 103.917 100.358 104.3 101.568 105.064C102.801 105.829 103.755 106.872 104.43 108.193C105.128 109.49 105.477 110.95 105.477 112.572C105.477 114.194 105.128 115.666 104.43 116.987C103.755 118.284 102.801 119.327 101.568 120.115C100.358 120.88 98.9266 121.262 97.2744 121.262C95.6454 121.262 94.2142 120.88 92.9808 120.115C91.7474 119.327 90.7817 118.284 90.0835 116.987C89.4087 115.666 89.0713 114.194 89.0713 112.572C89.0713 110.95 89.4087 109.49 90.0835 108.193C90.7817 106.872 91.7474 105.829 92.9808 105.064C94.2142 104.3 95.6454 103.917 97.2744 103.917ZM97.2744 106.906C95.6454 106.906 94.3422 107.428 93.3648 108.471C92.3874 109.513 91.8987 110.881 91.8987 112.572C91.8987 114.264 92.3874 115.643 93.3648 116.708C94.3422 117.751 95.6454 118.273 97.2744 118.273C98.9033 118.273 100.207 117.751 101.184 116.708C102.161 115.643 102.65 114.264 102.65 112.572C102.65 110.881 102.161 109.513 101.184 108.471C100.207 107.428 98.9033 106.906 97.2744 106.906Z" fill="black"/>
<path d="M106.67 125.363V118.168H108.136C109.299 116.94 110.149 115.225 110.684 113.024C111.243 110.799 111.533 107.857 111.557 104.195H121.889V118.168H124.402V125.363H121.715V120.984H109.358V125.363H106.67ZM113.93 107.011C113.861 109.351 113.628 111.448 113.232 113.302C112.837 115.156 112.173 116.778 111.243 118.168H119.097V107.011H113.93Z" fill="black"/>
<path d="M138.765 121.053C137.974 121.053 137.322 120.833 136.81 120.393C136.298 119.929 135.996 119.234 135.903 118.307C135.321 119.234 134.623 119.941 133.808 120.428C133.017 120.891 132.075 121.123 130.981 121.123C129.515 121.123 128.328 120.74 127.42 119.976C126.513 119.211 126.059 118.076 126.059 116.569C126.059 115.619 126.234 114.831 126.583 114.206C126.932 113.557 127.455 113.012 128.154 112.572C128.852 112.132 129.713 111.715 130.737 111.321L135.728 109.374C135.635 108.401 135.263 107.729 134.611 107.358C133.983 106.988 133.227 106.802 132.342 106.802C131.412 106.802 130.62 106.999 129.969 107.393C129.34 107.764 128.956 108.355 128.817 109.166H126.199C126.362 107.938 126.746 106.941 127.351 106.177C127.956 105.412 128.7 104.844 129.585 104.473C130.469 104.103 131.388 103.917 132.342 103.917C134.227 103.917 135.728 104.415 136.845 105.412C137.962 106.385 138.509 107.914 138.486 110L138.416 116.43C138.416 117.102 138.509 117.566 138.695 117.821C138.882 118.076 139.184 118.203 139.603 118.203H140.266V120.984C140.033 121.007 139.778 121.019 139.498 121.019C139.242 121.042 138.998 121.053 138.765 121.053ZM128.852 116.083C128.852 116.847 129.108 117.415 129.62 117.786C130.155 118.134 130.888 118.307 131.819 118.307C132.657 118.307 133.413 118.191 134.088 117.96C134.763 117.705 135.286 117.369 135.659 116.952L135.728 111.495L132.622 112.746C131.272 113.279 130.306 113.777 129.724 114.241C129.143 114.704 128.852 115.318 128.852 116.083Z" fill="black"/>
<path d="M141.08 104.195H154.694V107.046H149.283V120.984H146.491V107.046H141.08V104.195Z" fill="black"/>
<path d="M171.721 115.874C171.465 116.801 171.046 117.682 170.464 118.516C169.882 119.327 169.091 119.987 168.09 120.497C167.09 121.007 165.821 121.262 164.285 121.262C162.726 121.262 161.353 120.88 160.166 120.115C158.98 119.327 158.049 118.273 157.374 116.952C156.722 115.631 156.396 114.171 156.396 112.572C156.396 110.95 156.722 109.49 157.374 108.193C158.049 106.895 158.98 105.864 160.166 105.099C161.353 104.311 162.726 103.917 164.285 103.917C165.891 103.917 167.276 104.3 168.439 105.064C169.603 105.829 170.499 106.883 171.127 108.227C171.779 109.571 172.105 111.101 172.105 112.815C172.105 112.885 172.105 112.955 172.105 113.024C172.105 113.094 172.105 113.163 172.105 113.233H159.224C159.34 114.785 159.841 116.036 160.725 116.987C161.632 117.937 162.819 118.412 164.285 118.412C165.589 118.412 166.636 118.191 167.427 117.751C168.218 117.288 168.8 116.662 169.172 115.874H171.721ZM164.285 106.767C162.866 106.767 161.726 107.173 160.865 107.984C160.027 108.772 159.503 109.849 159.294 111.217H169.207C169.044 109.988 168.567 108.946 167.776 108.088C167.008 107.208 165.845 106.767 164.285 106.767Z" fill="black"/>
<path d="M173.42 117.995C173.56 118.018 173.734 118.052 173.944 118.099C174.177 118.122 174.433 118.134 174.712 118.134C175.48 118.134 176.038 117.624 176.387 116.604C176.736 115.585 177.027 114.02 177.26 111.912C177.376 110.753 177.47 109.548 177.539 108.297C177.609 107.046 177.656 105.678 177.679 104.195H188.011V120.984H185.219V107.011H180.053C180.029 107.868 179.983 108.772 179.913 109.722C179.866 110.649 179.808 111.529 179.738 112.364C179.576 114.472 179.331 116.175 179.005 117.473C178.703 118.771 178.261 119.709 177.679 120.289C177.097 120.868 176.294 121.158 175.27 121.158C174.921 121.158 174.584 121.134 174.258 121.088C173.932 121.042 173.653 120.972 173.42 120.88V117.995Z" fill="black"/>
<path d="M206.934 115.874C206.678 116.801 206.259 117.682 205.678 118.516C205.096 119.327 204.304 119.987 203.304 120.497C202.303 121.007 201.035 121.262 199.499 121.262C197.94 121.262 196.567 120.88 195.38 120.115C194.193 119.327 193.262 118.273 192.587 116.952C191.936 115.631 191.61 114.171 191.61 112.572C191.61 110.95 191.936 109.49 192.587 108.193C193.262 106.895 194.193 105.864 195.38 105.099C196.567 104.311 197.94 103.917 199.499 103.917C201.105 103.917 202.489 104.3 203.653 105.064C204.816 105.829 205.712 106.883 206.341 108.227C206.992 109.571 207.318 111.101 207.318 112.815C207.318 112.885 207.318 112.955 207.318 113.024C207.318 113.094 207.318 113.163 207.318 113.233H194.438C194.554 114.785 195.054 116.036 195.938 116.987C196.846 117.937 198.033 118.412 199.499 118.412C200.802 118.412 201.849 118.191 202.641 117.751C203.432 117.288 204.014 116.662 204.386 115.874H206.934ZM199.499 106.767C198.079 106.767 196.939 107.173 196.078 107.984C195.24 108.772 194.717 109.849 194.507 111.217H204.421C204.258 109.988 203.781 108.946 202.99 108.088C202.222 107.208 201.058 106.767 199.499 106.767Z" fill="black"/>
<path d="M213.62 104.195V116.43L221.753 104.195H224.476V120.984H221.683V108.54L213.41 120.984H210.827V104.195H213.62ZM215.644 98.7381C215.877 99.3175 216.18 99.7577 216.552 100.059C216.948 100.36 217.471 100.511 218.123 100.511C218.798 100.511 219.321 100.36 219.694 100.059C220.066 99.7577 220.369 99.3175 220.601 98.7381H222.765C222.649 99.9199 222.242 100.928 221.544 101.762C220.846 102.573 219.705 102.979 218.123 102.979C216.564 102.979 215.423 102.573 214.702 101.762C214.004 100.928 213.597 99.9199 213.48 98.7381H215.644Z" fill="black"/>
<path d="M2.17453 158.722V135.086H15.6835V138.319H5.10671V145.757H13.24V148.399H5.10671V158.722H2.17453Z" fill="black"/>
<path d="M25.1086 141.655C26.7608 141.655 28.192 142.038 29.4021 142.802C30.6355 143.567 31.5896 144.61 32.2645 145.931C32.9626 147.228 33.3117 148.688 33.3117 150.31C33.3117 151.932 32.9626 153.404 32.2645 154.725C31.5896 156.022 30.6355 157.065 29.4021 157.853C28.192 158.618 26.7608 159 25.1086 159C23.4796 159 22.0484 158.618 20.8151 157.853C19.5817 157.065 18.6159 156.022 17.9178 154.725C17.2429 153.404 16.9055 151.932 16.9055 150.31C16.9055 148.688 17.2429 147.228 17.9178 145.931C18.6159 144.61 19.5817 143.567 20.8151 142.802C22.0484 142.038 23.4796 141.655 25.1086 141.655ZM25.1086 144.645C23.4796 144.645 22.1764 145.166 21.199 146.209C20.2216 147.252 19.7329 148.619 19.7329 150.31C19.7329 152.002 20.2216 153.381 21.199 154.447C22.1764 155.489 23.4796 156.011 25.1086 156.011C26.7376 156.011 28.0408 155.489 29.0182 154.447C29.9955 153.381 30.4842 152.002 30.4842 150.31C30.4842 148.619 29.9955 147.252 29.0182 146.209C28.0408 145.166 26.7376 144.645 25.1086 144.645Z" fill="black"/>
<path d="M45.8779 141.76V144.888C45.7383 144.842 45.5404 144.807 45.2845 144.784C45.0518 144.76 44.7725 144.749 44.4467 144.749C43.5159 144.749 42.6083 144.9 41.724 145.201C40.8629 145.502 40.1881 146.058 39.6994 146.869V158.722H36.9068V141.933H39.4899V144.992C39.9786 143.973 40.7 143.185 41.6542 142.629C42.6315 142.049 43.8416 141.76 45.2845 141.76H45.8779Z" fill="black"/>
<path d="M51.5281 144.575C52.1099 143.602 52.8546 142.872 53.7622 142.385C54.6698 141.899 55.7519 141.655 57.0085 141.655C58.6142 141.655 59.9872 142.038 61.1275 142.802C62.2911 143.544 63.1754 144.564 63.7804 145.861C64.4088 147.159 64.7229 148.63 64.7229 150.276C64.7229 151.921 64.4088 153.404 63.7804 154.725C63.1754 156.046 62.2911 157.088 61.1275 157.853C59.964 158.618 58.5793 159 56.9736 159C55.6006 159 54.4487 158.734 53.5178 158.201C52.587 157.668 51.8772 156.903 51.3885 155.906V158.722H48.7356V135.086H51.5281V144.575ZM56.4849 156.08C58.3001 156.08 59.6498 155.536 60.5341 154.447C61.4417 153.357 61.8955 151.967 61.8955 150.276C61.8955 148.561 61.4533 147.182 60.569 146.139C59.6847 145.096 58.335 144.575 56.5198 144.575C55.2864 144.575 54.2392 144.76 53.3782 145.131C52.5404 145.479 51.9238 146.058 51.5281 146.869V153.786C51.9238 154.574 52.5404 155.153 53.3782 155.524C54.216 155.895 55.2515 156.08 56.4849 156.08Z" fill="black"/>
<path d="M82.6468 153.612C82.3908 154.539 81.9719 155.42 81.3901 156.254C80.8083 157.065 80.0171 157.726 79.0164 158.235C78.0158 158.745 76.7475 159 75.2116 159C73.6524 159 72.2794 158.618 71.0926 157.853C69.9058 157.065 68.9749 156.011 68.3001 154.69C67.6485 153.369 67.3227 151.909 67.3227 150.31C67.3227 148.688 67.6485 147.228 68.3001 145.931C68.9749 144.633 69.9058 143.602 71.0926 142.837C72.2794 142.049 73.6524 141.655 75.2116 141.655C76.8173 141.655 78.202 142.038 79.3655 142.802C80.5291 143.567 81.425 144.621 82.0533 145.965C82.7049 147.309 83.0307 148.839 83.0307 150.554C83.0307 150.623 83.0307 150.693 83.0307 150.762C83.0307 150.832 83.0307 150.901 83.0307 150.971H70.1501C70.2665 152.523 70.7668 153.775 71.6511 154.725C72.5587 155.675 73.7455 156.15 75.2116 156.15C76.5148 156.15 77.562 155.93 78.3532 155.489C79.1444 155.026 79.7262 154.4 80.0986 153.612H82.6468ZM75.2116 144.506C73.7921 144.506 72.6518 144.911 71.7907 145.722C70.953 146.51 70.4294 147.588 70.2199 148.955H80.1335C79.9706 147.727 79.4935 146.684 78.7023 145.826C77.9343 144.946 76.7708 144.506 75.2116 144.506Z" fill="black"/>
<path d="M91.8458 156.15C92.9628 156.15 93.882 155.976 94.6034 155.628C95.3481 155.258 95.7205 154.678 95.7205 153.89C95.7205 153.079 95.3947 152.512 94.7431 152.187C94.0915 151.84 92.9977 151.515 91.4618 151.214C90.3913 151.005 89.4256 150.751 88.5646 150.449C87.7268 150.148 87.0636 149.696 86.5749 149.094C86.0862 148.468 85.8418 147.599 85.8418 146.487C85.8418 145.004 86.3887 143.834 87.4824 142.976C88.5995 142.096 90.0074 141.655 91.7062 141.655C92.7999 141.655 93.8006 141.841 94.7082 142.211C95.6157 142.559 96.3488 143.104 96.9073 143.845C97.4891 144.587 97.8149 145.548 97.8847 146.73H95.4412C95.2783 145.873 94.8711 145.282 94.2195 144.957C93.5679 144.633 92.7301 144.471 91.7062 144.471C90.7753 144.471 89.9957 144.633 89.3674 144.957C88.7391 145.282 88.4249 145.803 88.4249 146.522C88.4249 147.008 88.5762 147.402 88.8787 147.703C89.1813 148.005 89.6234 148.26 90.2052 148.468C90.787 148.653 91.5084 148.839 92.3694 149.024C93.5097 149.256 94.522 149.522 95.4063 149.824C96.3139 150.125 97.0236 150.577 97.5356 151.179C98.0476 151.782 98.3036 152.674 98.3036 153.856C98.3036 155.014 98.001 155.976 97.396 156.741C96.7909 157.505 95.9997 158.073 95.0223 158.444C94.0449 158.815 92.9861 159 91.8458 159C90.0074 159 88.4831 158.537 87.273 157.61C86.0862 156.683 85.4113 155.304 85.2484 153.473H87.7268C87.8897 154.354 88.3318 155.026 89.0533 155.489C89.7747 155.93 90.7055 156.15 91.8458 156.15Z" fill="black"/>
<path d="M116.93 158.722H110.402V141.933H116.65C118.372 141.933 119.745 142.316 120.769 143.08C121.793 143.845 122.305 144.934 122.305 146.348C122.305 147.228 122.084 147.981 121.642 148.607C121.2 149.233 120.618 149.638 119.897 149.824C120.851 149.986 121.619 150.403 122.201 151.075C122.806 151.724 123.108 152.616 123.108 153.751C123.108 155.374 122.573 156.613 121.502 157.471C120.455 158.305 118.931 158.722 116.93 158.722ZM113.125 144.645V149.094H116.65C117.581 149.094 118.291 148.92 118.78 148.572C119.292 148.202 119.548 147.622 119.548 146.834C119.548 146.093 119.327 145.548 118.884 145.201C118.442 144.83 117.744 144.645 116.79 144.645H113.125ZM113.125 151.005V156.011H116.65C117.954 156.011 118.884 155.814 119.443 155.42C120.025 155.003 120.316 154.365 120.316 153.508C120.316 152.628 120.025 151.99 119.443 151.596C118.861 151.202 117.954 151.005 116.72 151.005H113.125Z" fill="black"/>
<path d="M135.495 158.722V135.086H142.302C144.141 135.086 145.653 135.399 146.84 136.024C148.05 136.65 148.958 137.519 149.563 138.631C150.168 139.72 150.47 141.007 150.47 142.49C150.47 143.949 150.168 145.224 149.563 146.313C148.958 147.379 148.05 148.202 146.84 148.781C145.653 149.36 144.141 149.65 142.302 149.65H138.428V158.722H135.495ZM142.093 138.319H138.428V146.869H142.093C143.745 146.869 145.06 146.51 146.037 145.792C147.038 145.05 147.538 143.949 147.538 142.49C147.538 141.03 147.038 139.975 146.037 139.327C145.06 138.655 143.745 138.319 142.093 138.319Z" fill="black"/>
<path d="M160.645 141.655C162.297 141.655 163.729 142.038 164.939 142.802C166.172 143.567 167.126 144.61 167.801 145.931C168.499 147.228 168.848 148.688 168.848 150.31C168.848 151.932 168.499 153.404 167.801 154.725C167.126 156.022 166.172 157.065 164.939 157.853C163.729 158.618 162.297 159 160.645 159C159.016 159 157.585 158.618 156.352 157.853C155.118 157.065 154.153 156.022 153.454 154.725C152.78 153.404 152.442 151.932 152.442 150.31C152.442 148.688 152.78 147.228 153.454 145.931C154.153 144.61 155.118 143.567 156.352 142.802C157.585 142.038 159.016 141.655 160.645 141.655ZM160.645 144.645C159.016 144.645 157.713 145.166 156.736 146.209C155.758 147.252 155.27 148.619 155.27 150.31C155.27 152.002 155.758 153.381 156.736 154.447C157.713 155.489 159.016 156.011 160.645 156.011C162.274 156.011 163.577 155.489 164.555 154.447C165.532 153.381 166.021 152.002 166.021 150.31C166.021 148.619 165.532 147.252 164.555 146.209C163.577 145.166 162.274 144.645 160.645 144.645Z" fill="black"/>
<path d="M179.39 141.621C181.298 141.621 182.892 142.13 184.172 143.15C185.475 144.17 186.325 145.572 186.72 147.356H184.172C183.939 146.591 183.416 145.942 182.601 145.409C181.81 144.876 180.705 144.61 179.285 144.61C177.656 144.61 176.4 145.143 175.515 146.209C174.631 147.275 174.189 148.63 174.189 150.276C174.189 151.898 174.631 153.253 175.515 154.342C176.4 155.431 177.656 155.976 179.285 155.976C180.705 155.976 181.81 155.71 182.601 155.177C183.416 154.644 183.939 153.995 184.172 153.23H186.72C186.325 154.991 185.475 156.393 184.172 157.436C182.892 158.455 181.298 158.965 179.39 158.965C177.761 158.965 176.341 158.583 175.131 157.818C173.921 157.03 172.99 155.976 172.339 154.655C171.687 153.334 171.361 151.874 171.361 150.276C171.361 148.653 171.687 147.194 172.339 145.896C172.99 144.598 173.921 143.567 175.131 142.802C176.341 142.015 177.761 141.621 179.39 141.621Z" fill="black"/>
<path d="M197.116 141.621C199.024 141.621 200.618 142.13 201.898 143.15C203.201 144.17 204.051 145.572 204.446 147.356H201.898C201.666 146.591 201.142 145.942 200.327 145.409C199.536 144.876 198.431 144.61 197.011 144.61C195.382 144.61 194.126 145.143 193.241 146.209C192.357 147.275 191.915 148.63 191.915 150.276C191.915 151.898 192.357 153.253 193.241 154.342C194.126 155.431 195.382 155.976 197.011 155.976C198.431 155.976 199.536 155.71 200.327 155.177C201.142 154.644 201.666 153.995 201.898 153.23H204.446C204.051 154.991 203.201 156.393 201.898 157.436C200.618 158.455 199.024 158.965 197.116 158.965C195.487 158.965 194.068 158.583 192.857 157.818C191.647 157.03 190.716 155.976 190.065 154.655C189.413 153.334 189.087 151.874 189.087 150.276C189.087 148.653 189.413 147.194 190.065 145.896C190.716 144.598 191.647 143.567 192.857 142.802C194.068 142.015 195.487 141.621 197.116 141.621Z" fill="black"/>
<path d="M210.688 141.933V154.169L218.822 141.933H221.544V158.722H218.752V146.278L210.479 158.722H207.896V141.933H210.688Z" fill="black"/>
<path d="M229.028 141.933V154.169L237.161 141.933H239.884V158.722H237.091V146.278L228.819 158.722H226.235V141.933H229.028Z" fill="black"/>
</g>
</g>
</svg>
