<svg width="286" height="110" viewBox="0 0 286 110" fill="none" xmlns="http://www.w3.org/2000/svg">
<g id="Frame 4">
<g id="50 &#208;&#188;&#208;&#187;&#208;&#189;">
<path d="M6.10855 1.18812H36.2271V12.8147H13.8291L12.7262 23.4229C13.9705 22.8006 15.3562 22.3479 16.8834 22.0651C18.4671 21.7256 20.1356 21.5559 21.889 21.5559C25.3392 21.5559 28.4783 22.2348 31.3063 23.5926C34.1344 24.8939 36.3968 26.9307 38.0936 29.703C39.847 32.4187 40.7237 35.8982 40.7237 40.1414C40.7237 44.3281 39.7904 47.9208 37.9239 50.9194C36.114 53.8614 33.6536 56.1245 30.5428 57.7086C27.4319 59.2362 23.9252 60 20.0225 60C16.2329 60 12.8676 59.2362 9.9264 57.7086C6.98524 56.181 4.63798 53.9745 2.88459 51.0891C1.18777 48.1471 0.226243 44.6393 0 40.5658H10.5203C10.9728 42.8854 11.9909 44.7242 13.5746 46.082C15.2148 47.4399 17.3641 48.1188 20.0225 48.1188C22.7374 48.1188 24.8584 47.355 26.3856 45.8274C27.9127 44.2999 28.6763 42.2065 28.6763 39.5474C28.6763 36.8883 27.8844 34.8232 26.3007 33.3522C24.7736 31.8246 22.6808 31.0608 20.0225 31.0608C18.0994 31.0608 16.346 31.372 14.7623 31.9943C13.1786 32.5601 11.906 33.3805 10.9445 34.4554L3.05428 31.6549L6.10855 1.18812Z" fill="black"/>
<path d="M68.5489 0C72.9606 0 76.7502 1.07496 79.9176 3.22489C83.1415 5.31825 85.6302 8.59972 87.3836 13.0693C89.137 17.4823 90.0137 23.14 90.0137 30.0424C90.0137 36.9448 89.137 42.6025 87.3836 47.0156C85.6302 51.4286 83.1415 54.71 79.9176 56.86C76.7502 58.9533 72.9606 60 68.5489 60C64.1937 60 60.4042 58.9533 57.1802 56.86C54.0128 54.71 51.5524 51.4286 49.799 47.0156C48.0456 42.6025 47.169 36.9448 47.169 30.0424C47.169 23.14 48.0456 17.4823 49.799 13.0693C51.5524 8.59972 54.0128 5.31825 57.1802 3.22489C60.4042 1.07496 64.1937 0 68.5489 0ZM68.5489 12.3055C64.929 12.3055 62.3555 13.7482 60.8284 16.6337C59.3012 19.5191 58.5376 23.9887 58.5376 30.0424C58.5376 36.0962 59.3012 40.5658 60.8284 43.4512C62.3555 46.3366 64.929 47.7794 68.5489 47.7794C72.2253 47.7794 74.8271 46.3366 76.3543 43.4512C77.8814 40.5658 78.645 36.0962 78.645 30.0424C78.645 23.9887 77.8814 19.5191 76.3543 16.6337C74.8271 13.7482 72.2253 12.3055 68.5489 12.3055Z" fill="black"/>
<path d="M128.548 58.8967H118.197V16.6337H132.366L142.632 37.0014L152.982 16.6337H166.557V58.8967H155.952V31.4851L144.583 53.3805H139.917L128.548 31.4851V58.8967Z" fill="black"/>
<path d="M172.299 47.6096C172.639 47.6096 173.007 47.6379 173.402 47.6945C173.855 47.6945 174.279 47.6945 174.675 47.6945C176.372 47.6945 177.644 46.9873 178.493 45.5728C179.398 44.1584 180.02 41.867 180.359 38.6987C180.642 36.2093 180.897 33.0976 181.123 29.3635C181.406 25.6294 181.604 21.3861 181.717 16.6337H211.242V58.8967H200.552V27.9208H190.54C190.484 29.9576 190.371 32.1358 190.201 34.4554C190.088 36.7185 189.946 38.8119 189.777 40.7355C189.381 45.2051 188.73 48.826 187.825 51.5983C186.92 54.314 185.62 56.2942 183.923 57.5389C182.282 58.7836 180.161 59.4059 177.56 59.4059C176.655 59.4059 175.721 59.3494 174.76 59.2362C173.798 59.1231 172.978 58.9816 172.299 58.8119V47.6096Z" fill="black"/>
<path d="M246.31 58.8967V42.942H231.293V58.8967H220.603V16.6337H231.293V31.6549H246.31V16.6337H257V58.8967H246.31Z" fill="black"/>
</g>
<g id="&#208;&#186;&#208;&#187;&#208;&#184;&#208;&#181;&#208;&#189;&#209;&#130;&#208;&#190;&#208;&#178;">
<path d="M10.6638 109.679L3.19516 100.1V109.679H0V90.3206H3.19516V99.4188L10.9035 90.3206H14.5779L6.62995 99.4188L14.6578 109.679H10.6638Z" fill="black"/>
<path d="M15.3929 106.232C15.5527 106.259 15.7524 106.299 15.992 106.353C16.2583 106.379 16.5512 106.393 16.8707 106.393C17.7493 106.393 18.3884 105.805 18.7878 104.629C19.1872 103.454 19.52 101.65 19.7863 99.2184C19.9194 97.8824 20.0259 96.493 20.1058 95.0501C20.1857 93.6072 20.2389 92.0307 20.2655 90.3206H32.0876V109.679H28.8925V93.5671H22.9814C22.9548 94.5558 22.9015 95.5979 22.8217 96.6934C22.7684 97.7622 22.7018 98.7776 22.622 99.7395C22.4356 102.171 22.156 104.135 21.7832 105.631C21.4371 107.128 20.9312 108.21 20.2655 108.878C19.5999 109.546 18.6813 109.88 17.5097 109.88C17.1103 109.88 16.7242 109.853 16.3515 109.8C15.9787 109.746 15.6592 109.666 15.3929 109.559V106.232Z" fill="black"/>
<path d="M40.6384 90.3206V104.429L49.9443 90.3206H53.0596V109.679H49.8644V95.3307L40.3988 109.679H37.4433V90.3206H40.6384Z" fill="black"/>
<path d="M74.7224 103.788C74.4295 104.856 73.9502 105.872 73.2846 106.834C72.6189 107.769 71.7136 108.53 70.5687 109.118C69.4237 109.706 67.9726 110 66.2153 110C64.4313 110 62.8604 109.559 61.5024 108.677C60.1445 107.769 59.0794 106.553 58.3073 105.03C57.5617 103.507 57.1889 101.824 57.1889 99.98C57.1889 98.1096 57.5617 96.4262 58.3073 94.9299C59.0794 93.4335 60.1445 92.2445 61.5024 91.3627C62.8604 90.4542 64.4313 90 66.2153 90C68.0525 90 69.6367 90.4409 70.9681 91.3226C72.2994 92.2044 73.3245 93.4202 74.0434 94.9699C74.7889 96.5197 75.1617 98.2832 75.1617 100.261C75.1617 100.341 75.1617 100.421 75.1617 100.501C75.1617 100.581 75.1617 100.661 75.1617 100.741H60.424C60.5572 102.532 61.1297 103.975 62.1414 105.07C63.1799 106.166 64.5378 106.713 66.2153 106.713C67.7064 106.713 68.9045 106.46 69.8098 105.952C70.7151 105.418 71.3808 104.696 71.8068 103.788H74.7224ZM66.2153 93.2866C64.5911 93.2866 63.2864 93.7542 62.3012 94.6894C61.3427 95.5979 60.7436 96.8403 60.5039 98.4168H71.8467C71.6604 97.0007 71.1145 95.7983 70.2092 94.8096C69.3306 93.7943 67.9992 93.2866 66.2153 93.2866Z" fill="black"/>
<path d="M91.2785 109.679V101.263H82.372V109.679H79.1769V90.3206H82.372V98.016H91.2785V90.3206H94.4737V109.679H91.2785Z" fill="black"/>
<path d="M98.0523 90.3206H113.629V93.6072H107.438V109.679H104.243V93.6072H98.0523V90.3206Z" fill="black"/>
<path d="M124.963 90C126.853 90 128.491 90.4409 129.875 91.3226C131.287 92.2044 132.378 93.4068 133.15 94.9299C133.949 96.4262 134.349 98.1096 134.349 99.98C134.349 101.85 133.949 103.547 133.15 105.07C132.378 106.566 131.287 107.769 129.875 108.677C128.491 109.559 126.853 110 124.963 110C123.099 110 121.461 109.559 120.05 108.677C118.639 107.769 117.534 106.566 116.735 105.07C115.963 103.547 115.577 101.85 115.577 99.98C115.577 98.1096 115.963 96.4262 116.735 94.9299C117.534 93.4068 118.639 92.2044 120.05 91.3226C121.461 90.4409 123.099 90 124.963 90ZM124.963 93.4469C123.099 93.4469 121.608 94.0481 120.49 95.2505C119.371 96.4529 118.812 98.0294 118.812 99.98C118.812 101.931 119.371 103.52 120.49 104.749C121.608 105.952 123.099 106.553 124.963 106.553C126.827 106.553 128.318 105.952 129.436 104.749C130.554 103.52 131.113 101.931 131.113 99.98C131.113 98.0294 130.554 96.4529 129.436 95.2505C128.318 94.0481 126.827 93.4469 124.963 93.4469Z" fill="black"/>
<path d="M145.931 109.679H138.462V90.3206H145.611C147.582 90.3206 149.152 90.7615 150.324 91.6433C151.496 92.525 152.081 93.7809 152.081 95.4108C152.081 96.4262 151.828 97.2946 151.323 98.016C150.817 98.7375 150.151 99.2051 149.326 99.4188C150.417 99.6059 151.296 100.087 151.962 100.862C152.654 101.61 153 102.639 153 103.948C153 105.818 152.388 107.248 151.163 108.236C149.965 109.198 148.221 109.679 145.931 109.679ZM141.577 93.4469V98.5772H145.611C146.676 98.5772 147.488 98.3768 148.048 97.976C148.633 97.5484 148.926 96.8804 148.926 95.9719C148.926 95.1169 148.673 94.489 148.167 94.0882C147.661 93.6607 146.863 93.4469 145.771 93.4469H141.577ZM141.577 100.782V106.553H145.611C147.102 106.553 148.167 106.326 148.806 105.872C149.472 105.391 149.805 104.656 149.805 103.667C149.805 102.652 149.472 101.917 148.806 101.463C148.141 101.009 147.102 100.782 145.691 100.782H141.577Z" fill="black"/>
</g>
</g>
</svg>
