<svg width="286" height="117" viewBox="0 0 286 117" fill="none" xmlns="http://www.w3.org/2000/svg">
<g id="Frame 3">
<g id="29 &#208;&#187;&#208;&#181;&#209;&#130;">
<path d="M27.1003 19.4618C27.1003 17.3088 26.4773 15.5524 25.2313 14.1926C23.9853 12.7762 22.173 12.068 19.7943 12.068C17.3589 12.068 15.3767 12.8612 13.8475 14.4476C12.3183 15.9773 11.4121 18.017 11.129 20.5666H0C0.28318 16.0906 1.33094 12.3229 3.1433 9.26345C5.01228 6.20396 7.44763 3.90935 10.4493 2.3796C13.451 0.793201 16.7642 0 20.3889 0C24.2968 0 27.6667 0.736543 30.4985 2.20963C33.3303 3.68272 35.5107 5.72238 37.0399 8.32861C38.5691 10.9348 39.3337 13.9943 39.3337 17.5071C39.3337 20.3399 38.9372 22.8045 38.1443 24.9008C37.3514 26.9972 36.1621 28.9518 34.5762 30.7649C33.0471 32.5212 31.1498 34.3059 28.8843 36.119C26.6755 37.8754 24.0986 39.8584 21.1535 42.068C19.681 43.1445 18.4067 44.1076 17.3306 44.9575C16.2545 45.8074 15.32 46.5722 14.5271 47.2521H38.9089V58.9802H1.78403V51.5014C1.78403 49.4618 2.29376 47.6204 3.3132 45.9773C4.33265 44.2776 5.86182 42.5496 7.90071 40.7932C9.93961 38.9802 12.4316 36.9405 15.3767 34.6742C18.2085 32.5212 20.4739 30.6516 22.173 29.0652C23.9287 27.4221 25.1747 25.864 25.9109 24.3909C26.7038 22.8612 27.1003 21.2181 27.1003 19.4618Z" fill="black"/>
<path d="M45.3807 20.6516C45.3807 16.9122 46.1736 13.4844 47.7594 10.3683C49.4018 7.25212 51.7522 4.7592 54.8105 2.88952C57.9255 0.963172 61.6635 0 66.0245 0C69.366 0 72.3111 0.566572 74.8597 1.69972C77.4649 2.7762 79.6454 4.30595 81.4011 6.28895C83.1568 8.2153 84.4878 10.4816 85.394 13.0878C86.3568 15.6374 86.8382 18.3853 86.8382 21.3314C86.8382 24.1076 86.4417 26.7139 85.6488 29.1501C84.8559 31.5864 83.7232 34.051 82.2507 36.5439C80.7781 38.9802 78.9658 41.6147 76.8136 44.4476L65.9395 58.9802H53.3663L68.4032 39.3484C67.7802 39.4618 67.1005 39.5751 66.3643 39.6884C65.6846 39.745 64.9767 39.7734 64.2404 39.7734C60.3326 39.7734 56.9627 38.9802 54.1309 37.3938C51.2991 35.7507 49.1186 33.4844 47.5895 30.5949C46.1169 27.7054 45.3807 24.3909 45.3807 20.6516ZM66.0245 30.4249C67.8368 30.4249 69.4226 30.0567 70.7819 29.3201C72.1411 28.5269 73.1889 27.4221 73.9252 26.0057C74.6614 24.5892 75.0296 22.9745 75.0296 21.1615C75.0296 19.2918 74.6614 17.6771 73.9252 16.3173C73.1889 14.9575 72.1411 13.9093 70.7819 13.1728C69.4226 12.3796 67.8368 11.983 66.0245 11.983C64.2687 11.983 62.7113 12.3796 61.352 13.1728C59.9927 13.9093 58.9166 14.9575 58.1237 16.3173C57.3875 17.6771 57.0193 19.2918 57.0193 21.1615C57.0193 22.9745 57.3875 24.5892 58.1237 26.0057C58.9166 27.4221 59.9927 28.5269 61.352 29.3201C62.7113 30.0567 64.2687 30.4249 66.0245 30.4249Z" fill="black"/>
<path d="M110.554 47.6771C110.893 47.6771 111.262 47.7054 111.658 47.762C112.111 47.762 112.536 47.762 112.932 47.762C114.631 47.762 115.906 47.0538 116.755 45.6374C117.661 44.221 118.284 41.9263 118.624 38.7535C118.907 36.2606 119.162 33.1445 119.389 29.4051C119.672 25.6657 119.87 21.4164 119.983 16.6572H149.547V58.9802H138.843V27.9603H128.819C128.762 30 128.649 32.1813 128.479 34.5042C128.366 36.7705 128.224 38.8669 128.054 40.7932C127.658 45.2691 127.006 48.8952 126.1 51.6714C125.194 54.3909 123.891 56.3739 122.192 57.6204C120.55 58.8669 118.426 59.4901 115.821 59.4901C114.915 59.4901 113.98 59.4334 113.017 59.3201C112.054 59.2068 111.233 59.0652 110.554 58.8952V47.6771Z" fill="black"/>
<path d="M196.811 44.7875C196.245 47.6204 195.14 50.1983 193.498 52.5212C191.855 54.8442 189.675 56.6856 186.956 58.0453C184.238 59.3484 180.953 60 177.102 60C173.137 60 169.626 59.0935 166.567 57.2805C163.509 55.4108 161.102 52.8329 159.346 49.5467C157.591 46.204 156.713 42.3229 156.713 37.9037C156.713 33.4844 157.591 29.6034 159.346 26.2606C161.159 22.9178 163.622 20.3116 166.737 18.4419C169.852 16.5722 173.392 15.6374 177.357 15.6374C181.378 15.6374 184.889 16.5439 187.891 18.3569C190.949 20.1133 193.328 22.6346 195.027 25.9207C196.783 29.2068 197.661 33.1728 197.661 37.8187C197.661 38.2153 197.632 38.6969 197.576 39.2635C197.576 39.7734 197.547 40.2266 197.491 40.6232H167.332C167.785 43.5694 168.89 45.8074 170.645 47.3371C172.401 48.8102 174.638 49.5467 177.357 49.5467C180.018 49.5467 182.142 49.1218 183.728 48.272C185.314 47.3654 186.447 46.204 187.126 44.7875H196.811ZM177.357 26.0057C174.865 26.0057 172.741 26.6856 170.985 28.0453C169.286 29.3484 168.125 31.3031 167.502 33.9093H187.126C186.73 31.4164 185.654 29.4901 183.898 28.1303C182.199 26.7139 180.018 26.0057 177.357 26.0057Z" fill="black"/>
<path d="M201.339 16.6572H236V28.0453H224.021V58.9802H213.317V28.0453H201.339V16.6572Z" fill="black"/>
</g>
<g id="&#208;&#189;&#208;&#176; &#209;&#128;&#209;&#139;&#208;&#189;&#208;&#186;&#208;&#181;">
<path d="M12.1186 109.185V100.98H3.19962V109.185H0V90.3126H3.19962V97.8148H12.1186V90.3126H15.3182V109.185H12.1186Z" fill="black"/>
<path d="M34.06 109.263C33.1535 109.263 32.4069 109.016 31.8203 108.521C31.2337 108 30.8871 107.219 30.7804 106.177C30.1138 107.219 29.3139 108.013 28.3807 108.56C27.4742 109.081 26.3943 109.342 25.1411 109.342C23.4613 109.342 22.1015 108.912 21.0616 108.052C20.0217 107.192 19.5018 105.916 19.5018 104.223C19.5018 103.155 19.7017 102.269 20.1017 101.566C20.5016 100.836 21.1016 100.224 21.9015 99.7294C22.7014 99.2344 23.6879 98.7656 24.8611 98.3227L30.5805 96.1346C30.4738 95.0405 30.0472 94.2851 29.3006 93.8683C28.5807 93.4515 27.7141 93.2431 26.7009 93.2431C25.6344 93.2431 24.7278 93.4645 23.9812 93.9074C23.2613 94.3242 22.8214 94.9884 22.6614 95.9001H19.6617C19.8484 94.5195 20.2883 93.3994 20.9816 92.5398C21.6748 91.6802 22.5281 91.042 23.5413 90.6252C24.5545 90.2084 25.6077 90 26.7009 90C28.8607 90 30.5805 90.5601 31.8603 91.6802C33.1402 92.7742 33.7668 94.4935 33.7401 96.8379L33.6601 104.067C33.6601 104.822 33.7667 105.343 33.9801 105.63C34.1934 105.916 34.54 106.059 35.0199 106.059H35.7798V109.185C35.5132 109.211 35.2199 109.224 34.8999 109.224C34.6067 109.25 34.3267 109.263 34.06 109.263ZM22.7014 103.676C22.7014 104.535 22.9947 105.174 23.5813 105.59C24.1945 105.981 25.0344 106.177 26.101 106.177C27.0609 106.177 27.9274 106.046 28.7007 105.786C29.4739 105.499 30.0739 105.122 30.5005 104.653L30.5805 98.5181L27.0209 99.9247C25.4744 100.524 24.3679 101.084 23.7013 101.605C23.0347 102.126 22.7014 102.816 22.7014 103.676Z" fill="black"/>
<path d="M52.0964 93.5948C52.7096 92.3705 53.5362 91.4718 54.5761 90.8987C55.6159 90.2996 56.9225 90 58.4956 90C60.3354 90 61.9219 90.4168 63.255 91.2504C64.5882 92.0579 65.6014 93.191 66.2947 94.6498C67.0146 96.0825 67.3746 97.7236 67.3746 99.5731C67.3746 101.423 67.0146 103.103 66.2947 104.614C65.6014 106.098 64.5882 107.284 63.255 108.169C61.9485 109.055 60.3754 109.498 58.5356 109.498C57.0958 109.498 55.8559 109.25 54.816 108.755C53.7762 108.234 52.9229 107.427 52.2563 106.333V117H49.0567V90.3126H52.0964V93.5948ZM57.9757 106.216C60.0554 106.216 61.6019 105.59 62.6151 104.34C63.6283 103.09 64.1349 101.501 64.1349 99.5731C64.1349 97.6454 63.615 96.1216 62.5751 95.0014C61.5619 93.8553 60.0154 93.2822 57.9357 93.2822C56.5225 93.2822 55.336 93.4906 54.3761 93.9074C53.4162 94.2981 52.7096 94.9493 52.2563 95.8611V103.715C52.7096 104.601 53.4162 105.239 54.3761 105.63C55.3626 106.02 56.5625 106.216 57.9757 106.216Z" fill="black"/>
<path d="M91.3108 90.3126V109.185H88.1112V90.3126H91.3108ZM74.7927 90.3126V96.9161H78.4323C80.5654 96.9161 82.2985 97.3719 83.6317 98.2836C84.9649 99.1693 85.6315 100.693 85.6315 102.855C85.6315 104.288 85.3115 105.473 84.6716 106.411C84.0317 107.349 83.1784 108.052 82.1119 108.521C81.0453 108.964 79.8455 109.185 78.5123 109.185H71.5931V90.3126H74.7927ZM78.3523 99.6122H74.7927V106.02H78.2723C79.5522 106.02 80.5654 105.786 81.312 105.317C82.0852 104.822 82.4718 103.988 82.4718 102.816C82.4718 101.748 82.1385 100.954 81.472 100.433C80.832 99.8857 79.7922 99.6122 78.3523 99.6122Z" fill="black"/>
<path d="M108.787 109.185V100.98H99.8679V109.185H96.6683V90.3126H99.8679V97.8148H108.787V90.3126H111.986V109.185H108.787Z" fill="black"/>
<path d="M128.009 109.185L120.53 99.8466V109.185H117.33V90.3126H120.53V99.1823L128.249 90.3126H131.928L123.969 99.1823L132.008 109.185H128.009Z" fill="black"/>
<path d="M150.56 103.441C150.267 104.483 149.787 105.473 149.12 106.411C148.454 107.323 147.547 108.065 146.401 108.638C145.254 109.211 143.801 109.498 142.041 109.498C140.255 109.498 138.681 109.068 137.322 108.208C135.962 107.323 134.895 106.137 134.122 104.653C133.375 103.168 133.002 101.527 133.002 99.7294C133.002 97.9059 133.375 96.2648 134.122 94.8061C134.895 93.3473 135.962 92.1881 137.322 91.3285C138.681 90.4428 140.255 90 142.041 90C143.881 90 145.467 90.4298 146.801 91.2894C148.134 92.1491 149.16 93.3343 149.88 94.8452C150.627 96.356 151 98.0753 151 100.003C151 100.081 151 100.159 151 100.237C151 100.315 151 100.394 151 100.472H136.242C136.375 102.217 136.948 103.624 137.962 104.692C139.001 105.76 140.361 106.294 142.041 106.294C143.534 106.294 144.734 106.046 145.641 105.551C146.547 105.03 147.214 104.327 147.64 103.441H150.56ZM142.041 93.2041C140.415 93.2041 139.108 93.6599 138.122 94.5716C137.162 95.4573 136.562 96.6686 136.322 98.2055H147.68C147.494 96.8249 146.947 95.6527 146.041 94.6889C145.161 93.699 143.828 93.2041 142.041 93.2041Z" fill="black"/>
</g>
</g>
</svg>
