<svg width="286" height="114" viewBox="0 0 286 114" fill="none" xmlns="http://www.w3.org/2000/svg">
<g id="Frame 2">
<g id="27 &#209;&#130;&#209;&#139;&#209;&#129;.">
<path d="M27.0501 19.4894C27.0501 17.3333 26.4282 15.5745 25.1845 14.2128C23.9408 12.7943 22.1319 12.0851 19.7576 12.0851C17.3267 12.0851 15.3481 12.8794 13.8218 14.4681C12.2955 16 11.391 18.0426 11.1083 20.5957H0C0.282655 16.1135 1.32848 12.3404 3.13747 9.27659C5.00299 6.21276 7.43382 3.91489 10.43 2.38298C13.4261 0.794326 16.7332 0 20.3511 0C24.2518 0 27.6154 0.737588 30.4419 2.21276C33.2685 3.68794 35.4449 5.7305 36.9712 8.34042C38.4976 10.9504 39.2607 14.0142 39.2607 17.5319C39.2607 20.3688 38.865 22.8369 38.0736 24.9362C37.2821 27.0355 36.095 28.9929 34.5121 30.8085C32.9858 32.5674 31.092 34.3546 28.8308 36.1702C26.6261 37.9291 24.0539 39.9149 21.1143 42.1277C19.6445 43.2057 18.3726 44.1702 17.2985 45.0213C16.2244 45.8723 15.2916 46.6383 14.5002 47.3191H38.8367V59.0638H1.78072V51.5745C1.78072 49.5319 2.2895 47.6879 3.30706 46.0426C4.32462 44.3404 5.85095 42.6099 7.88606 40.8511C9.92118 39.0355 12.4085 36.9929 15.3481 34.7234C18.1747 32.5674 20.4359 30.695 22.1319 29.1064C23.8843 27.461 25.128 25.9007 25.8629 24.4255C26.6543 22.8936 27.0501 21.2482 27.0501 19.4894Z" fill="black"/>
<path d="M49.2819 59.0638L70.905 12.9362H46.1445V1.19149H82.3525V12.6809L60.4751 59.0638H49.2819Z" fill="black"/>
<path d="M108.054 16.6808H142.651V28.0851H130.694V59.0638H120.01V28.0851H108.054V16.6808Z" fill="black"/>
<path d="M197.175 16.6808V59.0638H186.491V16.6808H197.175ZM160.119 16.6808V30.383H166.31C171.171 30.383 175.1 31.4043 178.096 33.4468C181.149 35.4894 182.675 38.9504 182.675 43.8298C182.675 47.234 181.94 50.0709 180.471 52.3404C179.057 54.5532 177.107 56.227 174.62 57.3617C172.189 58.4965 169.447 59.0638 166.394 59.0638H149.435V16.6808H160.119ZM165.97 38.6383H160.119V48.4255H165.801C168.119 48.4255 169.786 48 170.804 47.1489C171.878 46.2979 172.415 45.078 172.415 43.4894C172.415 41.9007 171.934 40.7092 170.973 39.9149C170.069 39.0638 168.401 38.6383 165.97 38.6383Z" fill="black"/>
<path d="M224.891 15.5745C230.488 15.5745 234.954 17.1064 238.289 20.1702C241.624 23.1773 243.66 27.2057 244.394 32.2553H234.982C234.417 30.6099 233.371 29.3901 231.845 28.5957C230.318 27.7447 228.142 27.3191 225.315 27.3191C222.206 27.3191 219.69 28.2553 217.768 30.1277C215.903 31.9433 214.97 34.4681 214.97 37.7021C214.97 40.9929 215.903 43.5745 217.768 45.4468C219.69 47.3191 222.206 48.2553 225.315 48.2553C228.142 48.2553 230.318 47.8298 231.845 46.9787C233.371 46.1277 234.417 44.9362 234.982 43.4043H244.394C243.66 48.5106 241.624 52.5674 238.289 55.5745C234.954 58.5248 230.488 60 224.891 60C220.708 60 217.062 59.0355 213.953 57.1064C210.9 55.1206 208.526 52.4539 206.83 49.1064C205.134 45.7589 204.286 41.9574 204.286 37.7021C204.286 33.4468 205.134 29.6738 206.83 26.383C208.526 23.0355 210.9 20.3972 213.953 18.4681C217.062 16.539 220.708 15.5745 224.891 15.5745Z" fill="black"/>
<path d="M256.047 59.9149C254.125 59.9149 252.485 59.2908 251.128 58.0426C249.772 56.7943 249.093 55.0922 249.093 52.9362C249.093 50.7801 249.772 49.078 251.128 47.8298C252.485 46.5248 254.125 45.8723 256.047 45.8723C258.025 45.8723 259.665 46.5248 260.965 47.8298C262.322 49.078 263 50.7801 263 52.9362C263 55.0922 262.322 56.7943 260.965 58.0426C259.665 59.2908 258.025 59.9149 256.047 59.9149Z" fill="black"/>
</g>
<g id="&#209;&#129;&#208;&#191;&#208;&#181;&#209;&#134;&#208;&#184;&#208;&#176;&#208;&#187;&#208;&#184;&#209;&#129;&#209;&#130;&#208;&#190;&#208;&#178;">
<path d="M9.19445 90C11.3798 90 13.2054 90.5696 14.6711 91.7087C16.1636 92.8479 17.1363 94.4142 17.5894 96.4078H14.6711C14.4046 95.5534 13.805 94.8285 12.8722 94.233C11.9661 93.6375 10.7002 93.3398 9.07452 93.3398C7.20898 93.3398 5.76985 93.9353 4.75713 95.1262C3.74441 96.3172 3.23804 97.8317 3.23804 99.6699C3.23804 101.482 3.74441 102.997 4.75713 104.214C5.76985 105.43 7.20898 106.039 9.07452 106.039C10.7002 106.039 11.9661 105.741 12.8722 105.146C13.805 104.55 14.4046 103.825 14.6711 102.971H17.5894C17.1363 104.939 16.1636 106.505 14.6711 107.67C13.2054 108.809 11.3798 109.379 9.19445 109.379C7.32891 109.379 5.70322 108.951 4.31739 108.097C2.93156 107.217 1.86554 106.039 1.11932 104.563C0.373108 103.087 0 101.456 0 99.6699C0 97.8576 0.373108 96.2265 1.11932 94.7767C1.86554 93.3269 2.93156 92.1748 4.31739 91.3204C5.70322 90.4401 7.32891 90 9.19445 90Z" fill="black"/>
<path d="M33.6122 109.107V93.4951H24.7376V109.107H21.5395V90.3495H36.8103V109.107H33.6122Z" fill="black"/>
<path d="M58.4622 103.398C58.169 104.434 57.6893 105.417 57.0231 106.35C56.3568 107.256 55.4507 107.994 54.3047 108.563C53.1587 109.133 51.7063 109.417 49.9473 109.417C48.1617 109.417 46.5894 108.99 45.2302 108.136C43.871 107.256 42.805 106.078 42.0321 104.602C41.2859 103.126 40.9128 101.495 40.9128 99.7087C40.9128 97.8964 41.2859 96.2654 42.0321 94.8155C42.805 93.3657 43.871 92.2136 45.2302 91.3592C46.5894 90.479 48.1617 90.0388 49.9473 90.0388C51.7862 90.0388 53.3719 90.466 54.7045 91.3204C56.037 92.1748 57.063 93.3528 57.7826 94.8544C58.5288 96.356 58.9019 98.0647 58.9019 99.9806C58.9019 100.058 58.9019 100.136 58.9019 100.214C58.9019 100.291 58.9019 100.369 58.9019 100.447H44.1508C44.2841 102.181 44.8571 103.579 45.8698 104.641C46.9092 105.702 48.2683 106.233 49.9473 106.233C51.4398 106.233 52.639 105.987 53.5452 105.495C54.4513 104.977 55.1175 104.278 55.544 103.398H58.4622ZM49.9473 93.2233C48.3216 93.2233 47.0158 93.6764 46.0297 94.5825C45.0703 95.4628 44.4706 96.6667 44.2308 98.1942H55.5839C55.3974 96.822 54.851 95.657 53.9449 94.699C53.0654 93.7152 51.7329 93.2233 49.9473 93.2233Z" fill="black"/>
<path d="M78.1116 114V109.107H62.9207V90.3495H66.1188V105.961H75.1134V90.3495H78.3114V105.961H81.1897V114H78.1116Z" fill="black"/>
<path d="M87.4341 90.3495V104.019L96.7484 90.3495H99.8666V109.107H96.6685V95.2039L87.1942 109.107H84.236V90.3495H87.4341Z" fill="black"/>
<path d="M118.631 109.184C117.725 109.184 116.979 108.939 116.392 108.447C115.806 107.929 115.459 107.152 115.353 106.117C114.687 107.152 113.887 107.942 112.954 108.485C112.048 109.003 110.969 109.262 109.716 109.262C108.037 109.262 106.678 108.835 105.639 107.981C104.599 107.126 104.08 105.858 104.08 104.175C104.08 103.113 104.28 102.233 104.679 101.534C105.079 100.809 105.679 100.201 106.478 99.7087C107.278 99.2168 108.264 98.7508 109.436 98.3107L115.153 96.1359C115.046 95.0485 114.62 94.2977 113.874 93.8835C113.154 93.4693 112.288 93.2621 111.275 93.2621C110.209 93.2621 109.303 93.4822 108.557 93.9223C107.837 94.3366 107.398 94.9968 107.238 95.9029H104.24C104.426 94.5307 104.866 93.4175 105.559 92.5631C106.252 91.7087 107.104 91.0744 108.117 90.6602C109.13 90.246 110.183 90.0388 111.275 90.0388C113.434 90.0388 115.153 90.5955 116.432 91.7087C117.711 92.7961 118.338 94.5049 118.311 96.835L118.231 104.019C118.231 104.77 118.338 105.288 118.551 105.573C118.764 105.858 119.111 106 119.59 106H120.35V109.107C120.083 109.133 119.79 109.146 119.47 109.146C119.177 109.172 118.897 109.184 118.631 109.184ZM107.278 103.631C107.278 104.485 107.571 105.12 108.157 105.534C108.77 105.922 109.61 106.117 110.676 106.117C111.635 106.117 112.501 105.987 113.274 105.728C114.047 105.443 114.647 105.068 115.073 104.602L115.153 98.5049L111.595 99.9029C110.049 100.498 108.943 101.055 108.277 101.573C107.611 102.091 107.278 102.777 107.278 103.631Z" fill="black"/>
<path d="M121.388 105.767C121.548 105.793 121.747 105.832 121.987 105.883C122.254 105.909 122.547 105.922 122.867 105.922C123.746 105.922 124.386 105.353 124.786 104.214C125.185 103.074 125.518 101.327 125.785 98.9709C125.918 97.6764 126.025 96.3301 126.105 94.932C126.185 93.534 126.238 92.0065 126.265 90.3495H138.098V109.107H134.899V93.4951H128.983C128.956 94.4531 128.903 95.4628 128.823 96.5243C128.77 97.5599 128.703 98.5437 128.623 99.4757C128.437 101.832 128.157 103.735 127.784 105.184C127.437 106.634 126.931 107.683 126.265 108.33C125.598 108.977 124.679 109.301 123.506 109.301C123.107 109.301 122.72 109.275 122.347 109.223C121.974 109.172 121.654 109.094 121.388 108.99V105.767Z" fill="black"/>
<path d="M146.656 90.3495V104.019L155.97 90.3495H159.089V109.107H155.891V95.2039L146.416 109.107H143.458V90.3495H146.656Z" fill="black"/>
<path d="M172.416 90C174.602 90 176.427 90.5696 177.893 91.7087C179.385 92.8479 180.358 94.4142 180.811 96.4078H177.893C177.626 95.5534 177.027 94.8285 176.094 94.233C175.188 93.6375 173.922 93.3398 172.296 93.3398C170.431 93.3398 168.992 93.9353 167.979 95.1262C166.966 96.3172 166.46 97.8317 166.46 99.6699C166.46 101.482 166.966 102.997 167.979 104.214C168.992 105.43 170.431 106.039 172.296 106.039C173.922 106.039 175.188 105.741 176.094 105.146C177.027 104.55 177.626 103.825 177.893 102.971H180.811C180.358 104.939 179.385 106.505 177.893 107.67C176.427 108.809 174.602 109.379 172.416 109.379C170.551 109.379 168.925 108.951 167.539 108.097C166.153 107.217 165.087 106.039 164.341 104.563C163.595 103.087 163.222 101.456 163.222 99.6699C163.222 97.8576 163.595 96.2265 164.341 94.7767C165.087 93.3269 166.153 92.1748 167.539 91.3204C168.925 90.4401 170.551 90 172.416 90Z" fill="black"/>
<path d="M183.002 90.3495H198.593V93.534H192.397V109.107H189.199V93.534H183.002V90.3495Z" fill="black"/>
<path d="M209.937 90.0388C211.829 90.0388 213.468 90.466 214.854 91.3204C216.267 92.1748 217.359 93.3398 218.132 94.8155C218.932 96.2654 219.332 97.8964 219.332 99.7087C219.332 101.521 218.932 103.165 218.132 104.641C217.359 106.091 216.267 107.256 214.854 108.136C213.468 108.99 211.829 109.417 209.937 109.417C208.072 109.417 206.433 108.99 205.02 108.136C203.608 107.256 202.502 106.091 201.702 104.641C200.929 103.165 200.543 101.521 200.543 99.7087C200.543 97.8964 200.929 96.2654 201.702 94.8155C202.502 93.3398 203.608 92.1748 205.02 91.3204C206.433 90.466 208.072 90.0388 209.937 90.0388ZM209.937 93.3786C208.072 93.3786 206.579 93.9612 205.46 95.1262C204.341 96.2913 203.781 97.8188 203.781 99.7087C203.781 101.599 204.341 103.139 205.46 104.33C206.579 105.495 208.072 106.078 209.937 106.078C211.803 106.078 213.295 105.495 214.415 104.33C215.534 103.139 216.094 101.599 216.094 99.7087C216.094 97.8188 215.534 96.2913 214.415 95.1262C213.295 93.9612 211.803 93.3786 209.937 93.3786Z" fill="black"/>
<path d="M230.924 109.107H223.449V90.3495H230.604C232.577 90.3495 234.149 90.7767 235.322 91.6311C236.494 92.4854 237.081 93.7023 237.081 95.2816C237.081 96.2654 236.827 97.1068 236.321 97.8058C235.815 98.5049 235.148 98.9579 234.322 99.165C235.415 99.3463 236.294 99.8123 236.961 100.563C237.654 101.288 238 102.285 238 103.553C238 105.366 237.387 106.751 236.161 107.709C234.962 108.641 233.216 109.107 230.924 109.107ZM226.567 93.3786V98.3495H230.604C231.67 98.3495 232.483 98.1553 233.043 97.767C233.629 97.3527 233.922 96.7055 233.922 95.8252C233.922 94.9968 233.669 94.3883 233.163 94C232.657 93.5858 231.857 93.3786 230.764 93.3786H226.567ZM226.567 100.485V106.078H230.604C232.097 106.078 233.163 105.858 233.803 105.417C234.469 104.951 234.802 104.239 234.802 103.282C234.802 102.298 234.469 101.586 233.803 101.146C233.136 100.706 232.097 100.485 230.684 100.485H226.567Z" fill="black"/>
</g>
</g>
</svg>
