<svg width="396" height="197" viewBox="0 0 396 197" fill="none" xmlns="http://www.w3.org/2000/svg">
<g id="Group 363">
<rect id="Rectangle 1" x="134" y="18" width="262" height="50" fill="#FFC800"/>
<g id="&#208;&#157;&#208;&#176; &#209;&#130;&#208;&#178;&#208;&#190;&#208;&#181;&#208;&#185; &#209;&#129;&#209;&#130;&#208;&#190;&#209;&#128;&#208;&#190;&#208;&#189;&#208;&#181;">
<path d="M42.7381 68V39.9H17.2153V68H3.80339V0H17.2153V25.6H42.7381V0H56.1501V68H42.7381Z" fill="black"/>
<path d="M105.417 68.3C102.547 68.3 100.179 67.5667 98.3103 66.1C96.5087 64.6333 95.4411 62.4333 95.1074 59.5C93.8396 62.2333 92.038 64.4333 89.7026 66.1C87.3672 67.7 84.3979 68.5 80.7947 68.5C76.2573 68.5 72.6541 67.2667 69.985 64.8C67.3827 62.2667 66.0816 58.8333 66.0816 54.5C66.0816 51.4333 66.6487 48.9333 67.7831 47C68.9841 45.0667 70.719 43.4333 72.9877 42.1C75.2564 40.7667 78.0255 39.5667 81.2951 38.5L94.0065 34.3C93.6061 32.5 92.6719 31.2667 91.204 30.6C89.8027 29.8667 88.0345 29.5 85.8992 29.5C83.4304 29.5 81.4619 29.9 79.994 30.7C78.526 31.4333 77.5918 32.6333 77.1915 34.3H66.8823C67.2826 30.5 68.3503 27.3333 70.0851 24.8C71.82 22.2 74.1221 20.2667 76.9913 19C79.8605 17.6667 83.1301 17 86.8 17C92.7387 17 97.5096 18.5667 101.113 21.7C104.716 24.7667 106.451 29.5 106.317 35.9L106.017 52.1C105.95 53.7 106.217 54.8333 106.818 55.5C107.485 56.1667 108.519 56.5 109.921 56.5H110.821V68.1C109.954 68.1667 109.053 68.2 108.119 68.2C107.185 68.2667 106.284 68.3 105.417 68.3ZM78.1924 51.3C78.1924 52.8333 78.8263 53.9667 80.0941 54.7C81.4286 55.3667 83.0967 55.7 85.0985 55.7C87.0336 55.7 88.8352 55.4667 90.5033 55C92.1715 54.4667 93.3392 53.8 94.0065 53L94.1065 42L85.1986 45.1C82.7297 45.9667 80.9281 46.8667 79.7938 47.8C78.7262 48.6667 78.1924 49.8333 78.1924 51.3Z" fill="black"/>
<path d="M138.298 18.2H179.134V31.6H165.021V68H152.41V31.6H138.298V18.2Z" fill="black"/>
<path d="M210.363 68H187.142V18.2H209.262C214.6 18.2 218.67 19.3667 221.472 21.7C224.275 24.0333 225.676 27.2667 225.676 31.4C225.676 33.8 225.109 35.8667 223.975 37.6C222.907 39.3333 221.439 40.6333 219.571 41.5C221.906 42.3667 223.841 43.7667 225.376 45.7C226.977 47.5667 227.778 49.9667 227.778 52.9C227.778 57.7667 226.177 61.5 222.974 64.1C219.838 66.7 215.634 68 210.363 68ZM199.353 29.7V38.8H207.36C209.562 38.8 211.197 38.4333 212.264 37.7C213.332 36.9667 213.866 35.8 213.866 34.2C213.866 32.6 213.332 31.4667 212.264 30.8C211.263 30.0667 209.662 29.7 207.46 29.7H199.353ZM199.353 46.2V56.4H208.461C210.93 56.4 212.765 56 213.966 55.2C215.234 54.3333 215.867 53.0333 215.867 51.3C215.867 49.5 215.267 48.2 214.066 47.4C212.865 46.6 211.063 46.2 208.661 46.2H199.353Z" fill="black"/>
<path d="M258.929 17C264.134 17 268.605 18.1333 272.341 20.4C276.145 22.6667 279.047 25.7667 281.049 29.7C283.117 33.5667 284.152 38 284.152 43C284.152 48 283.117 52.4667 281.049 56.4C279.047 60.3333 276.145 63.4667 272.341 65.8C268.605 68.0667 264.134 69.2 258.929 69.2C253.725 69.2 249.221 68.0667 245.417 65.8C241.681 63.4667 238.778 60.3333 236.709 56.4C234.641 52.4667 233.607 48 233.607 43C233.607 38 234.641 33.5667 236.709 29.7C238.778 25.7667 241.681 22.6667 245.417 20.4C249.221 18.1333 253.725 17 258.929 17ZM258.929 30.8C255.126 30.8 252.056 31.8667 249.721 34C247.386 36.1333 246.218 39.1333 246.218 43C246.218 46.8667 247.386 49.9 249.721 52.1C252.056 54.3 255.126 55.4 258.929 55.4C262.666 55.4 265.702 54.3 268.037 52.1C270.439 49.9 271.641 46.8667 271.641 43C271.641 39.1333 270.439 36.1333 268.037 34C265.702 31.8667 262.666 30.8 258.929 30.8Z" fill="black"/>
<path d="M337.247 51.3C336.579 54.6333 335.278 57.6667 333.343 60.4C331.408 63.1333 328.839 65.3 325.636 66.9C322.434 68.4333 318.563 69.2 314.026 69.2C309.355 69.2 305.218 68.1333 301.615 66C298.012 63.8 295.176 60.7667 293.107 56.9C291.039 52.9667 290.005 48.4 290.005 43.2C290.005 38 291.039 33.4333 293.107 29.5C295.243 25.5667 298.145 22.5 301.815 20.3C305.485 18.1 309.655 17 314.326 17C319.064 17 323.201 18.0667 326.737 20.2C330.341 22.2667 333.143 25.2333 335.145 29.1C337.213 32.9667 338.248 37.6333 338.248 43.1C338.248 43.5667 338.214 44.1333 338.148 44.8C338.148 45.4 338.114 45.9333 338.047 46.4H302.516C303.05 49.8667 304.351 52.5 306.419 54.3C308.488 56.0333 311.123 56.9 314.326 56.9C317.462 56.9 319.965 56.4 321.833 55.4C323.701 54.3333 325.036 52.9667 325.837 51.3H337.247ZM314.326 29.2C311.39 29.2 308.888 30 306.82 31.6C304.818 33.1333 303.45 35.4333 302.716 38.5H325.837C325.369 35.5667 324.102 33.3 322.033 31.7C320.031 30.0333 317.462 29.2 314.326 29.2Z" fill="black"/>
<path d="M359.173 18.2V47.3L378.089 18.2H390V68H377.389V38.7L358.772 68H346.561V18.2H359.173ZM362.175 2C362.776 3.46667 363.576 4.6 364.577 5.4C365.645 6.2 367.013 6.6 368.681 6.6C370.416 6.6 371.784 6.23333 372.785 5.5C373.786 4.7 374.553 3.53333 375.087 2H382.894C382.693 6.13333 381.359 9.4 378.89 11.8C376.421 14.2 373.018 15.4 368.681 15.4C364.344 15.4 360.907 14.2 358.372 11.8C355.903 9.4 354.602 6.13333 354.468 2H362.175Z" fill="black"/>
<path d="M24.3217 125.9C30.9276 125.9 36.1989 127.7 40.1358 131.3C44.0726 134.833 46.4748 139.567 47.3422 145.5H36.2323C35.565 143.567 34.3306 142.133 32.529 141.2C30.7274 140.2 28.1584 139.7 24.8221 139.7C21.1522 139.7 18.1829 140.8 15.9142 143C13.7122 145.133 12.6112 148.1 12.6112 151.9C12.6112 155.767 13.7122 158.8 15.9142 161C18.1829 163.2 21.1522 164.3 24.8221 164.3C28.1584 164.3 30.7274 163.8 32.529 162.8C34.3306 161.8 35.565 160.4 36.2323 158.6H47.3422C46.4748 164.6 44.0726 169.367 40.1358 172.9C36.1989 176.367 30.9276 178.1 24.3217 178.1C19.3839 178.1 15.0801 176.967 11.4102 174.7C7.80696 172.367 5.00446 169.233 3.00268 165.3C1.00089 161.367 0 156.9 0 151.9C0 146.9 1.00089 142.467 3.00268 138.6C5.00446 134.667 7.80696 131.567 11.4102 129.3C15.0801 127.033 19.3839 125.9 24.3217 125.9Z" fill="black"/>
<path d="M52.4788 127.2H93.3152V140.6H79.2026V177H66.5914V140.6H52.4788V127.2Z" fill="black"/>
<path d="M123.066 126C128.271 126 132.741 127.133 136.478 129.4C140.281 131.667 143.184 134.767 145.186 138.7C147.254 142.567 148.288 147 148.288 152C148.288 157 147.254 161.467 145.186 165.4C143.184 169.333 140.281 172.467 136.478 174.8C132.741 177.067 128.271 178.2 123.066 178.2C117.861 178.2 113.357 177.067 109.554 174.8C105.817 172.467 102.915 169.333 100.846 165.4C98.7776 161.467 97.7434 157 97.7434 152C97.7434 147 98.7776 142.567 100.846 138.7C102.915 134.767 105.817 131.667 109.554 129.4C113.357 127.133 117.861 126 123.066 126ZM123.066 139.8C119.263 139.8 116.193 140.867 113.858 143C111.522 145.133 110.355 148.133 110.355 152C110.355 155.867 111.522 158.9 113.858 161.1C116.193 163.3 119.263 164.4 123.066 164.4C126.803 164.4 129.839 163.3 132.174 161.1C134.576 158.9 135.777 155.867 135.777 152C135.777 148.133 134.576 145.133 132.174 143C129.839 140.867 126.803 139.8 123.066 139.8Z" fill="black"/>
<path d="M168.754 136C169.889 133.267 171.79 130.933 174.459 129C177.195 127.067 180.531 126.1 184.468 126.1C188.605 126.1 192.342 127.1 195.678 129.1C199.015 131.033 201.684 133.933 203.685 137.8C205.687 141.6 206.688 146.267 206.688 151.8C206.688 157.333 205.687 162.067 203.685 166C201.75 169.933 199.115 172.933 195.778 175C192.442 177.067 188.705 178.1 184.568 178.1C180.765 178.1 177.662 177.433 175.26 176.1C172.858 174.767 170.89 172.867 169.355 170.4V197H156.744V127.2H168.754V136ZM181.566 164.5C185.636 164.5 188.739 163.433 190.874 161.3C193.076 159.1 194.177 155.967 194.177 151.9C194.177 147.833 193.076 144.8 190.874 142.8C188.739 140.733 185.636 139.7 181.566 139.7C178.496 139.7 175.927 140.1 173.859 140.9C171.79 141.7 170.289 143 169.355 144.8V159.6C170.289 161.4 171.79 162.667 173.859 163.4C175.927 164.133 178.496 164.5 181.566 164.5Z" fill="black"/>
<path d="M238.11 126C243.315 126 247.785 127.133 251.522 129.4C255.325 131.667 258.228 134.767 260.23 138.7C262.298 142.567 263.332 147 263.332 152C263.332 157 262.298 161.467 260.23 165.4C258.228 169.333 255.325 172.467 251.522 174.8C247.785 177.067 243.315 178.2 238.11 178.2C232.905 178.2 228.401 177.067 224.598 174.8C220.861 172.467 217.959 169.333 215.89 165.4C213.822 161.467 212.787 157 212.787 152C212.787 147 213.822 142.567 215.89 138.7C217.959 134.767 220.861 131.667 224.598 129.4C228.401 127.133 232.905 126 238.11 126ZM238.11 139.8C234.307 139.8 231.237 140.867 228.902 143C226.566 145.133 225.399 148.133 225.399 152C225.399 155.867 226.566 158.9 228.902 161.1C231.237 163.3 234.307 164.4 238.11 164.4C241.847 164.4 244.883 163.3 247.218 161.1C249.62 158.9 250.821 155.867 250.821 152C250.821 148.133 249.62 145.133 247.218 143C244.883 140.867 241.847 139.8 238.11 139.8Z" fill="black"/>
<path d="M302.115 177V158.2H284.399V177H271.788V127.2H284.399V144.9H302.115V127.2H314.726V177H302.115Z" fill="black"/>
<path d="M370.382 160.3C369.714 163.633 368.413 166.667 366.478 169.4C364.543 172.133 361.974 174.3 358.771 175.9C355.569 177.433 351.698 178.2 347.161 178.2C342.49 178.2 338.353 177.133 334.75 175C331.147 172.8 328.311 169.767 326.242 165.9C324.174 161.967 323.14 157.4 323.14 152.2C323.14 147 324.174 142.433 326.242 138.5C328.378 134.567 331.28 131.5 334.95 129.3C338.62 127.1 342.79 126 347.461 126C352.199 126 356.336 127.067 359.872 129.2C363.476 131.267 366.278 134.233 368.28 138.1C370.348 141.967 371.383 146.633 371.383 152.1C371.383 152.567 371.349 153.133 371.283 153.8C371.283 154.4 371.249 154.933 371.182 155.4H335.651C336.185 158.867 337.486 161.5 339.554 163.3C341.623 165.033 344.258 165.9 347.461 165.9C350.597 165.9 353.1 165.4 354.968 164.4C356.836 163.333 358.171 161.967 358.972 160.3H370.382ZM347.461 138.2C344.525 138.2 342.023 139 339.955 140.6C337.953 142.133 336.585 144.433 335.851 147.5H358.972C358.504 144.567 357.237 142.3 355.168 140.7C353.166 139.033 350.597 138.2 347.461 138.2Z" fill="black"/>
</g>
</g>
</svg>
