<svg width="778" height="90" viewBox="0 0 778 90" fill="none" xmlns="http://www.w3.org/2000/svg">
<g id="Group 365">
<rect id="Rectangle 2" x="208" y="20" width="271" height="51" fill="white"/>
<g id="&#208;&#157;&#208;&#176;&#209;&#136; &#208;&#190;&#208;&#177;&#209;&#128;&#208;&#176;&#208;&#183; &#208;&#182;&#208;&#184;&#208;&#183;&#208;&#189;&#208;&#184;">
<path d="M38.8687 70.1762V42.3238H13.3892V70.1762H0V2.77533H13.3892V28.1498H38.8687V2.77533H52.258V70.1762H38.8687Z" fill="black"/>
<path d="M101.441 70.4736C98.5767 70.4736 96.2119 69.7467 94.3468 68.293C92.5482 66.8392 91.4824 64.6586 91.1493 61.7511C89.8837 64.4604 88.0851 66.641 85.7537 68.293C83.4222 69.8789 80.4579 70.6718 76.8608 70.6718C72.3311 70.6718 68.734 69.4493 66.0695 67.0044C63.4716 64.4934 62.1726 61.0903 62.1726 56.7952C62.1726 53.7555 62.7389 51.2775 63.8713 49.3612C65.0703 47.4449 66.8023 45.826 69.0671 44.5044C71.3319 43.1828 74.0964 41.9934 77.3604 40.9361L90.0502 36.7731C89.6505 34.989 88.718 33.7665 87.2525 33.1057C85.8536 32.3789 84.0884 32.0154 81.9567 32.0154C79.4921 32.0154 77.527 32.4119 76.0615 33.2048C74.596 33.9317 73.6634 35.1211 73.2637 36.7731H62.972C63.3717 33.0066 64.4375 29.8678 66.1694 27.3568C67.9014 24.7797 70.1995 22.8634 73.0639 21.6079C75.9283 20.2863 79.1923 19.6255 82.856 19.6255C88.7846 19.6255 93.5474 21.1784 97.1445 24.2841C100.742 27.3238 102.474 32.0154 102.34 38.359L102.041 54.4163C101.974 56.0022 102.24 57.1255 102.84 57.7863C103.506 58.4471 104.539 58.7775 105.937 58.7775H106.837V70.2753C105.971 70.3414 105.071 70.3745 104.139 70.3745C103.206 70.4405 102.307 70.4736 101.441 70.4736ZM74.2629 53.6233C74.2629 55.1432 74.8957 56.2665 76.1614 56.9934C77.4937 57.6542 79.159 57.9846 81.1574 57.9846C83.0892 57.9846 84.8877 57.7533 86.553 57.2907C88.2184 56.7621 89.3841 56.1013 90.0502 55.3084L90.1501 44.4053L81.2573 47.478C78.7926 48.337 76.9941 49.2291 75.8616 50.1542C74.7958 51.0132 74.2629 52.1696 74.2629 53.6233Z" fill="black"/>
<path d="M126.337 20.815V56.8943H140.326V20.815H152.816V56.8943H166.805V20.815H179.395V70.1762H113.748V20.815H126.337Z" fill="black"/>
<path d="M236.544 19.6255C241.74 19.6255 246.203 20.7489 249.933 22.9956C253.73 25.2423 256.628 28.315 258.626 32.2137C260.691 36.0463 261.724 40.4405 261.724 45.3965C261.724 50.3524 260.691 54.7797 258.626 58.6784C256.628 62.5771 253.73 65.6828 249.933 67.9956C246.203 70.2423 241.74 71.3656 236.544 71.3656C231.348 71.3656 226.852 70.2423 223.055 67.9956C219.325 65.6828 216.427 62.5771 214.362 58.6784C212.297 54.7797 211.264 50.3524 211.264 45.3965C211.264 40.4405 212.297 36.0463 214.362 32.2137C216.427 28.315 219.325 25.2423 223.055 22.9956C226.852 20.7489 231.348 19.6255 236.544 19.6255ZM236.544 33.304C232.747 33.304 229.683 34.3612 227.352 36.4758C225.02 38.5903 223.854 41.5639 223.854 45.3965C223.854 49.2291 225.02 52.2357 227.352 54.4163C229.683 56.5969 232.747 57.6872 236.544 57.6872C240.274 57.6872 243.305 56.5969 245.637 54.4163C248.035 52.2357 249.234 49.2291 249.234 45.3965C249.234 41.5639 248.035 38.5903 245.637 36.4758C243.305 34.3612 240.274 33.304 236.544 33.304Z" fill="black"/>
<path d="M297.643 22.7974C301.773 22.7974 305.47 23.7225 308.734 25.5727C311.998 27.3568 314.562 30 316.428 33.5022C318.293 36.9383 319.225 41.2004 319.225 46.2885C319.225 51.3106 318.193 55.7048 316.128 59.4714C314.063 63.2379 311.132 66.1784 307.335 68.293C303.538 70.3414 299.042 71.3656 293.846 71.3656C288.716 71.3656 284.22 70.2423 280.357 67.9956C276.56 65.6828 273.595 62.1476 271.464 57.3899C269.399 52.6322 268.366 46.5529 268.366 39.152C268.366 31.5529 269.132 25.2092 270.664 20.1211C272.196 15.033 274.661 11.0683 278.058 8.22687C281.522 5.38546 286.085 3.60132 291.747 2.87445L314.329 0V12.7863L293.746 15.6608C290.682 16.0573 288.25 16.8833 286.452 18.1388C284.653 19.3943 283.321 21.1454 282.455 23.3921C281.589 25.6388 281.023 28.4802 280.756 31.9163C282.355 29.141 284.62 26.9273 287.551 25.2753C290.482 23.6233 293.846 22.7974 297.643 22.7974ZM294.445 35.0881C291.847 35.0881 289.383 35.4846 287.051 36.2775C284.786 37.0044 282.954 38.0947 281.556 39.5485V44.1079C281.556 48.6013 282.621 52.0705 284.753 54.5154C286.951 56.8943 290.015 58.0837 293.946 58.0837C297.876 58.0837 300.973 57.0595 303.238 55.011C305.503 52.8965 306.635 49.989 306.635 46.2885C306.635 42.3899 305.536 39.5485 303.338 37.7643C301.206 35.9802 298.242 35.0881 294.445 35.0881Z" fill="black"/>
<path d="M339.726 29.5374C340.858 26.8282 342.757 24.5154 345.421 22.5991C348.153 20.6828 351.483 19.7247 355.413 19.7247C359.543 19.7247 363.274 20.7159 366.604 22.6982C369.935 24.6145 372.6 27.489 374.598 31.3216C376.596 35.0881 377.596 39.7137 377.596 45.1982C377.596 50.6828 376.596 55.3744 374.598 59.2731C372.666 63.1718 370.035 66.1454 366.704 68.1938C363.374 70.2423 359.643 71.2665 355.513 71.2665C351.716 71.2665 348.619 70.6057 346.221 69.2841C343.823 67.9626 341.858 66.0793 340.325 63.6344V90H327.736V20.815H339.726V29.5374ZM352.516 57.7863C356.579 57.7863 359.677 56.7291 361.808 54.6145C364.006 52.4339 365.106 49.3282 365.106 45.2974C365.106 41.2665 364.006 38.2599 361.808 36.2775C359.677 34.2291 356.579 33.2048 352.516 33.2048C349.451 33.2048 346.887 33.6013 344.822 34.3943C342.757 35.1872 341.258 36.4758 340.325 38.2599V52.9295C341.258 54.7137 342.757 55.9692 344.822 56.696C346.887 57.4229 349.451 57.7863 352.516 57.7863Z" fill="black"/>
<path d="M423.253 70.4736C420.388 70.4736 418.023 69.7467 416.158 68.293C414.36 66.8392 413.294 64.6586 412.961 61.7511C411.695 64.4604 409.897 66.641 407.565 68.293C405.234 69.8789 402.269 70.6718 398.672 70.6718C394.143 70.6718 390.546 69.4493 387.881 67.0044C385.283 64.4934 383.984 61.0903 383.984 56.7952C383.984 53.7555 384.55 51.2775 385.683 49.3612C386.882 47.4449 388.614 45.826 390.879 44.5044C393.143 43.1828 395.908 41.9934 399.172 40.9361L411.862 36.7731C411.462 34.989 410.529 33.7665 409.064 33.1057C407.665 32.3789 405.9 32.0154 403.768 32.0154C401.303 32.0154 399.338 32.4119 397.873 33.2048C396.407 33.9317 395.475 35.1211 395.075 36.7731H384.783C385.183 33.0066 386.249 29.8678 387.981 27.3568C389.713 24.7797 392.011 22.8634 394.875 21.6079C397.74 20.2863 401.004 19.6255 404.667 19.6255C410.596 19.6255 415.359 21.1784 418.956 24.2841C422.553 27.3238 424.285 32.0154 424.152 38.359L423.852 54.4163C423.785 56.0022 424.052 57.1255 424.651 57.7863C425.318 58.4471 426.35 58.7775 427.749 58.7775H428.648V70.2753C427.782 70.3414 426.883 70.3745 425.95 70.3745C425.018 70.4405 424.118 70.4736 423.253 70.4736ZM396.074 53.6233C396.074 55.1432 396.707 56.2665 397.973 56.9934C399.305 57.6542 400.97 57.9846 402.969 57.9846C404.901 57.9846 406.699 57.7533 408.365 57.2907C410.03 56.7621 411.196 56.1013 411.862 55.3084L411.962 44.4053L403.069 47.478C400.604 48.337 398.806 49.2291 397.673 50.1542C396.607 51.0132 396.074 52.1696 396.074 53.6233Z" fill="black"/>
<path d="M453.045 59.0749C455.976 59.0749 458.207 58.6454 459.74 57.7863C461.272 56.8612 462.038 55.4736 462.038 53.6233C462.038 51.9053 461.405 50.6498 460.139 49.8568C458.94 49.0639 457.142 48.6674 454.744 48.6674H447.25V41.2335H454.244C456.575 41.2335 458.274 40.837 459.34 40.0441C460.406 39.185 460.939 38.0286 460.939 36.5749C460.939 33.337 458.307 31.7181 453.045 31.7181C450.38 31.7181 448.249 32.1806 446.65 33.1057C445.118 33.9648 444.119 35.3194 443.653 37.1696H433.161C433.694 31.685 435.759 27.3899 439.356 24.2841C443.02 21.1784 447.783 19.6255 453.644 19.6255C459.573 19.6255 464.236 20.9141 467.633 23.4912C471.097 26.0022 472.829 29.6035 472.829 34.2952C472.829 36.7401 472.196 38.8546 470.931 40.6388C469.732 42.4229 468.033 43.6784 465.835 44.4053C468.366 45.0661 470.364 46.3216 471.83 48.1718C473.362 49.9559 474.128 52.3018 474.128 55.2093C474.128 58.6454 473.229 61.5859 471.43 64.0308C469.698 66.4097 467.267 68.2269 464.136 69.4824C461.072 70.7379 457.541 71.3656 453.545 71.3656C447.283 71.3656 442.354 69.8128 438.756 66.7071C435.226 63.5352 433.261 59.2071 432.861 53.7225H443.553C443.952 55.5727 444.918 56.9273 446.45 57.7863C447.982 58.6454 450.181 59.0749 453.045 59.0749Z" fill="black"/>
<path d="M516.3 70.1762H501.012L518.598 43.2159L501.312 20.815H515.2L531.088 43.2159V20.815H543.378V43.2159L559.265 20.815H573.154L555.968 43.315L573.454 70.1762H558.166L543.378 46.9824V70.1762H531.088V46.9824L516.3 70.1762Z" fill="black"/>
<path d="M591.979 20.815V49.6586L610.863 20.815H622.754V70.1762H610.164V41.1344L591.579 70.1762H579.389V20.815H591.979Z" fill="black"/>
<path d="M651.225 59.0749C654.156 59.0749 656.388 58.6454 657.92 57.7863C659.452 56.8612 660.218 55.4736 660.218 53.6233C660.218 51.9053 659.585 50.6498 658.32 49.8568C657.121 49.0639 655.322 48.6674 652.924 48.6674H645.43V41.2335H652.424C654.756 41.2335 656.455 40.837 657.52 40.0441C658.586 39.185 659.119 38.0286 659.119 36.5749C659.119 33.337 656.488 31.7181 651.225 31.7181C648.561 31.7181 646.429 32.1806 644.831 33.1057C643.298 33.9648 642.299 35.3194 641.833 37.1696H631.341C631.874 31.685 633.939 27.3899 637.536 24.2841C641.2 21.1784 645.963 19.6255 651.825 19.6255C657.753 19.6255 662.416 20.9141 665.814 23.4912C669.278 26.0022 671.009 29.6035 671.009 34.2952C671.009 36.7401 670.377 38.8546 669.111 40.6388C667.912 42.4229 666.213 43.6784 664.015 44.4053C666.546 45.0661 668.545 46.3216 670.01 48.1718C671.542 49.9559 672.308 52.3018 672.308 55.2093C672.308 58.6454 671.409 61.5859 669.611 64.0308C667.879 66.4097 665.447 68.2269 662.317 69.4824C659.252 70.7379 655.722 71.3656 651.725 71.3656C645.463 71.3656 640.534 69.8128 636.937 66.7071C633.406 63.5352 631.441 59.2071 631.042 53.7225H641.733C642.133 55.5727 643.099 56.9273 644.631 57.7863C646.163 58.6454 648.361 59.0749 651.225 59.0749Z" fill="black"/>
<path d="M711.048 70.1762V51.5419H693.362V70.1762H680.772V20.815H693.362V38.359H711.048V20.815H723.637V70.1762H711.048Z" fill="black"/>
<path d="M747.225 20.815V49.6586L766.11 20.815H778V70.1762H765.41V41.1344L746.825 70.1762H734.635V20.815H747.225Z" fill="black"/>
</g>
</g>
</svg>
