<svg width="936" height="90" viewBox="0 0 936 90" fill="none" xmlns="http://www.w3.org/2000/svg">
<g id="Group 366">
<rect id="Rectangle 2" x="259" y="18" width="677" height="51" fill="#FFC800"/>
<g id="&#208;&#157;&#208;&#176;&#209;&#136;&#208;&#184; &#208;&#191;&#209;&#128;&#208;&#181;&#208;&#184;&#208;&#188;&#209;&#131;&#209;&#137;&#208;&#181;&#209;&#129;&#209;&#130;&#208;&#178;&#208;&#176;">
<path d="M38.6584 68.9966V40.4848H13.3168V68.9966H0V0H13.3168V25.9752H38.6584V0H51.9752V68.9966H38.6584Z" fill="black"/>
<path d="M100.892 69.301C98.0433 69.301 95.6913 68.5569 93.8363 67.0688C92.0474 65.5806 90.9874 63.3484 90.6561 60.372C89.3973 63.1454 87.6085 65.3777 85.2897 67.0688C82.9708 68.6922 80.0226 69.5039 76.4449 69.5039C71.9398 69.5039 68.3621 68.2525 65.712 65.7497C63.1282 63.1793 61.8362 59.6956 61.8362 55.2988C61.8362 52.1871 62.3994 49.6505 63.5257 47.6888C64.7182 45.7272 66.4408 44.0699 68.6934 42.717C70.946 41.3642 73.6955 40.1466 76.9418 39.0643L89.563 34.8027C89.1655 32.9763 88.2379 31.7249 86.7803 31.0485C85.389 30.3044 83.6334 29.9324 81.5133 29.9324C79.0619 29.9324 77.1075 30.3382 75.6499 31.1499C74.1924 31.894 73.2648 33.1116 72.8673 34.8027H62.6313C63.0288 30.947 64.0888 27.7339 65.8114 25.1635C67.534 22.5254 69.8197 20.5637 72.6685 19.2785C75.5174 17.9256 78.7638 17.2492 82.4077 17.2492C88.3042 17.2492 93.0412 18.8388 96.6189 22.018C100.197 25.1297 101.919 29.9324 101.787 36.4262L101.488 52.8636C101.422 54.487 101.687 55.637 102.283 56.3134C102.946 56.9899 103.973 57.3281 105.364 57.3281H106.259V69.0981C105.397 69.1657 104.503 69.1996 103.575 69.1996C102.648 69.2672 101.753 69.301 100.892 69.301ZM73.8611 52.0519C73.8611 53.6077 74.4905 54.7576 75.7493 55.5017C77.0743 56.1781 78.7307 56.5163 80.7182 56.5163C82.6396 56.5163 84.4284 56.2796 86.0847 55.8061C87.741 55.2649 88.9004 54.5885 89.563 53.7768L89.6623 42.6156L80.8176 45.761C78.3663 46.6404 76.5774 47.5536 75.4511 48.5006C74.3911 49.3799 73.8611 50.5637 73.8611 52.0519Z" fill="black"/>
<path d="M125.654 18.4667V55.4002H139.567V18.4667H151.989V55.4002H165.902V18.4667H178.424V68.9966H113.132V18.4667H125.654Z" fill="black"/>
<path d="M201.838 18.4667V47.9932L220.621 18.4667H232.447V68.9966H219.925V39.2672L201.44 68.9966H189.316V18.4667H201.838Z" fill="black"/>
<path d="M296.576 68.9966V31.9617H279.284V68.9966H266.762V18.4667H309.097V68.9966H296.576Z" fill="black"/>
<path d="M331.968 27.3957C333.094 24.6223 334.982 22.2548 337.632 20.2931C340.349 18.3315 343.661 17.3506 347.57 17.3506C351.678 17.3506 355.388 18.3653 358.701 20.3946C362.013 22.3563 364.663 25.2988 366.651 29.2221C368.639 33.0778 369.632 37.8129 369.632 43.4273C369.632 49.0417 368.639 53.8444 366.651 57.8354C364.73 61.8264 362.113 64.8704 358.8 66.9673C355.487 69.0643 351.777 70.1127 347.67 70.1127C343.893 70.1127 340.812 69.4363 338.427 68.0834C336.042 66.7306 334.088 64.8027 332.564 62.2999V89.2897H320.042V18.4667H331.968V27.3957ZM344.688 56.3134C348.73 56.3134 351.81 55.2311 353.93 53.0665C356.117 50.8343 357.21 47.655 357.21 43.5287C357.21 39.4025 356.117 36.3247 353.93 34.2954C351.81 32.1984 348.73 31.1499 344.688 31.1499C341.641 31.1499 339.09 31.5558 337.036 32.3675C334.982 33.1793 333.491 34.4983 332.564 36.3247V51.3416C333.491 53.168 334.982 54.4532 337.036 55.1973C339.09 55.9414 341.641 56.3134 344.688 56.3134Z" fill="black"/>
<path d="M422.595 52.0519C421.933 55.434 420.641 58.5118 418.719 61.2852C416.798 64.0586 414.247 66.2571 411.067 67.8805C407.887 69.4363 404.044 70.2142 399.539 70.2142C394.901 70.2142 390.794 69.1319 387.216 66.9673C383.639 64.7351 380.823 61.6573 378.769 57.7339C376.715 53.743 375.688 49.1094 375.688 43.8331C375.688 38.5569 376.715 33.9233 378.769 29.9324C380.889 25.9414 383.771 22.8298 387.415 20.5975C391.059 18.3653 395.2 17.2492 399.837 17.2492C404.541 17.2492 408.649 18.3315 412.16 20.4961C415.738 22.593 418.521 25.6032 420.508 29.5265C422.562 33.4498 423.589 38.1849 423.589 43.7317C423.589 44.2052 423.556 44.7802 423.49 45.4566C423.49 46.0654 423.456 46.6065 423.39 47.08H388.111C388.641 50.5975 389.933 53.2694 391.986 55.0958C394.04 56.8546 396.657 57.7339 399.837 57.7339C402.951 57.7339 405.436 57.2266 407.291 56.212C409.146 55.1297 410.471 53.743 411.266 52.0519H422.595ZM399.837 29.628C396.922 29.628 394.438 30.4397 392.384 32.0631C390.396 33.6189 389.038 35.9526 388.309 39.0643H411.266C410.802 36.0879 409.543 33.788 407.489 32.1646C405.502 30.4735 402.951 29.628 399.837 29.628Z" fill="black"/>
<path d="M444.365 18.4667V47.9932L463.148 18.4667H474.974V68.9966H462.452V39.2672L443.968 68.9966H431.844V18.4667H444.365Z" fill="black"/>
<path d="M498.024 68.9966H485.9V18.4667H502.497L514.521 42.8185L526.646 18.4667H542.546V68.9966H530.124V36.2232L516.807 62.4014H511.341L498.024 36.2232V68.9966Z" fill="black"/>
<path d="M568.553 70.9245L569.149 68.9966H564.677L548.875 18.4667H562.59L573.422 54.5885L584.254 18.4667H595.981L578.391 75.0846C576.801 80.2255 574.747 83.9797 572.23 86.3472C569.778 88.7824 566.598 90 562.689 90C560.967 90 559.41 89.8647 558.018 89.5941C556.693 89.3912 555.434 89.053 554.242 88.5795V75.4904C555.368 75.761 556.428 75.9978 557.422 76.2007C558.482 76.4036 559.675 76.5051 561 76.5051C562.921 76.5051 564.478 76.0992 565.671 75.2875C566.929 74.4758 567.89 73.0214 568.553 70.9245Z" fill="black"/>
<path d="M614.882 18.4667V55.4002H628.795V18.4667H641.217V55.4002H655.13V18.4667H667.652V55.4002H675.205V81.7813H662.981V68.9966H602.36V18.4667H614.882Z" fill="black"/>
<path d="M725.876 52.0519C725.213 55.434 723.921 58.5118 722 61.2852C720.078 64.0586 717.528 66.2571 714.348 67.8805C711.168 69.4363 707.325 70.2142 702.82 70.2142C698.182 70.2142 694.074 69.1319 690.497 66.9673C686.919 64.7351 684.103 61.6573 682.049 57.7339C679.996 53.743 678.969 49.1094 678.969 43.8331C678.969 38.5569 679.996 33.9233 682.049 29.9324C684.17 25.9414 687.052 22.8298 690.695 20.5975C694.339 18.3653 698.48 17.2492 703.118 17.2492C707.822 17.2492 711.929 18.3315 715.441 20.4961C719.018 22.593 721.801 25.6032 723.789 29.5265C725.842 33.4498 726.869 38.1849 726.869 43.7317C726.869 44.2052 726.836 44.7802 726.77 45.4566C726.77 46.0654 726.737 46.6065 726.671 47.08H691.391C691.921 50.5975 693.213 53.2694 695.267 55.0958C697.321 56.8546 699.938 57.7339 703.118 57.7339C706.232 57.7339 708.716 57.2266 710.571 56.212C712.426 55.1297 713.751 53.743 714.546 52.0519H725.876ZM703.118 29.628C700.203 29.628 697.718 30.4397 695.664 32.0631C693.677 33.6189 692.319 35.9526 691.59 39.0643H714.546C714.083 36.0879 712.824 33.788 710.77 32.1646C708.782 30.4735 706.232 29.628 703.118 29.628Z" fill="black"/>
<path d="M756.689 17.1477C763.248 17.1477 768.482 18.9741 772.391 22.6268C776.3 26.212 778.685 31.0147 779.546 37.035H768.515C767.853 35.0733 766.627 33.6189 764.838 32.6719C763.05 31.6573 760.499 31.1499 757.186 31.1499C753.542 31.1499 750.594 32.2661 748.341 34.4983C746.155 36.6629 745.062 39.6731 745.062 43.5287C745.062 47.4521 746.155 50.5299 748.341 52.7621C750.594 54.9944 753.542 56.1105 757.186 56.1105C760.499 56.1105 763.05 55.6032 764.838 54.5885C766.627 53.5738 767.853 52.1533 768.515 50.3269H779.546C778.685 56.4149 776.3 61.2514 772.391 64.8365C768.482 68.354 763.248 70.1127 756.689 70.1127C751.787 70.1127 747.513 68.9628 743.869 66.6629C740.292 64.2954 737.509 61.1161 735.522 57.1251C733.534 53.1342 732.54 48.602 732.54 43.5287C732.54 38.4555 733.534 33.9572 735.522 30.0338C737.509 26.0428 740.292 22.8974 743.869 20.5975C747.513 18.2976 751.787 17.1477 756.689 17.1477Z" fill="black"/>
<path d="M784.647 18.4667H825.193V32.0631H811.181V68.9966H798.659V32.0631H784.647V18.4667Z" fill="black"/>
<path d="M856.2 68.9966H833.144V18.4667H855.107C860.407 18.4667 864.449 19.6505 867.231 22.018C870.014 24.3856 871.405 27.6663 871.405 31.8602C871.405 34.2954 870.842 36.3923 869.716 38.1511C868.656 39.9098 867.198 41.2289 865.343 42.1082C867.662 42.9876 869.583 44.4081 871.107 46.3698C872.697 48.2638 873.492 50.699 873.492 53.6753C873.492 58.6133 871.902 62.4014 868.722 65.0395C865.608 67.6776 861.434 68.9966 856.2 68.9966ZM845.269 30.1353V39.3687H853.219C855.405 39.3687 857.028 38.9966 858.088 38.2525C859.148 37.5085 859.679 36.3247 859.679 34.7012C859.679 33.0778 859.148 31.9278 858.088 31.2514C857.095 30.5073 855.505 30.1353 853.318 30.1353H845.269ZM845.269 46.8771V57.2266H854.312C856.763 57.2266 858.585 56.8207 859.778 56.009C861.037 55.1297 861.666 53.8106 861.666 52.0519C861.666 50.2255 861.07 48.9064 859.877 48.0947C858.685 47.283 856.896 46.8771 854.511 46.8771H845.269Z" fill="black"/>
<path d="M918.634 69.301C915.785 69.301 913.433 68.5569 911.578 67.0688C909.789 65.5806 908.729 63.3484 908.398 60.372C907.139 63.1454 905.35 65.3777 903.031 67.0688C900.712 68.6922 897.764 69.5039 894.186 69.5039C889.681 69.5039 886.104 68.2525 883.453 65.7497C880.87 63.1793 879.578 59.6956 879.578 55.2988C879.578 52.1871 880.141 49.6505 881.267 47.6888C882.46 45.7272 884.182 44.0699 886.435 42.717C888.687 41.3642 891.437 40.1466 894.683 39.0643L907.304 34.8027C906.907 32.9763 905.979 31.7249 904.522 31.0485C903.13 30.3044 901.375 29.9324 899.255 29.9324C896.803 29.9324 894.849 30.3382 893.391 31.1499C891.934 31.894 891.006 33.1116 890.609 34.8027H880.373C880.77 30.947 881.83 27.7339 883.553 25.1635C885.275 22.5254 887.561 20.5637 890.41 19.2785C893.259 17.9256 896.505 17.2492 900.149 17.2492C906.046 17.2492 910.783 18.8388 914.36 22.018C917.938 25.1297 919.66 29.9324 919.528 36.4262L919.23 52.8636C919.164 54.487 919.429 55.637 920.025 56.3134C920.687 56.9899 921.714 57.3281 923.106 57.3281H924V69.0981C923.139 69.1657 922.244 69.1996 921.317 69.1996C920.389 69.2672 919.495 69.301 918.634 69.301ZM891.602 52.0519C891.602 53.6077 892.232 54.7576 893.491 55.5017C894.816 56.1781 896.472 56.5163 898.46 56.5163C900.381 56.5163 902.17 56.2796 903.826 55.8061C905.482 55.2649 906.642 54.5885 907.304 53.7768L907.404 42.6156L898.559 45.761C896.108 46.6404 894.319 47.5536 893.193 48.5006C892.132 49.3799 891.602 50.5637 891.602 52.0519Z" fill="black"/>
</g>
</g>
</svg>
