<svg width="369" height="73" viewBox="0 0 369 73" fill="none" xmlns="http://www.w3.org/2000/svg">
<g id="&#208;&#160;&#208;&#181;&#209;&#129;&#209;&#131;&#209;&#128;&#209;&#129; 2 2" clip-path="url(#clip0_168_1223)">
<g id="&#208;&#161;&#208;&#187;&#208;&#190;&#208;&#185; 2">
<g id="Layer 2">
<path id="Vector" d="M303.454 16.6124C310.768 16.6124 315.978 12.7461 316.967 4.24866H309.779C309.036 7.25108 307.297 8.7523 303.468 8.7523C299.639 8.7523 297.647 7.25108 297.023 4.24866H289.821C290.81 12.7461 296.147 16.6124 303.454 16.6124Z" fill="black"/>
<path id="Vector_2" d="M155.882 51.2324V20.4929H146.836V65.3027H156.254L174.479 34.0463V65.3027H183.525V20.4929H174.107L155.882 51.2324Z" fill="black"/>
<path id="Vector_3" d="M118.358 20.8682C111.191 20.8682 105.076 24.2389 101.913 30.4987C102.383 20.3442 104.361 14.304 116.001 12.7461L134.101 10.2394L133.357 0.212402L114.515 2.83244C98.2737 5.09134 93.6875 17.703 93.6875 37.6365C93.6875 55.035 101.499 66.1737 116.001 66.1737C130.132 66.1737 137.817 55.1554 137.817 42.2676C137.817 29.3798 129.269 20.8682 118.358 20.8682ZM116.001 56.2742C107.825 56.2742 102.986 50.2694 102.986 41.255V36.6381C104.725 33.0975 109.297 30.3783 116.001 30.3783C123.07 30.3783 128.519 33.7631 128.519 42.2747C128.519 50.7863 124.185 56.2884 116.001 56.2884V56.2742Z" fill="black"/>
<path id="Vector_4" d="M359.947 20.4929V37.2683H342.345V20.4929H333.299V65.3027H342.345V46.5305H359.947V65.3027H369V20.4929H359.947Z" fill="black"/>
<path id="Vector_5" d="M294.281 51.2324V20.4929H285.235V65.3027H294.653L312.879 34.0463V65.3027H321.925V20.4929H312.507L294.281 51.2324Z" fill="black"/>
<path id="Vector_6" d="M199.801 47.9042C198.813 52.9106 197.445 55.042 194.724 55.042C193.595 55.0858 192.465 54.9593 191.372 54.6667V65.0549C192.769 65.7089 194.302 66.0079 195.839 65.9258C200.545 65.9258 203.897 63.1783 205.502 58.9225C206.498 56.2883 207.115 52.6628 207.606 48.0317C208.211 42.0418 208.501 36.0238 208.476 30.003H220.495V65.3027H229.549V20.4929H200.916C200.916 33.9897 200.559 42.8978 199.801 47.9042Z" fill="black"/>
<path id="Vector_7" d="M272.255 53.1586L272.374 35.3848C272.5 24.1186 265.684 19.4875 255.769 19.4875C247.585 19.4875 240.145 23.9983 239.03 34.5138H247.711C248.202 30.3784 251.428 29.0047 255.769 29.0047C260.109 29.0047 263.195 30.3855 263.637 34.9954L252.543 39.5202C244.983 42.6501 239.282 46.1553 239.282 53.5339C239.282 61.1745 243.49 66.0535 251.905 66.0535C257.725 66.0535 261.407 63.2918 264.352 57.8959C264.794 63.2989 268.335 65.6852 274.464 65.6852H276.995V57.0391H276.252C273.37 57.0391 272.255 55.9415 272.255 53.1586ZM255.257 56.6496C251.049 56.6496 247.943 55.5237 247.943 51.6432C247.943 48.2655 250.544 46.7643 255.011 44.8878L263.672 41.2693L263.58 53.4135C262.087 55.2901 259.113 56.6496 255.257 56.6496Z" fill="black"/>
<path id="Vector_8" d="M36.1636 72.9929C56.1324 72.9929 72.3203 56.6529 72.3203 36.4965C72.3203 16.34 56.1324 0 36.1636 0C16.1949 0 0.00695801 16.34 0.00695801 36.4965C0.00695801 56.6529 16.1949 72.9929 36.1636 72.9929Z" fill="#FFC800"/>
<path id="Vector_9" d="M51.7246 63.6882C39.4526 70.8473 26.1288 72.129 17.6226 67.8378C23.1492 71.1643 29.4544 72.9423 35.8882 72.9886C42.322 73.0348 48.6517 71.3477 54.2247 68.101C59.7977 64.8543 64.4125 60.1656 67.5933 54.5181C70.7741 48.8707 72.4058 42.4688 72.3204 35.9724C71.7664 45.532 64.0035 56.5362 51.7246 63.6882Z" fill="black"/>
<path id="Vector_10" d="M40.7569 2.67675C43.2464 7.03168 37.2507 15.2388 27.3139 21.017C17.3771 26.7953 7.34919 27.9495 4.87376 23.5946C4.76055 23.3817 4.66666 23.1589 4.59326 22.929C3.95512 20.8967 4.7265 18.2837 6.58482 15.522C6.87935 15.0877 7.1879 14.6628 7.51048 14.2474C13.3464 6.60302 21.9354 1.59463 31.4092 0.311628C31.9422 0.233735 32.4611 0.170005 32.966 0.134599C36.2619 -0.113243 38.8916 0.524064 40.3081 2.12441C40.4723 2.30602 40.6223 2.50015 40.7569 2.70507V2.67675Z" fill="black"/>
<path id="Vector_11" d="M56.1003 7.38574C60.4481 14.9839 51.6824 28.3036 36.5143 37.1267C21.3462 45.9499 5.56093 46.9767 1.21315 39.3786C0.480069 38.1004 0.0638578 36.6622 -1.82129e-05 35.1865C-0.196111 40.3984 0.724825 45.5917 2.69981 50.4111C3.00135 51.1192 3.33094 51.8839 3.68157 52.6062C3.68157 52.6062 3.68157 52.6629 3.73065 52.6983C5.08683 54.9935 7.05851 56.8544 9.41783 58.0658C17.924 62.6544 32.3068 61.0824 45.7568 53.2435C59.2069 45.4047 67.7482 33.6428 68.0637 23.9132C68.1942 21.2532 67.5793 18.6099 66.2895 16.2868C65.7987 15.5433 65.2868 14.821 64.7468 14.12C61.6276 10.0494 57.6856 6.69643 53.1831 4.28418C54.3824 5.07039 55.3817 6.13043 56.1003 7.37866V7.38574Z" fill="black"/>
<path id="Vector_12" d="M36.1707 72.9929C56.1395 72.9929 72.3274 56.6529 72.3274 36.4965C72.3274 16.34 56.1395 0 36.1707 0C16.2019 0 0.0140381 16.34 0.0140381 36.4965C0.0140381 56.6529 16.2019 72.9929 36.1707 72.9929Z" fill="url(#paint0_radial_168_1223)"/>
</g>
</g>
</g>
<defs>
<radialGradient id="paint0_radial_168_1223" cx="0" cy="0" r="1" gradientUnits="userSpaceOnUse" gradientTransform="translate(36.1707 36.4965) scale(36.1567 36.5106)">
<stop offset="0.5" stop-color="white" stop-opacity="0"/>
<stop offset="0.6" stop-color="white" stop-opacity="0.02"/>
<stop offset="0.71" stop-color="white" stop-opacity="0.07"/>
<stop offset="0.82" stop-color="white" stop-opacity="0.15"/>
<stop offset="0.93" stop-color="white" stop-opacity="0.26"/>
<stop offset="1" stop-color="white" stop-opacity="0.35"/>
</radialGradient>
<clipPath id="clip0_168_1223">
<rect width="369" height="73" fill="white"/>
</clipPath>
</defs>
</svg>
